<?xml version="1.0" encoding="utf-8"?>
<!-- Generator: Adobe Illustrator 25.4.1, SVG Export Plug-In . SVG Version: 6.00 Build 0)  -->
<svg version="1.1" id="Layer_1" xmlns="http://www.w3.org/2000/svg" xmlns:xlink="http://www.w3.org/1999/xlink" x="0px" y="0px"
	 viewBox="0 0 447.9 447.9" style="enable-background:new 0 0 447.9 447.9;" xml:space="preserve">
<style type="text/css">
	.st0{fill:#1086CE;}
</style>
<path class="st0" d="M0,220c2.6-6.4,4.2-13.4,8-19c8.2-12.2,20.7-16.6,35.1-16.6c42.9,0,85.8,0,128.8,0c9.6,0,11.7-2.2,11.7-11.8
	c0-42.9,0-85.8,0-128.8c0-11.3,2.7-21.7,10.8-30c12-12.3,26.3-15.8,42.7-10.4c13.7,4.5,24.7,18.2,25.9,32.7c0.4,4.5,0.6,9,0.6,13.5
	c0,41.2,0,82.3,0,123.5c0,9,2.3,11.3,11.3,11.3c43.1,0,86.1,0,129.2,0c11.3,0,21.7,2.7,30,10.7c12.3,12,15.8,26.3,10.5,42.7
	c-4.4,13.7-18.2,24.7-32.6,25.9c-4.5,0.4-9,0.6-13.5,0.6c-41.2,0-82.3,0-123.5,0c-9.1,0-11.4,2.3-11.4,11.3c0,43.1,0,86.1,0,129.2
	c0,10.3-2.2,19.9-9,28c-6.6,8-14.8,12.9-25.1,14.4c-0.5,0.1-1,0.4-1.6,0.6c-2.9,0-5.8,0-8.7,0c-0.5-0.2-1-0.6-1.6-0.6
	c-10.2-1.5-18.5-6.4-25.1-14.4c-6.7-8.2-9-17.7-9-28c0-42.9,0-85.8,0-128.7c0-9.6-2.2-11.8-11.8-11.8c-42.9,0-85.8,0-128.7,0
	c-14.4,0-26.9-4.4-35.1-16.6c-3.8-5.6-5.4-12.6-8-19C0,225.9,0,223,0,220z"/>
</svg>
