<?xml version="1.0" encoding="utf-8"?>
<!-- Generator: Adobe Illustrator 25.4.1, SVG Export Plug-In . SVG Version: 6.00 Build 0)  -->
<svg version="1.1" id="Layer_1" xmlns="http://www.w3.org/2000/svg" xmlns:xlink="http://www.w3.org/1999/xlink" x="0px" y="0px"
	 viewBox="0 0 409.6 409.6" style="enable-background:new 0 0 409.6 409.6;" xml:space="preserve">
<style type="text/css">
	.st0{fill:#0B4C84;}
</style>
<path class="st0" d="M193.3,0.8c8,0,16,0,24,0c2.9,0.3,5.7,0.7,8.6,1c44,4.9,82.8,21.7,115.7,51.3c34.9,31.5,56.7,70.5,65,116.9
	c1.4,7.7,2.1,15.5,3.2,23.2c0,8,0,16,0,24c-0.9,6.8-1.5,13.7-2.6,20.5c-7.1,42.7-25.5,79.9-56.1,110.5
	c-45.9,45.9-101.7,66.1-166.3,60.3c-43.4-3.9-81.7-20.9-114.3-49.9c-43.2-38.5-66.5-87-69.4-144.8c-2-40.3,7.4-78.2,28.5-112.7
	C61.9,48,108.8,15.5,170.1,4C177.7,2.6,185.5,1.9,193.3,0.8z M205.1,178.3c1.4,1.3,2.5,2.3,3.5,3.3c22.5,22.5,45,45,67.5,67.4
	c1.3,1.3,2.7,2.6,4.1,3.8c7.5,5.8,18.1,4.3,23.8-3.2c5.6-7.4,4.5-16.3-2.9-23.7c-27.2-27.2-54.4-54.4-81.5-81.6
	c-9.7-9.7-18.9-9.7-28.7,0.1c-26.9,26.9-53.8,53.8-80.7,80.7c-1.2,1.2-2.4,2.5-3.5,3.8c-5,6.4-4.8,15.1,0.5,21.3
	c6.8,8,17.8,8.1,26,0.1c13.2-13.1,26.4-26.3,39.5-39.5C183.4,200.1,194.1,189.4,205.1,178.3z"/>
</svg>
