<?xml version="1.0" encoding="utf-8"?>
<!-- Generator: Adobe Illustrator 25.4.1, SVG Export Plug-In . SVG Version: 6.00 Build 0)  -->
<svg version="1.1" id="Layer_1" xmlns="http://www.w3.org/2000/svg" xmlns:xlink="http://www.w3.org/1999/xlink" x="0px" y="0px"
	 viewBox="0 0 205.5 360.8" style="enable-background:new 0 0 205.5 360.8;" xml:space="preserve">
<style type="text/css">
	.st0{fill:#0B4C84;}
</style>
<path class="st0" d="M176.8,360.8c-7.9-1.6-13.5-6.5-19-12c-49.6-49.7-99.2-99.3-148.9-149c-7.8-7.8-11.1-16.9-7.3-27.5
	c1.4-3.8,3.9-7.6,6.8-10.5c51-51.2,102.2-102.4,153.4-153.5c7.8-7.7,17.1-10.4,27.4-6.5c9.7,3.6,15.3,11.1,16.3,21.5
	c0.8,8.4-2.5,15.3-8.4,21.1c-11.8,11.8-23.6,23.6-35.4,35.4c-32.5,32.5-65.1,65.1-97.6,97.6c-0.9,0.9-1.9,1.7-4.2,3.6
	c1.8,1,92.7,90.9,137,135.1c7.6,7.6,10.8,16.4,7.5,26.9c-2.6,8.3-8.2,13.8-16.5,16.4c-1.3,0.4-2.6,0.9-4,1.3
	C181.5,360.8,179.1,360.8,176.8,360.8z"/>
</svg>
