<?xml version="1.0" encoding="utf-8"?>
<!-- Generator: Adobe Illustrator 25.4.1, SVG Export Plug-In . SVG Version: 6.00 Build 0)  -->
<svg version="1.1" id="Layer_1" xmlns="http://www.w3.org/2000/svg" xmlns:xlink="http://www.w3.org/1999/xlink" x="0px" y="0px"
	 viewBox="0 0 2326.6 3235.6" style="enable-background:new 0 0 2326.6 3235.6;" xml:space="preserve">
<style type="text/css">
	.st0{fill:#E7F5FD;stroke:#1D1D1B;stroke-width:0.25;stroke-miterlimit:10;}
	.st1{fill:#8FC6EC;}
	.st2{fill:#C9E6F9;}
	.st3{fill:#1984C6;}
	.st4{fill:#FFFFFF;stroke:#1D1D1B;stroke-width:0.25;stroke-miterlimit:10;}
	.st5{fill:#FFFFFF;}
	.st6{fill:#0B4C84;}
	.st7{fill:#1C2544;}
	.st8{fill:#4896CB;}
	.st9{fill:#5A5A5A;}
	.st10{fill:#AE1917;}
</style>
<g>
	<path class="st2" d="M1703.7,2235.7c-1,25-4.1,49.7-10.9,73.9c-1.9,6.8-3.9,13.6-6.5,20.1c-10.2,25.7-16.1,52.6-20.6,79.7
		c-6,36.6-9.7,73.5-12.6,110.5c-6.2,79.2-7.7,158.5-7.5,237.8c0,6.4,0.1,12.8-0.1,19.2c-0.1,6.5-2,8.9-8.6,10.8
		c-18.4,5.4-37.2,9.5-56,12.9c-51.8,9.3-104,13.2-156.6,13.1c-21.7,0-43.5-0.3-65.2-1.5c-22.3-1.3-44.6-3.8-66.8-6
		c-14-1.4-27.9-3.3-41.9-5.2c-4.4-0.6-8.8-1.7-13.1-2.9c-2.6-0.7-4.3-2.9-4.7-5.6c-1.6-10.8-2.9-21.5-4.5-32.3
		c-7.1-49-20.8-96.1-38.9-142.1c-14-35.7-27.1-71.8-40.6-107.7c-0.9-2.4-1.2-4.9-1.8-7.4c-0.3-1.3,1.7-4.2,2.9-4.4
		c3.1-0.5,6.3-1.1,9.4-1.4c38.4-2.8,76.1-9.5,113.2-19.8c22.2-6.2,44-13.6,65.1-22.8c3.5-1.5,6.7-3.6,9.9-5.7
		c2.4-1.6,3.7-7.5,2.4-10.7c-1.3-3.1-3.7-5.3-7.1-5.9c-1.9-0.3-3.8-0.4-5.7-0.2c-2.5,0.3-5.1,0.8-7.6,1.4
		c-26.1,6.3-52.5,11.4-79,15.6c-50.1,8-100.4,11.7-151,9.2c-103.8-5.2-201.7-32.2-293.4-81.2c-10.1-5.4-19.9-11.5-29.9-17.3
		c-2.8-1.6-5.6-3-8.5-4.3c-3.2-1.4-8.2,0.2-10.5,2.9c-2.8,3.4-3.2,9.4-0.6,12.5c2,2.4,4.2,4.8,6.6,6.9
		c13.6,11.7,28.2,22.1,43.3,31.8c47.8,30.6,99.2,52.9,153.8,68.1c40.2,11.2,81.1,18.2,122.8,20.3c3.2,0.1,6.4,0.4,9.5,0.8
		c2.7,0.4,4.6,2.1,5.8,4.5c1.2,2.3,2.2,4.6,3.1,7c11.9,32.4,23.7,64.9,35.8,97.2c3,8,3.9,16,3.5,24.4c-0.9,21.8-4.9,43.2-9.5,64.5
		c-5.1,23.8-11.5,47.2-18.6,70.5c-0.4,1.2-0.7,2.5-1.1,3.7c-1.7,5.1-4.5,9.1-9.6,11.2c-8.9,3.7-17.5,7.9-26.5,11.2
		c-32.5,12.3-66.2,19.1-100.6,23.5c-23.6,3-47.1,3.9-70.8,3.9c-30.1,0-60-2.9-89.9-6.7c-29.9-3.8-59.3-9.4-88.6-16.5
		c-3.7-0.9-7.3-2.2-10.9-3.5c-1.1-0.4-2-1.5-3.6-2.7c-0.5-3.3-1.3-7-1.6-10.8c-1.1-10.8-2.1-21.7-2.9-32.5
		c-1.7-21.7-3.3-43.4-5-65.1c-2-26.2-4.1-52.3-6.1-78.4c-0.2-3.2-0.6-6.4-0.8-9.6c-3.1-49.8-6-99.6-9.2-149.4
		c-3.6-56.8-6.4-113.7-7.9-170.6c-0.6-20.5-1.8-40.9-2.1-61.4c-0.4-25.6-0.2-51.2-0.2-76.8c0-2.5,0.5-5.1,0.8-7.6
		c0.2-1.6,3-2.7,4.6-1.8c1.1,0.6,2.4,1,3.4,1.7c16,11.7,34.5,16.1,53.8,18.7c35.5,4.7,70.9,9.8,106.4,14.6
		c32.3,4.4,64.6,8.6,97,13.1c32.3,4.4,64.6,9,96.9,13.5c22.2,3.1,44.3,6,66.5,9.1c24.1,3.3,48.1,6.6,72.2,9.9
		c22.2,3.1,44.3,6.1,66.5,9.1c15.2,2.1,30.5,3.7,45.6,6.3c46.4,7.9,99.5-22.7,107.8-80.2c2.5-17.7,5-35.5,7.5-53.2
		c0.4-2.5,1-5,2-7.3c0.4-1,1.8-2,2.9-2.1c2.5-0.2,5.1-0.1,7.5,0.3c44.2,7.8,88.6,12.7,133.4,14.6c32,1.3,63.9,1.3,95.9-0.4
		c5.7-0.3,11.5-0.7,17.3-0.5c3.1,0.1,6.5,0.6,9.2,1.9c6.3,3,12.9,5.6,19.2,10.1c1.3,5.3,3,10.8,3.9,16.4
		C1701.6,2160.3,1705.1,2197.9,1703.7,2235.7z"/>
	<path class="st4" d="M1804.4,1657c-3.4,2.9-6.4,6.3-9.4,9.5c-27.9,29.3-52.3,61.3-70.8,97.5c-15.2,29.8-26.7,60.9-32.5,93.9
		c-9.4,53.5-5,105.8,14.1,156.7c4.3,11.4,9.5,22.4,14.5,33.4c1.8,4.1,4.2,7.9,6,12c0.7,1.6,0.8,3.7,0.8,5.5c0,1.2-4.2,2-7.1,1.4
		c-12-2.3-23.4-6.4-33.9-12.9c-16.9-10.5-32.6-22.5-46.8-36.5c-17.4-17.1-32.7-36-46.4-56.1c-5-7.4-9.6-15-17.1-20.5
		c-2.9-2.1-4.8-5.9-6.8-9.1c-13.4-21.8-25-44.6-35.5-67.9c-10.3-22.8-19.2-46-27.7-69.5c-1.7-4.8-3.6-9.6-5.9-14.1
		c-2.5-4.9-9.4-7.3-15-5.5c-6.2,1.9-10.4,8.7-9,15c1,4.4,2.3,8.6,3.6,12.9c12.2,41.1,27.2,81.2,45.6,120.1c1.6,3.4,2.9,7,4,10.7
		c0.2,0.7-1,2.5-1.8,2.7c-2.4,0.5-5,0.9-7.5,0.7c-28.7-2.5-57.2-6.2-85.4-12.1c-1.2-0.2-2.5-0.8-3.4-1.6c-0.9-0.8-2-1.9-2.1-3
		c-0.3-3.1-0.6-6.4-0.1-9.5c4.1-30.4,8.4-60.8,12.6-91.2c2-14.1,1.9-28.1-2.2-41.8c-10.7-36.3-34.4-59.2-71.5-67.1
		c-15-3.2-30.3-4.8-45.5-6.9c-26-3.7-51.9-7.3-77.9-10.8c-22.8-3.1-45.6-6-68.5-9.1c-22.8-3.1-45.6-6.4-68.4-9.5
		c-22.2-3.1-44.3-6.1-66.5-9.2c-24.7-3.4-49.4-6.9-74.1-10.2c-22.8-3.1-45.6-6.1-68.4-9.2c-23.4-3.2-46.9-6.5-70.3-9.7
		c-11.4-1.6-22.8-3.6-34.2-4.6c-8.9-0.8-17.8-0.1-26.7-0.4c-0.8,0-2.2-1.8-2.1-2.6c0.5-3.1,1.2-6.2,2.2-9.2
		c4.3-11.4,8.9-22.6,13.1-34c1.3-3.5,2.2-7.3,2.5-11.1c0.5-5-3.2-9.3-8.8-11.1c-3.6-1.2-9.7,0.8-11.9,4.3c-2.1,3.2-4,6.6-5.5,10.1
		c-9.1,21.2-18.2,42.3-26.8,63.6c-2.7,6.6-6.1,12.5-11.3,17.5c-15.8,15.4-23.8,34.5-26.9,56c-3.1,21.5-6,43.1-9.2,64.6
		c-0.8,5.7-2.5,11.2-4.1,16.7c-0.8,2.6-3.2,4-5.8,4.3c-4.5,0.5-9,0.3-13.4,0.9c-8.9,1.1-17.7,2.6-26,6.3
		c-26.2,11.6-41.3,31.7-44.9,60c-2.8,21.5,6.2,53.6,37,70.6c4.5,2.5,9.2,4.4,13.8,6.7c2.4,1.2,3.8,3.7,3.4,6.3
		c-5,30.3-0.4,28.4-31.1,33c-31,4.7-62.2,7.8-93.6,6.7c-24.4-0.8-48.5-3.7-71.9-10.6c-2.5-0.7-5-1.3-7.4-2.2
		c-26.8-10-23.7-6.8-23.5-33.7c0.3-54,7.4-107.2,23.6-158.8c14.8-47.1,38.6-89.1,74.4-123.7c2.7-2.6,6-4.7,9.2-6.8
		c0.5-0.3,2.6,0.6,2.8,1.3c0.5,1.8,0.7,3.8,0.4,5.6c-4.7,23.9-6.5,48.1-9.3,72.3c-0.3,2.5-0.2,5.1-0.1,7.7c0.2,4,4.7,8.2,9,8.6
		c3.7,0.3,8-2.1,9.3-5.5c1.1-3,2.1-6,3-9.1c7.4-28.5,16.3-56.5,26.4-84.1c12.7-34.8,31.9-65.4,56.7-92.7
		c36.5-40.1,78.5-73.2,126.6-98.4c11.3-5.9,22.8-11.6,34.2-17.3c3.7-1.9,7.4-1.4,10.9,0.7c3.8,2.3,7.7,4.7,11.5,7
		c78.5,48.7,163.1,82.2,253.5,101c31.9,6.7,64.2,11.2,96.8,13.7c21.1,1.6,42.1,2.8,63.2,2.7c116.3-0.5,227.1-25.1,332.4-74.4
		c16.2-7.6,31.9-16.3,47.8-24.4c4.5-2.3,9.1-4.6,13.7-6.9c3.9,1.5,7.6,2.6,11,4.2c34.5,15.6,67.1,34.6,97.5,57.1
		c21.7,16.1,40.8,35,56.9,56.7c12.3,16.5,22.4,34.2,29.3,53.7c0.8,2.4,1.7,4.8,2.6,7.2C1810,1647.3,1809.6,1652.6,1804.4,1657z"/>
	<path class="st1" d="M2278.9,1742.6c-2.4,0.9-4.8,2-7.2,2.2c-9.6,0.8-19.1,0.4-28.7-1c-18.4-2.7-36.5-6.2-54.3-11.7
		c-4.2-1.3-8.6-2.5-13-3c-12.3-1.3-22.7,7.4-23.6,19.8c-0.2,3.2,0,6.4,0,9.6c0.2,8.4-1.3,16.6-3.5,24.6
		c-5.8,20.9-18.7,36.1-38.1,45.7c-13.9,7-28.8,10.3-44.2,12.1c-4.4,0.5-8.9,0.6-13.3,1.4c-1.7,0.3-3.3,1.7-4.7,3
		c-2.4,2.2-1.8,6.8,1,8.2c2.2,1.1,4.7,2.3,7,2.4c12.1,0.5,24.3,1.3,36.4,0.6c29.3-1.7,54.5-12.8,74.3-35c1.7-1.9,3.3-3.9,5.1-5.8
		c2.5-2.7,6.1-2.3,8,0.7c2,3.2,4,6.5,5.9,9.8c13.8,23.2,29.4,44.9,48.4,64.1c12.8,12.9,22.3,27.9,27.6,45.5
		c3.5,11.7,5.9,23.5,4,35.9c-2,13.7-7.3,25.8-15.7,36.6c-5.6,7.1-11.9,13.4-19.1,18.8c-27.7,20.6-58.4,34.1-93,37.8
		c-28.2,3-54.7-2.6-79.8-15.4c-17.8-9.1-33.7-20.9-48-34.7c-8.3-8-16.4-16.2-23.8-25c-34.1-40.2-63.4-83.4-85.2-131.6
		c-1.8-4.1-3.7-8.2-5.6-12.2c-0.8-1.7-1.6-3.6-2.9-4.9c-1.2-1.2-3.1-1.9-4.9-2.2c-1.4-0.3-3.6,2.2-3.6,3.8c0.1,4.5-0.2,9,0.6,13.4
		c2.9,16.4,5.7,32.8,9.3,48.9c3.2,14.3,7.4,28.4,11.4,42.6c1.3,4.5,1.2,8.7-0.7,13c-13.1,29-31.1,54.3-55.8,74.6
		c-15,12.3-31.8,21.4-50.2,27.3c-3.6,1.2-7.4,1.9-11.2,2.6c-3.5,0.6-6.2-0.9-8.2-3.6c-0.8-1-1.6-2-2.2-3.1
		c-17.9-28.3-31.6-58.4-39.5-91.1c-10-41.4-8.6-82.4,2.5-123.3c8.3-30.5,21-58.9,37.9-85.6c16.9-26.5,36.7-50.8,59.1-72.8
		c5.2-5.1,11-8.3,18.1-10.1c38.4-9.7,77.2-17.8,116.4-23.5c32.3-4.7,64.7-8.1,97.4-8.2c11.5,0.3,23,0.2,34.5,0.8
		c43.5,2.3,84.3,14.2,122.1,35.7c13.4,7.6,25.8,16.6,36.8,27.5c5.9,5.9,11.3,12.2,15.4,19.5c1.5,2.8,2.5,5.9,3.6,8.8
		C2282.6,1738.3,2281.1,1741.8,2278.9,1742.6z"/>
	<path class="st3" d="M1657.2,3079.2c-0.9,12.1-3.1,24.1-6.4,35.8c-2.4,8.4-6.9,15.2-14.1,19.9c-6.9,4.6-14.1,8.8-21.5,12.6
		c-15.5,7.9-31.9,13.2-48.5,17.9c-34.5,9.8-69.7,15.9-105.4,20c-45.9,5.3-91.9,5.8-138,3.1c-37.1-2.1-73.8-7.8-109.3-19.1
		c-10.3-3.3-20.4-7.6-30.5-11.6c-3.1-1.2-5.5-3.5-6.3-6.8c-7.2-29-9.8-58,1.4-86.7c1.2-3,2.5-5.9,3.9-8.8
		c6.1-12.3,14.9-22.1,26.7-29.4c18-11.3,37.2-19.8,57.6-25.7c25.5-7.4,51.5-9.3,77.9-8.1c5.7,0.3,11.5,0.1,17.2,0
		c2,0,4.7-2.9,5.1-5.1c0.5-2.7-0.1-5.3-2.1-7c-1.9-1.6-4.3-2.8-6.6-3.6c-15.7-5.6-31.9-9.4-48.6-10.5c-26.3-1.8-52.4-0.7-78,6.8
		c-2.4,0.7-5,0.7-7.5,0.5c-1-0.1-2.5-1.4-2.6-2.4c-0.2-1.8,0.2-3.8,0.6-5.6c4.6-21.9,8.9-43.9,10.5-66.3c0.9-12.8,1.6-25.5,2.4-38.3
		c0.3-4.5,0.5-8.9,0.9-13.4c0.1-1.3,2.9-3.5,4.2-3.3c10.8,1.3,21.5,2.7,32.3,3.9c19.7,2.1,39.4,4.2,59.1,6.2
		c43.4,4.2,86.9,4,130.4,3.7c7.7,0,15.4-0.2,23-0.9c22.3-2,44.6-3.9,66.8-6.5c24.8-3,49.3-7.6,73.5-13.6c5-1.2,9.9-2.4,14.9-3.6
		c8.1-1.9,9.7-0.8,10.9,8.3c0.8,6.3,1.6,12.7,2.1,19.1c3.4,43.4,5.6,86.8,6.4,122.3C1661.2,3020.5,1659.4,3049.9,1657.2,3079.2z"/>
	<path class="st3" d="M1155.9,3013.4c-2.7,3.6-5.4,7.1-7.9,10.8c-14.5,21.1-22.6,44.4-24.1,69.8c-1,16-0.7,32,2.8,47.7
		c0.4,1.9,0.6,3.8,0.8,5.7c0.3,2.3-1.8,5.4-3.9,5.9c-6.3,1.3-12.5,2.8-18.8,3.7c-24.1,3.2-48.2,6.3-72.3,9.2
		c-19,2.3-38.1,4.8-57.2,6.1c-38.3,2.7-76.5,6.1-115,5.4c-16.6-0.3-33.3-0.2-49.9-0.8c-32.6-1.3-65-4.6-97.1-11.2
		c-13.8-2.8-27.3-6.7-40.2-12.6c-10.5-4.8-20.3-10.8-28.5-19.2c-14.9-15.2-20.9-33.6-17.6-54.4c5.5-34.9,23.9-61.5,53.6-80.4
		c5.3-3.4,11.2-6.2,17.2-8.2c22-7.1,44.5-11.9,67.7-12.6c32.3-1,63.7,4,93.7,16.8c6.5,2.8,12.9,5.5,19.4,8.1c2,0.8,5.5-0.5,6.7-2.6
		c1.4-2.3,1.8-4.7,0.6-7.3c-1.4-3.1-4.1-4.8-6.7-6.7c-23.8-16.8-49.9-28.5-78.1-35.6c-19.3-4.8-38.8-8.1-58.8-8.2
		c-4.5,0-9-0.2-13.4-0.9c-1.5-0.2-3.2-2.1-3.9-3.7c-1-2.3-1.3-4.9-1.5-7.4c-2.5-26.1-4.9-52.2-7.3-78.3c-0.2-2.4,0.2-5,0.8-7.4
		c0.2-0.9,1.7-2.2,2.7-2.2c3.2-0.1,6.4-0.2,9.5,0.5c22.4,5.2,45,9.4,67.8,12.7c18.3,2.6,36.7,5.2,55.3,6.2
		c21.1,1.1,42.1,3.3,63.2,2.7c41.6-1.3,83-3.8,123.6-13.9c19.9-5,39.5-10.7,58.5-18.4c4.7-1.9,9.5-3.6,14.4-5.3
		c2.1-0.7,4,0.3,4.9,1.9c1.6,2.7,2.9,5.7,3.9,8.7c9.5,27.2,16.4,55.2,22.1,83.4c5.3,26.3,9.7,52.8,14.5,79.2
		c0.2,1.3,0.4,2.5,0.5,3.8C1158.3,3007.6,1157.9,3010.7,1155.9,3013.4z"/>
	<path class="st4" d="M1259.2,1740c-4.3-1.2-8.7-1.9-13.1-2.6c-5.1-0.8-10.2-1.2-15.2-1.9c-24.7-3.4-49.4-6.8-74.1-10.2
		c-22.2-3.1-44.3-6.1-66.5-9.1c-22.8-3.2-45.6-6.4-68.3-9.6c-25.3-3.5-50.6-7.1-76-10.5c-8.2-1.1-16.5-1.9-24.8-2.8
		c-3.2-0.3-6.4,2.1-6.9,5.2c-0.5,3.1-1,6.3-1.4,9.5c-1.9,17.8-3.8,35.6-5.8,53.4c-3.1,27.3-6.3,54.6-9.4,81.9
		c-0.4,3.8-0.6,7.7-0.8,11.5c-0.7,14.3,4.6,26.3,15.1,35.8c7.6,6.9,15.5,13.4,23.2,20.1c5.3,4.6,10.8,9,15.7,14.1
		c18.9,19.4,27.8,42.9,25.2,69.8c-3.4,35.6-8.2,71.1-12.3,106.7c-1,8.2-1.6,16.5-2.3,24.8c-0.3,3.6,1.7,6.4,5,7.1
		c5.6,1.1,11.3,2.2,17,3c22.8,3.1,45.6,5.9,68.4,9.1c41.8,5.8,83.5,11.8,125.3,17.6c7,1,14,1.5,21.1,2.3c23.7,1,43.5-13.5,49.5-36.8
		c1-3.7,1.7-7.5,2.3-11.3c3-20.9,6-41.8,8.9-62.6c4.8-34.2,9.6-68.3,14.4-102.5c6.4-46.2,12.8-92.4,19-138.7
		c1-7.6,2.1-15.2,2.6-22.9C1296.5,1766.8,1282,1746.5,1259.2,1740z M1139.9,1993.1c-56,0.2-98.9-43.7-98.6-98.8
		c0.4-54.8,42.9-96.4,97.9-97.9c55.8,1.2,98.9,43.8,98.6,99.1C1237.4,1949.9,1195.2,1992.9,1139.9,1993.1z"/>
	<path class="st0" d="M1229.3,325.2c-4.9,4.5-11.5,4.5-17.5,5.9c-88.3,21.1-171.8,53.9-249.9,100.5
		c-49.7,29.6-95.2,64.6-135.3,106.4c-27.1,28.2-51.2,58.9-71.2,92.6c-45.9,77.7-87.2,157.8-121.3,241.4
		c-8.4,20.7-15.9,41.8-23.9,62.7c-0.9,2.3-2.5,4.2-3.9,6.2c-0.2,0.2-1.6,0-1.8-0.3c-2.7-7.2-3.9-14.7-5.2-22.2
		c-5.4-31.5-8.6-63.4-10.8-95.2c-2.4-33.8-2.5-67.8-0.2-101.6c2.6-38.3,7.9-76.3,18.2-113.4c10.4-37.2,24.9-72.5,46.4-104.8
		c20.9-31.3,47-57.2,78.8-77.3c34.1-21.6,70.2-39.4,107.8-54.1c51.4-20,104.4-34.1,158.8-43.5c24-4.1,48.1-7,72.2-9.8
		c14.6-1.7,29.4-1.7,44-2.4c7.7-0.4,15.3-0.7,23-1.1c0-0.2,0-0.4,0-0.6c8.3,0.3,16.6,0.5,24.9,0.9c11.5,0.6,23,1.2,34.5,1.9
		c4.5,0.3,8.9,0.5,13.4,1.2C1224,320.9,1231.2,323.5,1229.3,325.2z"/>
	<path class="st1" d="M520.8,1598.2c-1.5,1.4-3.3,3.3-5.3,4.7c-43.8,30.2-74.9,70.8-98.6,117.9c-18.6,36.9-30.1,76-37.4,116.4
		c-4.6,25.8-7.9,51.8-8.5,78.1c-0.1,3.8-0.7,7.6-1.1,11.4c-0.2,1.8-3.2,3.3-4.5,2.3c-2.4-2.1-5-4-7.1-6.3
		c-11.8-12.6-22.6-26.1-32.8-40c-29.3-39.8-54.1-82.2-76.9-125.9c-6.8-13-13.1-26.3-19.7-39.5c-1.7-3.4-3.2-7-5.2-10.2
		c-6.5-10.9-18.9-14.3-29.9-8.4c-3.9,2.1-7.6,4.7-11.4,7c-15,8.9-30.9,15-48.2,18c-24,4.2-45.7-1.3-65.7-14.6
		c-7.5-4.9-14.3-10.7-19.6-18.2c-4.6-6.4-4.6-13-1-19.8c3-5.8,7.4-10.6,12.5-14.4c8.7-6.5,17.4-13,26.8-18.5
		c24.9-14.6,51.4-25.8,78.6-35.4c8.4-3,17-5.6,25.5-8.2c7-2.1,12.7-5.8,16.6-12.1c2-3.2,4.5-6.3,7-9.1c15.4-17.1,34.5-26,57.6-25.6
		c5.7,0.1,11.5,0.6,17.2,0.7c2.7,0.1,4.8-1.4,6.5-3.5c2-2.4,2.1-7-0.2-8.7c-2.5-1.9-5.1-3.9-8-5.1c-27-10.6-53.7-9.6-80.1,2.3
		c-5.2,2.4-10.3,5.2-15.4,7.7c-2,1-5.2-0.2-6.9-1.9c-8.9-9.4-9.4-27.6-2.6-37.7c2.8-4.1,6.5-6.3,11.3-5.5c8.2,1.3,16.4,2.8,24.5,4.3
		c21.6,4,43.2,4.1,64.8-0.1c8.8-1.7,17.7-2.9,26.6-3.7c18-1.8,35.8,0.8,53.3,4.5c22,4.7,42.8,12.9,62.6,23.4
		c33.6,17.8,63.4,40.7,91.1,66.6C519.2,1592.8,520.7,1594.8,520.8,1598.2z"/>
	<path class="st2" d="M932.2,2000.1c-4.9,34.8-9,69.8-13.5,104.6c-0.2,1.3-0.5,2.5-0.6,3.8c-1.9,18.8-2.7,18.2-19.8,15.9
		c-31.7-4.1-63.3-8.9-95-13.3c-21.5-3-43.1-5.8-64.6-8.9c-5-0.7-10.2-1.5-15-3.1c-20.5-6.8-33.5-25.1-33.4-46.5
		c0-3.8,0.4-7.7,0.9-11.5c5.6-41.8,11.4-83.6,17-125.4c4.4-32.3,8.5-64.7,13-97c4.7-34.2,9.5-68.4,14.5-102.5
		c2.8-18.6,13.7-31.2,30.9-38.5c6.7-2.8,13.7-3,21.4-2.9c3.8,0.3,8.3,0.6,12.7,1.2c19.6,2.6,39.3,5.3,58.9,8.1
		c2.5,0.3,5.1,1,7.3,2.2c1.5,0.8,3.3,2.6,3.5,4.1c0.4,3.8,0.2,7.7-0.3,11.4c-3.7,33-7.4,66.1-11.1,99.1c-1.7,14.6-3.4,29.2-5.1,43.8
		c-3.5,30,5.5,55.6,27.2,76.5c9.7,9.3,19.9,18.2,30.5,26.3C929.2,1961.2,935.2,1978.5,932.2,2000.1z"/>
	<path class="st1" d="M1907.5,562.6c-0.4,0.2-1.4-0.2-1.7-0.7c-2.7-3.6-5.4-7.1-7.9-10.8c-68-100.2-155.4-179.4-259.4-240.7
		c-82.8-48.7-171.5-82.3-265.6-101.5c-34.5-7.1-69.2-12-104.2-15.5c-45.3-4.4-90.7-4.4-136.1-2.4c-30,1.3-59.8,5-89.5,9.8
		c-40.5,6.5-80.2,15.7-119.3,27.8c-102.5,32-195.8,81.1-278.9,149.3c-19.8,16.2-38.6,33.6-56.6,51.7c-2.5,2.5-4.7,5.9-8.9,5.9
		c0.2-1.7,0-3.7,0.9-5c3.2-4.8,6.8-9.3,10.4-13.8c79.9-99,178.9-172.8,295.7-222.8c55.4-23.7,112.9-40.5,172.4-51.1
		c57.5-10.3,115.5-13.8,173.8-11.5c149.8,5.8,287.8,49.2,413.1,131.6c104.5,68.7,187.4,157.8,248.1,267.3
		c5.2,9.5,9.8,19.4,14.7,29.1C1909.1,560.9,1909,562,1907.5,562.6z"/>
	<path class="st5" d="M579.3,435.7c0,0.1,0,0.2,0,0.4l-0.3-0.4C579.1,435.7,579.2,435.7,579.3,435.7z"/>
	<path class="st1" d="M1809.8,1222c0,0.7-0.1,1.4-0.4,1.9c-3.4,5.4-7.1,10.7-11,15.7c-68.7,87.4-152.7,156.1-252,206
		c-66.8,33.5-137.2,56.1-210.9,68.4c-43.6,7.3-87.6,10.2-131.9,9.2c-178.9-3.9-336.4-64.2-472.3-180.4
		c-70.8-60.6-127.2-132.8-170.7-215.3c-3-5.6-5.7-11.5-8.4-17.2c-0.5-1.1-0.5-2.4-0.7-3.6c0.9-1,2-0.9,3,0.4
		c3.9,5,7.8,10.1,11.7,15.2c65.2,85.9,142.3,159.2,232.8,218c76.3,49.5,158.4,85.9,246.9,107.4c36.7,8.9,73.9,14.9,111.6,18.2
		c25.6,2.2,51.1,3.1,76.7,2.7c61-1.1,121-9.6,180.1-25c108.5-28.2,207.1-76.8,297.5-142.6c33.2-24.1,64.4-50.6,94.4-78.5
		c1.2-1.1,2.3-2.5,3.4-3.8c0,0.3,0,0.6,0.1,0.9c0,0.4,0.1,0.8,0.1,1.2c0,0.3,0,0.5,0,0.8C1809.8,1221.6,1809.8,1221.8,1809.8,1222z"
		/>
	<path class="st5" d="M1810,1218.1c-0.1,0.1-0.2,0.2-0.3,0.4c0,0-0.1,0.1-0.1,0.1c0,0,0,0,0,0v-0.1l0.2-0.2
		C1809.9,1218.2,1810,1218.1,1810,1218.1z"/>
	<path class="st4" d="M2097.2,877.2c-2.4,25.5-5.2,50.8-9.1,76.1c-8.1,52.5-20.1,104.1-38.4,154.1c-6.6,18-14.2,35.6-23.5,52.4
		c-5.9,10.6-12.7,20.7-20.5,30c-7.7,9.2-17,15.3-28.7,18c-8.1,1.8-16.1,3.9-24.3,5.5c-23.9,4.5-47.9,7.9-72.1,10
		c-3.1,0.3-6.3,0-9.5-0.1c-1.5,0-3-3.1-2.2-4.5c2.6-4.4,5.1-8.9,7.8-13.2c30-47.1,54.8-96.7,73.9-149.2
		c16.8-46.3,29.5-93.8,37.5-142.5c7.1-43.6,11.3-87.5,10.9-131.7c-0.1-21.1-0.2-42.2-2.8-63.2c-0.7-5.7-0.6-11.5-0.9-17.2
		c-0.1-2.6,2.9-4.7,5.2-3.7c1.8,0.8,3.6,1.4,5.2,2.3c21.3,11.7,42.2,24,62.3,37.8c5.8,4,11.4,8.3,16.9,12.6
		c6.3,4.9,10.3,11.2,11.2,19.4c1,9.5,2.8,19,3.1,28.6C2100.1,824.8,2099.6,851,2097.2,877.2z"/>
	<path class="st4" d="M490.7,1097c-2.5-0.4-5.1-0.5-7.5-1.3c-25.6-7.9-51.3-15.6-76.2-25.9c-7.7-3.2-15.1-6.8-22.6-10.4
		c-6.5-3.2-11.4-8.1-15.4-14.1c-6.8-10.1-12-21.1-16.2-32.5c-7.1-19.2-12-39.1-15.4-59.3c-9.4-56.9-13.2-114.2-9.9-171.9
		c0.7-11.5,0.8-23,1.7-34.5c2.6-37,6.8-73.8,15.3-110c2-8.7,4.9-17.2,7.5-25.7c2.5-8.4,8-14.4,15.8-18.3c5.7-2.9,11.4-5.8,17.2-8.5
		c22.1-10.1,45-18.2,67.9-26.1c2.9-1,6.1-1.4,9.5-2.2c0.6,2.3,1.7,4.2,1.4,5.8c-1.1,5.6-2.7,11.2-4.2,16.7
		c-11.2,41.4-18.8,83.4-23.3,126.1c-4.8,45.9-4.5,91.9-2.1,137.9c0.9,16.6,3.7,33,5.5,49.5c5.3,47.8,17.1,94.2,32.1,139.8
		c5.8,17.6,12.8,34.7,19.3,52.1c1.1,3,2,6,2.9,9C494.7,1094.9,492.4,1097.2,490.7,1097z"/>
	<path class="st9" d="M1912.4,2054.5c0.1,5.1-0.4,10.2-0.7,15.3c0.2,0,0.4,0,0.7,0c-2.4,29.3-4.8,58.5-7.4,87.8
		c-1.5,16.5-3.1,33.1-5,49.5c-4.5,38.7-10.7,77.1-18.8,115.2c-9.1,42.9-44.4,86-93.3,100.6c-24.5,7.3-49.7,11.7-74.9,15.7
		c-2.5,0.4-5.2-1.9-5.1-4.4c0.1-3.8,0-7.7,0.7-11.4c4.3-25.2,9.5-50.1,18.2-74.3c7.7-21,13.5-42.6,16.4-64.8
		c3.9-29.2,6.2-58.4,4.4-87.9c-1.4-23-3.3-45.8-6.6-68.6c-0.4-2.5-0.7-5.1-1-7.6c-0.2-2.2,2.1-5.3,4.2-5.5c3.8-0.3,7.6-0.6,11.5-0.6
		c47.9-0.8,89.8-17.4,126.1-48.3c6.3-5.4,12.2-11.3,18-17.2c9.3-9.4,10.1-10.2,11.5-8.3C1914.6,2044.5,1912.3,2049.6,1912.4,2054.5z
		"/>
	<path class="st4" d="M1826.2,368.5c0,0.1,0,0.3,0,0.4c0,0,0,0,0,0c0,0.1-0.1,0.3-0.1,0.4c0,0.1-0.1,0.3-0.1,0.4
		c-0.1,0.3-0.2,0.6-0.3,0.9c-0.1,0.1-0.1,0.3-0.2,0.4c-0.1,0.1-0.1,0.3-0.2,0.4c-29-32.3-60-62-93.3-89.2c-1.8-1.5-3.7-3-5.6-4.5
		c-1.9-1.5-3.7-3-5.6-4.5c-1.8-1.4-3.5-2.8-5.3-4.2c-0.3-0.2-0.6-0.5-0.9-0.7c-1.6-1.2-3.2-2.5-4.8-3.7c-0.2-0.1-0.3-0.2-0.5-0.4
		c-1.6-1.2-3.2-2.4-4.8-3.6c-1.8-1.4-3.6-2.7-5.4-4c-0.9-0.7-1.9-1.4-2.8-2c-0.8-0.6-1.6-1.2-2.4-1.8c-1-0.7-2-1.5-3-2.2
		c-1.5-1.1-3-2.2-4.5-3.2c-2-1.4-3.9-2.8-5.9-4.1c-1.8-1.3-3.6-2.5-5.4-3.7c-0.3-0.2-0.6-0.4-0.9-0.6c-1.9-1.3-3.7-2.5-5.6-3.8h0
		c-2-1.3-4-2.7-6-4c-2-1.3-4-2.6-6.1-3.9c-2-1.3-4.1-2.6-6.1-3.9c-79.2-49.7-164.4-85.1-255.5-106.2c-43.7-10.1-87.8-17-132.5-20
		c-19.2-1.3-38.3-2.4-57.5-2.5c-35.9-0.3-71.5,2.3-107.1,6.5c-63.8,7.5-125.7,22.5-186,44.5c-71.9,26.3-138.8,62-200.6,107.2
		c-7.7,5.6-15.4,11.3-22.8,16.8c-2-1-2.1-2.1-0.9-3.4c5.3-5.6,10.4-11.3,16-16.6c99.2-94.2,215.2-157.1,348.6-187.5
		c33.7-7.7,67.8-12.8,102.2-15.7c22.4-1.9,44.7-2.9,67.1-2.6c133.9,1.8,258.9,36,374.1,104.6c85.7,51,158,117,217.2,197.4
		c4.5,6.2,8.7,12.6,12.9,19C1826.1,366.2,1826.3,367.3,1826.2,368.5z"/>
	<path class="st5" d="M1825.2,371.7c0,0,0.1,0.1,0.1,0.1c-0.1,0.1-0.4,0.4-0.4,0.4C1825,372.1,1825.1,371.9,1825.2,371.7z"/>
	<path class="st0" d="M1824.4,911.5c-5.3,7.1-12.1,13.2-18.6,19.2c-8,7.4-17.4,13-27.6,17c-18.5,7.4-37.2,8.6-56,1.3
		c-12.8-4.9-23.2-13.3-31.7-24c-7.3-9.1-12.6-19.2-16.6-30.1c-6.3-17-8.8-34.6-8.1-52.7c0.5-38.9,12.1-74.1,35.7-105.1
		c9.4-12.3,20.8-22.5,34-30.6c10.5-6.4,21.9-10.7,34-12.2c20.7-2.5,39.3,3.1,55.2,16.7c16.6,14.2,26.7,32.7,31.5,53.7
		C1868.3,818.5,1857.3,867.6,1824.4,911.5z"/>
	<path class="st3" d="M1397.9,1806.5c-0.3,3-0.6,8.8-1.4,14.5c-4.5,32.3-9.2,64.5-13.6,96.8c-4.4,32.3-8.6,64.6-13,96.8
		c-2.9,20.9-6.2,41.7-9.2,62.5c-2.2,15.2-4.2,30.4-6.3,45.6c-0.9,6.3-1.9,12.6-3.1,18.9c-4.2,21.6-25.1,38.6-46.8,37.7
		c-7.6-0.3-15.2-1.5-22.8-2.5c-3.6-0.5-5-3.9-3.3-7.1c3-5.6,6.2-11.2,8.8-17c3.4-7.6,5.4-15.6,6.4-24c3.5-27.9,7.2-55.7,11-83.6
		c3-22.2,6-44.3,9.1-66.4c3.4-24.7,6.8-49.3,10.2-74c3.2-23.4,6.6-46.8,9.9-70.2c1.5-10.8,3.2-21.5,4.4-32.3
		c1.5-13.4,1.7-26.8-2.5-39.9c-0.8-2.4-1-5-1.5-7.5c-0.3-1.6,1.6-4.4,3-4.2c8.2,1,16.7,1.1,24.6,3.2
		C1384,1759.8,1399.4,1779.9,1397.9,1806.5z"/>
	<path class="st9" d="M1887.8,1622.9c-10.6,2.5-21.1,4.9-31.7,7.2c-2.3,0.5-5.6-1.1-6.5-3c-1.1-2.3-2.3-4.6-3.1-7
		c-18.2-49.3-49.4-89-89.5-122.2c-25.7-21.3-53.6-39.2-82.8-55c-4.5-2.4-8.8-5.1-13.2-7.7c-1.4-0.9-1.4-3.8-0.1-5
		c0.5-0.4,0.9-0.9,1.4-1.3c9.9-6.9,19.9-13.8,29.8-20.8c12.4-0.4,23.8,4.2,35.4,7.3c28.4,7.5,56.6,15.6,84.8,23.7
		c9.2,2.6,18.5,5.3,26.6,10.6c0.9,0.6,1.7,2,1.7,3c0,1-0.9,2.6-1.7,2.9c-5.4,1.9-10.9,3.6-16.3,5.3c-13.4,4.2-26.2,10-38.4,17.1
		c-4.4,2.6-8.6,5.5-12.8,8.4c-1.6,1.1-2.8,2.6-4.1,3.9c-2,2-2.2,6.5-0.3,8.9c1.6,2.1,3.8,3.5,6.6,3.2c2.5-0.3,4.9-1.1,7.3-1.9
		c6.7-2.2,13.2-4.8,20-6.7c26.3-7.5,52.8-8.1,79.7-3.1c6.8,1.3,11.8,4.3,15.2,10.3c7.6,13.4,13.1,27.6,16.2,42.8
		c3,14.5,3,29.2,3.4,44.3C1915.4,1623.2,1920.4,1615,1887.8,1622.9z"/>
	<path class="st10" d="M1605.1,2049.5c-0.3,1-1.5,2.1-2.5,2.3c-2.5,0.5-5.1,0.6-7.6,0.6c-8.3,0.1-16.6,0-24.5,0
		c-29.2-1.2-57.8-3.2-86.4-6.5c-20.3-2.3-40.5-5.3-60.6-8.9c-2.5-0.4-5-1.1-7.4-1.8c-1.8-0.5-4.1-4-4.1-6c0-1.3-0.1-2.6,0.1-3.8
		c2.4-17.1,4.9-34.1,7.4-51.2c0.1-0.6,0.4-1.2,0.6-1.8c0.5-2.2,3.6-4.4,5.8-4c6.9,1.1,13.9,2.2,20.8,3.4c32.1,5.7,64.5,9.2,97,10.9
		c1.9,0.1,3.8,0.2,5.7,0.4c2.6,0.3,4.8,1.5,6.6,3.5c1.3,1.4,2.5,2.9,3.6,4.5c12.9,18.3,27,35.6,42.5,51.8c0.9,0.9,1.8,1.9,2.4,3
		C1605,2047.1,1605.4,2048.5,1605.1,2049.5z"/>
	<path class="st0" d="M1677.3,1070.3c0.3,24.5-7.8,41.8-23.9,55.3c-11.9,10-25.7,14-41,11.7c-9.1-1.4-16.9-5.5-23.4-12.1
		c-8.3-8.5-13.2-18.9-14.6-30.6c-2.7-23.9,5.1-44,23.3-59.9c6.3-5.5,13.8-8.8,21.8-11.5c19.7-6.7,49.8,4.4,56.3,35.1
		C1676.9,1063.3,1677.1,1068.5,1677.3,1070.3z"/>
	<path class="st3" d="M663.3,1847.3c-0.9,5.4-2.1,14.2-3.9,23c-2.5,11.8-5.3,23.6-8.2,35.4c-0.7,3-4.6,4.2-7.8,2.9
		c-26.7-11.3-31.1-48.2-7.6-66.1c5.8-4.4,12.3-6.5,19.6-6.6C660.6,1835.7,664,1838.9,663.3,1847.3z"/>
	<path class="st5" d="M1810,1218.1l1,0.5c0,0-1.4-0.2-1.4-0.2C1809.6,1218.4,1810,1218.1,1810,1218.1z"/>
	<path class="st5" d="M569.4,442.6c-0.2,0.4-0.4,0.8-0.6,1.2c1.3,0.6,1.7,0.2,1.1-1C569.9,442.8,569.4,442.6,569.4,442.6z"/>
	<path class="st5" d="M573.8,438.5c0.1,2.9-1.8,3.9-4.3,4.2c-0.1,0,0.5,0.2,0.4,0.2c1.4-1.3,2.9-2.6,4.4-3.9
		C574.3,438.9,573.8,438.5,573.8,438.5z"/>
	<path class="st5" d="M579,435.7c-1.3,3.4-1.3,3.4-5.1,2.8c0,0,0.5,0.4,0.4,0.4c1.3-1.6,2.5-3.4,5-2.8
		C579.3,436.1,579,435.7,579,435.7z"/>
	<path class="st7" d="M1139.2,1796.3c-54.9,1.5-97.5,43.2-97.9,97.9c-0.3,55.1,42.5,99,98.6,98.8c55.3-0.2,97.5-43.1,97.9-97.6
		C1238.1,1840,1195,1797.4,1139.2,1796.3z M1141.3,1947.7c-24.3,1.1-55-17.6-55-56.4c-0.9-25.5,23-49.2,50.3-50.7
		c24.7-1.3,54.8,14.9,55.8,52.9C1193.1,1920.3,1171.9,1946.3,1141.3,1947.7z"/>
	<path class="st7" d="M2322.1,1716.8c-5.2-12.6-12.9-23.5-22-33.5c-11.7-12.9-25.1-23.7-39.6-33.2c-32.5-21.3-68-35.3-105.9-43.3
		c-40.4-8.5-81.3-8.9-122.3-5.9c-17.8,1.3-35.6,3.6-53.4,5.5c-1.9,0.2-3.8,0.4-5.7,0.5c-10.2,0.8-12.7,0.5-13.2-10.6
		c-0.5-11.5-1.1-23-1.8-34.5c-0.4-7-0.6-14.1-1.9-21c-12.7-65.1-49.1-111.3-110.3-137.4c-7-3-14.4-5.3-21.8-7.5
		c-22.7-6.6-45.5-13-68.2-19.5c-4.9-1.4-9.7-3.1-14.5-4.9c-0.6-0.2-1.3-2.6-0.8-3.2c2.8-3.4,5.7-6.9,8.9-9.9
		c24.8-23.2,48.1-47.8,69.8-73.9c2.9-3.4,5.8-6.8,9.6-11c14.4-1.5,27.7-3.1,41.1-4.3c30.6-2.7,61-7,91.2-12.8
		c13.8-2.6,27.4-6.2,40.7-10.9c12.3-4.4,22.8-11.2,31.8-20.7c11.9-12.7,21.7-26.8,30.3-41.9c11.1-19.5,20-40,27.7-61.1
		c20.5-56.1,33.1-114.2,41.8-173.1c5.1-34.8,8.1-69.9,9.5-105.1c0.9-23.1,0.1-46.1-1.9-69c-0.7-7.6-2.4-15.2-4-22.6
		c-2.1-9.6-6.8-17.9-13.8-24.8c-5-4.9-10-9.9-15.6-14.1c-11.2-8.4-22.7-16.7-34.4-24.4c-22.5-14.8-46.1-27.7-69.7-40.4
		c-4.5-2.4-9.1-4.7-13.3-7.6c-2-1.3-3.4-3.8-4.4-6c-1-2.3-1.2-4.9-1.7-7.4c-7.4-36.4-17.3-72.1-29.7-107.1
		c-83.4-234.3-273.9-415.5-511.9-487c-40.5-12.1-81.8-20.9-123.6-26.6c-26.6-3.6-53.5-5.1-80.3-6.3c-31.4-1.3-62.7,0-93.9,2.7
		c-42.1,3.6-83.6,11-124.6,21.4C803.9,79.7,619.5,227,518,425.7c-11.4,22.2-21.7,44.9-30.8,68.2c-2.3,5.9-6.1,9.2-12.1,11.1
		c-15.9,5-31.7,10.1-47.4,15.6c-22.4,7.7-44.5,16.1-65.7,26.7c-9.1,4.6-17.9,9.8-26.6,15.2c-10.1,6.2-16.9,15.3-21.5,26.3
		c-4.7,11.3-8.2,22.9-11.1,34.7c-7.4,29.9-11.7,60.3-15,90.8c-4.2,38.8-5.2,77.8-5.1,116.9c0.1,39.1,2.7,78,8.6,116.6
		c4,26.6,9.8,52.8,19,78.2c5.4,15.1,12.2,29.5,20.8,43.1c7,11,15.9,20.1,27.5,26.2c10.8,5.6,21.6,11.1,32.8,15.9
		c21.2,9.1,43,16.4,65,23.2c19.6,6,39.3,11.4,58.9,17.1c5.8,1.7,10,4.8,13.1,10.3c9.2,16.1,18.4,32.2,28.5,47.8
		c45.8,71,101.8,132.9,167.6,186c5,4,9.8,8.2,14.6,12.3c1.2,1,0.9,4.3-0.4,5.1c-2.7,1.8-5.3,3.6-8,5.2
		c-10.5,6.1-21.2,11.9-31.5,18.3c-52.1,32.3-98,71.7-135.1,120.8c-1.2,1.5-2.4,3-3.6,4.5c-2.3,2.8-5.7,3.2-8.3,0.9
		c-3.9-3.3-7.7-6.8-11.5-10.2c-22.5-20.1-46.2-38.4-72-54.1c-19.7-12-40.3-22.2-62-30.1c-41.8-15.1-84.5-20-128.3-11.5
		c-19.8,3.9-39.4,3.1-59.1-0.9c-2.5-0.5-5-1.4-7.5-1.6c-7.6-0.8-15.3-1.8-22.9-1.9c-17.4-0.3-30.8,7.4-40.4,21.7
		c-15.2,22.8-19.3,47-8.9,72.9c1.7,4.1,3.5,8.2,5,12.4c0.3,0.9-0.5,2.8-1.3,3.3c-3.9,2.1-7.9,4.1-12,5.8
		c-20.3,7.9-40.1,16.7-59.2,27.4c-12.8,7.2-25.2,15.2-36.6,24.6c-8.9,7.4-17.1,15.5-23.5,25.2c-16.8,25.3-15.5,50.9,3,74.6
		c1.6,2,3.3,3.9,5,5.8c10.6,11.2,22.6,20.7,36.3,28.1c16.6,8.9,34.2,14.1,53,15.1c22,1.1,43.4-1.8,64.1-9.4
		c4.8-1.8,9.5-3.9,14.2-5.8c5.5-2.2,8.5-1.2,11.1,3.7c2.7,5.1,5.3,10.2,7.9,15.3c19.4,37.6,40.4,74.1,64,109.2
		c15.4,22.8,31.8,44.9,50.1,65.5c11.9,13.4,24.6,26,38.6,37.3c18,14.7,38.1,25.7,60,33.5c20,7.1,40.6,11.6,61.6,13.9
		c38.9,4.4,77.9,3.5,116.8-1.6c9.5-1.2,19-2.5,28.5-3.8c3.2-0.4,6,2.2,6,5.8c0,5.8,0,11.5-0.2,17.3c-0.5,21.1-1.4,42.2-1.7,63.3
		c-0.9,65.9,2.2,131.8,3.6,197.6c0,1.9,0.2,3.8,0.3,5.8c1.9,36.4,3.7,72.8,5.7,109.2c1.7,31.9,3.5,63.9,5.2,95.8
		c0.2,3.2,0.5,6.4,0.7,9.6c2,26.8,4,53.6,5.9,80.4c1.8,24.2,3.4,48.5,5.2,72.7c1.2,16.6,2.6,33.2,4.1,49.7
		c3.2,36.3,6.5,72.6,9.8,108.9c2.3,24.8,4.8,49.7,7,74.5c0.8,8.9,1.2,17.9,1.7,26.8c0.2,2.7-1,5.1-3.3,6.4c-3.3,2-6.7,3.7-10.1,5.5
		c-33.9,18.4-57.9,45.7-73.4,80.8c-9.5,21.6-12.2,44.2-10.4,67.6c0.3,4.4,1.4,8.8,2.5,13.1c5.7,21.7,17.5,39.6,34.4,54.3
		c9.7,8.4,20.5,15.2,32.1,20.8c14.5,6.9,29.7,11.9,45.3,15.5c39.4,9.2,79.6,12.5,119.8,14.3c50.6,2.3,101-0.7,151.5-4
		c1.3-0.1,2.5-0.2,3.8-0.4c30.5-3.3,61.1-6.3,91.5-10c22.8-2.8,45.6-6.4,68.4-9.7c5.1-0.7,10.1-1.6,15.2-2.4
		c5.8-0.9,11.3,0.1,16.8,2.4c11.8,4.9,23.7,9.7,35.8,13.6c41.6,13.7,84.7,19.7,128.2,22c69.9,3.7,139.3-1.1,208.1-15
		c27-5.4,53.6-12.3,79.3-22.4c13.1-5.1,25.8-11.2,38-18.2c24.1-14,39-34.2,44.1-61.9c3.7-20.2,5.6-40.6,6.5-61
		c2.5-62.1,0.1-124.1-4.7-186c-1.6-20.4-4-40.7-5.8-61.1c-1.2-14-2.7-28-3-42.1c-0.4-21.7-0.1-43.5,0.4-65.2
		c1.3-51.8,1.5-103.6,5.5-155.3c1.3-17.2,2.7-34.4,4.1-51.6c0.2-2.4,1.4-4.8,2.1-7.1c7.7-2.8,15.3-3.9,22.8-5.3
		c23.3-4.1,46.5-8.7,69.4-14.6c59.5-15.2,112.1-64.2,128.4-130.3c2.9-11.8,5.3-23.7,7.5-35.7c5.2-27.7,9.1-55.5,12.7-83.4
		c4.1-32.4,7-64.9,9.6-97.4c2.2-26.8,3.2-53.6,4.9-80.5c0.2-2.5,0.5-5.1,1.3-7.5c0.2-0.7,2.3-1.4,3.2-1.1c1.7,0.6,3.4,1.6,4.8,2.9
		c7.5,6.9,14.8,14.2,22.5,20.9c19.5,16.9,40.9,30.7,64.7,40.7c30.8,12.9,63,17.1,95.9,12.4c39.3-5.7,74.9-21.1,106.9-44.8
		c14-10.3,26-22.7,35.5-37.4c12.1-18.7,18.6-39.1,18.9-61.5c0.3-21.6-4.7-41.8-14-61.1c-8.4-17.5-19.6-32.9-33.2-46.7
		c-18.5-18.9-33-40.7-45.6-63.8c-0.9-1.6-2-3.5-0.8-5.4c1.1-1.8,3-2,4.9-1.8c8.9,0.9,17.8,1.8,26.7,2.9c12.2,1.5,24.3,0,36.3-2
		c7.6-1.3,14.8-4.2,21.2-8.5c11.9-7.9,18.6-19.1,19.8-33.4C2327.2,1735.3,2325.9,1725.9,2322.1,1716.8z M490.7,1097
		c-2.5-0.4-5.1-0.5-7.5-1.3c-25.6-7.9-51.3-15.6-76.2-25.9c-7.7-3.2-15.1-6.8-22.6-10.4c-6.5-3.2-11.4-8.1-15.4-14.1
		c-6.8-10.1-12-21.1-16.2-32.5c-7.1-19.2-12-39.1-15.4-59.3c-9.4-56.9-13.2-114.2-9.9-171.9c0.7-11.5,0.8-23,1.7-34.5
		c2.6-37,6.8-73.8,15.3-110c2-8.7,4.9-17.2,7.5-25.7c2.5-8.4,8-14.4,15.8-18.3c5.7-2.9,11.4-5.8,17.2-8.5
		c22.1-10.1,45-18.2,67.9-26.1c2.9-1,6.1-1.4,9.5-2.2c0.6,2.3,1.7,4.2,1.4,5.8c-1.1,5.6-2.7,11.2-4.2,16.7
		c-11.2,41.4-18.8,83.4-23.3,126.1c-4.8,45.9-4.5,91.9-2.1,137.9c0.9,16.6,3.7,33,5.5,49.5c5.3,47.8,17.1,94.2,32.1,139.8
		c5.8,17.6,12.8,34.7,19.3,52.1c1.1,3,2,6,2.9,9C494.7,1094.9,492.4,1097.2,490.7,1097z M1812.4,1439.1c9.2,2.6,18.5,5.3,26.6,10.6
		c0.9,0.6,1.7,2,1.7,3c0,1-0.9,2.6-1.7,2.9c-5.4,1.9-10.9,3.6-16.3,5.3c-13.4,4.2-26.2,10-38.4,17.1c-4.4,2.6-8.6,5.5-12.8,8.4
		c-1.6,1.1-2.8,2.6-4.1,3.9c-2,2-2.2,6.5-0.3,8.9c1.6,2.1,3.8,3.5,6.6,3.2c2.5-0.3,4.9-1.1,7.3-1.9c6.7-2.2,13.2-4.8,20-6.7
		c26.3-7.5,52.8-8.1,79.7-3.1c6.8,1.3,11.8,4.3,15.2,10.3c7.6,13.4,13.1,27.6,16.2,42.8c3,14.5,3,29.2,3.4,44.3
		c0.2,35,5.1,26.8-27.5,34.6c-10.6,2.5-21.1,4.9-31.7,7.2c-2.3,0.5-5.6-1.1-6.5-3c-1.1-2.3-2.3-4.6-3.1-7
		c-18.2-49.3-49.4-89-89.5-122.2c-25.7-21.3-53.6-39.2-82.8-55c-4.5-2.4-8.8-5.1-13.2-7.7c-1.4-0.9-1.4-3.8-0.1-5
		c0.5-0.4,0.9-0.9,1.4-1.3c9.9-6.9,19.9-13.8,29.8-20.8c12.4-0.4,23.8,4.2,35.4,7.3C1756,1422.9,1784.2,1431,1812.4,1439.1z
		 M1824.4,911.5c-5.3,7.1-12.1,13.2-18.6,19.2c-8,7.4-17.4,13-27.6,17c-18.5,7.4-37.2,8.6-56,1.3c-12.8-4.9-23.2-13.3-31.7-24
		c-7.3-9.1-12.6-19.2-16.6-30.1c-6.3-17-8.8-34.6-8.1-52.7c0.5-38.9,12.1-74.1,35.7-105.1c9.4-12.3,20.8-22.5,34-30.6
		c10.5-6.4,21.9-10.7,34-12.2c20.7-2.5,39.3,3.1,55.2,16.7c16.6,14.2,26.7,32.7,31.5,53.7C1868.3,818.5,1857.3,867.6,1824.4,911.5z
		 M1677.3,1070.3c0.3,24.5-7.8,41.8-23.9,55.3c-11.9,10-25.7,14-41,11.7c-9.1-1.4-16.9-5.5-23.4-12.1c-8.3-8.5-13.2-18.9-14.6-30.6
		c-2.7-23.9,5.1-44,23.3-59.9c6.3-5.5,13.8-8.8,21.8-11.5c19.7-6.7,49.8,4.4,56.3,35.1C1676.9,1063.3,1677.1,1068.5,1677.3,1070.3z
		 M1988.1,913.9c7.1-43.6,11.3-87.5,10.9-131.7c-0.1-21.1-0.2-42.2-2.8-63.2c-0.7-5.7-0.6-11.5-0.9-17.2c-0.1-2.6,2.9-4.7,5.2-3.7
		c1.8,0.8,3.6,1.4,5.2,2.3c21.3,11.7,42.2,24,62.3,37.8c5.8,4,11.4,8.3,16.9,12.6c6.3,4.9,10.3,11.2,11.2,19.4
		c1,9.5,2.8,19,3.1,28.6c0.8,26.2,0.4,52.4-2.1,78.6c-2.4,25.5-5.2,50.8-9.1,76.1c-8.1,52.5-20.1,104.1-38.4,154.1
		c-6.6,18-14.2,35.6-23.5,52.4c-5.9,10.6-12.7,20.7-20.5,30c-7.7,9.2-17,15.3-28.7,18c-8.1,1.8-16.1,3.9-24.3,5.5
		c-23.9,4.5-47.9,7.9-72.1,10c-3.1,0.3-6.3,0-9.5-0.1c-1.5,0-3-3.1-2.2-4.5c2.6-4.4,5.1-8.9,7.8-13.2c30-47.1,54.8-96.7,73.9-149.2
		C1967.4,1010,1980.2,962.6,1988.1,913.9z M687.3,266.5c5.3-5.6,10.4-11.3,16-16.6c99.2-94.2,215.2-157.1,348.6-187.5
		c33.7-7.7,67.8-12.8,102.2-15.7c22.4-1.9,44.7-2.9,67.1-2.6c133.9,1.8,258.9,36,374.1,104.6c85.7,51,158,117,217.2,197.4
		c4.5,6.2,8.7,12.6,12.9,19c0.7,1.1,1,2.3,0.9,3.4c0,0.1,0,0.3,0,0.4c0,0,0,0,0,0c0,0.1-0.1,0.3-0.1,0.4c0,0.1-0.1,0.3-0.1,0.4
		c-0.1,0.3-0.2,0.6-0.3,0.9c-0.1,0.1-0.1,0.3-0.2,0.4c-0.1,0.1-0.1,0.3-0.2,0.4c-29-32.3-60-62-93.3-89.2c-1.8-1.5-3.7-3-5.6-4.5
		c-1.9-1.5-3.7-3-5.6-4.5c-1.8-1.4-3.5-2.8-5.3-4.2c-0.3-0.2-0.6-0.5-0.9-0.7c-1.6-1.2-3.2-2.5-4.8-3.7c-0.2-0.1-0.3-0.2-0.5-0.4
		c-1.6-1.2-3.2-2.4-4.8-3.6c-1.8-1.4-3.6-2.7-5.4-4c-0.9-0.7-1.9-1.4-2.8-2c-0.8-0.6-1.6-1.2-2.4-1.8c-1-0.7-2-1.5-3-2.2
		c-1.5-1.1-3-2.2-4.5-3.2c-2-1.4-3.9-2.8-5.9-4.1c-1.8-1.3-3.6-2.5-5.4-3.7c-0.3-0.2-0.6-0.4-0.9-0.6c-1.9-1.3-3.7-2.5-5.6-3.8h0
		c-2-1.3-4-2.7-6-4c-2-1.3-4-2.6-6.1-3.9c-2-1.3-4.1-2.6-6.1-3.9c-79.2-49.7-164.4-85.1-255.5-106.2c-43.7-10.1-87.8-17-132.5-20
		c-19.2-1.3-38.3-2.4-57.5-2.5c-35.9-0.3-71.5,2.3-107.1,6.5c-63.8,7.5-125.7,22.5-186,44.5c-71.9,26.3-138.8,62-200.6,107.2
		c-7.7,5.6-15.4,11.3-22.8,16.8C686.2,268.8,686.1,267.7,687.3,266.5z M580.3,430.7c3.2-4.8,6.8-9.3,10.4-13.8
		c79.9-99,178.9-172.8,295.7-222.8c55.4-23.7,112.9-40.5,172.4-51.1c57.5-10.3,115.5-13.8,173.8-11.5
		c149.8,5.8,287.8,49.2,413.1,131.6c104.5,68.7,187.4,157.8,248.1,267.3c5.2,9.5,9.8,19.4,14.7,29.1c0.7,1.4,0.7,2.6-0.8,3.2
		c-0.4,0.2-1.4-0.2-1.7-0.7c-2.7-3.6-5.4-7.1-7.9-10.8c-68-100.2-155.4-179.4-259.4-240.7c-82.8-48.7-171.5-82.3-265.6-101.5
		c-34.5-7.1-69.2-12-104.2-15.5c-45.3-4.4-90.7-4.4-136.1-2.4c-30,1.3-59.8,5-89.5,9.8c-40.5,6.5-80.2,15.7-119.3,27.8
		c-102.5,32-195.8,81.1-278.9,149.3c-19.8,16.2-38.6,33.6-56.6,51.7c-2.5,2.5-4.7,5.9-8.9,5.9C579.6,434,579.4,432,580.3,430.7z
		 M1229.3,325.2c-4.9,4.5-11.5,4.5-17.5,5.9c-88.3,21.1-171.8,53.9-249.9,100.5c-49.7,29.6-95.2,64.6-135.3,106.4
		c-27.1,28.2-51.2,58.9-71.2,92.6c-45.9,77.7-87.2,157.8-121.3,241.4c-8.4,20.7-15.9,41.8-23.9,62.7c-0.9,2.3-2.5,4.2-3.9,6.2
		c-0.2,0.2-1.6,0-1.8-0.3c-2.7-7.2-3.9-14.7-5.2-22.2c-5.4-31.5-8.6-63.4-10.8-95.2c-2.4-33.8-2.5-67.8-0.2-101.6
		c2.6-38.3,7.9-76.3,18.2-113.4c10.4-37.2,24.9-72.5,46.4-104.8c20.9-31.3,47-57.2,78.8-77.3c34.1-21.6,70.2-39.4,107.8-54.1
		c51.4-20,104.4-34.1,158.8-43.5c24-4.1,48.1-7,72.2-9.8c14.6-1.7,29.4-1.7,44-2.4c7.7-0.4,15.3-0.7,23-1.1c0-0.2,0-0.4,0-0.6
		c8.3,0.3,16.6,0.5,24.9,0.9c11.5,0.6,23,1.2,34.5,1.9c4.5,0.3,8.9,0.5,13.4,1.2C1224,320.9,1231.2,323.5,1229.3,325.2z
		 M731.3,1342.7c-70.8-60.6-127.2-132.8-170.7-215.3c-3-5.6-5.7-11.5-8.4-17.2c-0.5-1.1-0.5-2.4-0.7-3.6c0.9-1,2-0.9,3,0.4
		c3.9,5,7.8,10.1,11.7,15.2c65.2,85.9,142.3,159.2,232.8,218c76.3,49.5,158.4,85.9,246.9,107.4c36.7,8.9,73.9,14.9,111.6,18.2
		c25.6,2.2,51.1,3.1,76.7,2.7c61-1.1,121-9.6,180.1-25c108.5-28.2,207.1-76.8,297.5-142.6c33.2-24.1,64.4-50.6,94.4-78.5
		c1.2-1.1,2.3-2.5,3.4-3.8c0,0,0,0,0,0v-0.1l0.1,0c0.1-0.1,0.2-0.2,0.3-0.4c0,0,0,0,0,0l1,0.5c0,0-0.3,0-0.7-0.1c-0.1,0-0.2,0-0.2,0
		c-0.1,0-0.1,0-0.2,0c-0.1,0-0.1,0-0.2,0c0,0-0.1,0.1-0.1,0.1c0,0.3,0,0.6,0,0.9c0,0.4,0.1,0.8,0.1,1.2c0,0.3,0,0.5,0,0.8
		c0,0.2,0,0.3,0,0.5c0,0.7-0.1,1.4-0.4,1.9c-3.4,5.4-7.1,10.7-11,15.7c-68.7,87.4-152.7,156.1-252,206
		c-66.8,33.5-137.2,56.1-210.9,68.4c-43.6,7.3-87.6,10.2-131.9,9.2C1024.7,1519.2,867.2,1458.8,731.3,1342.7z M370.9,1915.3
		c-0.1,3.8-0.7,7.6-1.1,11.4c-0.2,1.8-3.2,3.3-4.5,2.3c-2.4-2.1-5-4-7.1-6.3c-11.8-12.6-22.6-26.1-32.8-40
		c-29.3-39.8-54.1-82.2-76.9-125.9c-6.8-13-13.1-26.3-19.7-39.5c-1.7-3.4-3.2-7-5.2-10.2c-6.5-10.9-18.9-14.3-29.9-8.4
		c-3.9,2.1-7.6,4.7-11.4,7c-15,8.9-30.9,15-48.2,18c-24,4.2-45.7-1.3-65.7-14.6c-7.5-4.9-14.3-10.7-19.6-18.2
		c-4.6-6.4-4.6-13-1-19.8c3-5.8,7.4-10.6,12.5-14.4c8.7-6.5,17.4-13,26.8-18.5c24.9-14.6,51.4-25.8,78.6-35.4c8.4-3,17-5.6,25.5-8.2
		c7-2.1,12.7-5.8,16.6-12.1c2-3.2,4.5-6.3,7-9.1c15.4-17.1,34.5-26,57.6-25.6c5.7,0.1,11.5,0.6,17.2,0.7c2.7,0.1,4.8-1.4,6.5-3.5
		c2-2.4,2.1-7-0.2-8.7c-2.5-1.9-5.1-3.9-8-5.1c-27-10.6-53.7-9.6-80.1,2.3c-5.2,2.4-10.3,5.2-15.4,7.7c-2,1-5.2-0.2-6.9-1.9
		c-8.9-9.4-9.4-27.6-2.6-37.7c2.8-4.1,6.5-6.3,11.3-5.5c8.2,1.3,16.4,2.8,24.5,4.3c21.6,4,43.2,4.1,64.8-0.1
		c8.8-1.7,17.7-2.9,26.6-3.7c18-1.8,35.8,0.8,53.3,4.5c22,4.7,42.8,12.9,62.6,23.4c33.6,17.8,63.4,40.7,91.1,66.6
		c1.9,1.8,3.4,3.7,3.4,7.1c-1.5,1.4-3.3,3.3-5.3,4.7c-43.8,30.2-74.9,70.8-98.6,117.9c-18.6,36.9-30.1,76-37.4,116.4
		C374.8,1863,371.6,1889,370.9,1915.3z M663.3,1847.3c-0.9,5.4-2.1,14.2-3.9,23c-2.5,11.8-5.3,23.6-8.2,35.4c-0.7,3-4.6,4.2-7.8,2.9
		c-26.7-11.3-31.1-48.2-7.6-66.1c5.8-4.4,12.3-6.5,19.6-6.6C660.6,1835.7,664,1838.9,663.3,1847.3z M658.8,1800.8
		c-8.9,1.1-17.7,2.6-26,6.3c-26.2,11.6-41.3,31.7-44.9,60c-2.8,21.5,6.2,53.6,37,70.6c4.5,2.5,9.2,4.4,13.8,6.7
		c2.4,1.2,3.8,3.7,3.4,6.3c-5,30.3-0.4,28.4-31.1,33c-31,4.7-62.2,7.8-93.6,6.7c-24.4-0.8-48.5-3.7-71.9-10.6
		c-2.5-0.7-5-1.3-7.4-2.2c-26.8-10-23.7-6.8-23.5-33.7c0.3-54,7.4-107.2,23.6-158.8c14.8-47.1,38.6-89.1,74.4-123.7
		c2.7-2.6,6-4.7,9.2-6.8c0.5-0.3,2.6,0.6,2.8,1.3c0.5,1.8,0.7,3.8,0.4,5.6c-4.7,23.9-6.5,48.1-9.3,72.3c-0.3,2.5-0.2,5.1-0.1,7.7
		c0.2,4,4.7,8.2,9,8.6c3.7,0.3,8-2.1,9.3-5.5c1.1-3,2.1-6,3-9.1c7.4-28.5,16.3-56.5,26.4-84.1c12.7-34.8,31.9-65.4,56.7-92.7
		c36.5-40.1,78.5-73.2,126.6-98.4c11.3-5.9,22.8-11.6,34.2-17.3c3.7-1.9,7.4-1.4,10.9,0.7c3.8,2.3,7.7,4.7,11.5,7
		c78.5,48.7,163.1,82.2,253.5,101c31.9,6.7,64.2,11.2,96.8,13.7c21.1,1.6,42.1,2.8,63.2,2.7c116.3-0.5,227.1-25.1,332.4-74.4
		c16.2-7.6,31.9-16.3,47.8-24.4c4.5-2.3,9.1-4.6,13.7-6.9c3.9,1.5,7.6,2.6,11,4.2c34.5,15.6,67.1,34.6,97.5,57.1
		c21.7,16.1,40.8,35,56.9,56.7c12.3,16.5,22.4,34.2,29.3,53.7c0.8,2.4,1.7,4.8,2.6,7.2c2.2,5.9,1.9,11.2-3.4,15.6
		c-3.4,2.9-6.4,6.3-9.4,9.5c-27.9,29.3-52.3,61.3-70.8,97.5c-15.2,29.8-26.7,60.9-32.5,93.9c-9.4,53.5-5,105.8,14.1,156.7
		c4.3,11.4,9.5,22.4,14.5,33.4c1.8,4.1,4.2,7.9,6,12c0.7,1.6,0.8,3.7,0.8,5.5c0,1.2-4.2,2-7.1,1.4c-12-2.3-23.4-6.4-33.9-12.9
		c-16.9-10.5-32.6-22.5-46.8-36.5c-17.4-17.1-32.7-36-46.4-56.1c-5-7.4-9.6-15-17.1-20.5c-2.9-2.1-4.8-5.9-6.8-9.1
		c-13.4-21.8-25-44.6-35.5-67.9c-10.3-22.8-19.2-46-27.7-69.5c-1.7-4.8-3.6-9.6-5.9-14.1c-2.5-4.9-9.4-7.3-15-5.5
		c-6.2,1.9-10.4,8.7-9,15c1,4.4,2.3,8.6,3.6,12.9c12.2,41.1,27.2,81.2,45.6,120.1c1.6,3.4,2.9,7,4,10.7c0.2,0.7-1,2.5-1.8,2.7
		c-2.4,0.5-5,0.9-7.5,0.7c-28.7-2.5-57.2-6.2-85.4-12.1c-1.2-0.2-2.5-0.8-3.4-1.6c-0.9-0.8-2-1.9-2.1-3c-0.3-3.1-0.6-6.4-0.1-9.5
		c4.1-30.4,8.4-60.8,12.6-91.2c2-14.1,1.9-28.1-2.2-41.8c-10.7-36.3-34.4-59.2-71.5-67.1c-15-3.2-30.3-4.8-45.5-6.9
		c-26-3.7-51.9-7.3-77.9-10.8c-22.8-3.1-45.6-6-68.5-9.1c-22.8-3.1-45.6-6.4-68.4-9.5c-22.2-3.1-44.3-6.1-66.5-9.2
		c-24.7-3.4-49.4-6.9-74.1-10.2c-22.8-3.1-45.6-6.1-68.4-9.2c-23.4-3.2-46.9-6.5-70.3-9.7c-11.4-1.6-22.8-3.6-34.2-4.6
		c-8.9-0.8-17.8-0.1-26.7-0.4c-0.8,0-2.2-1.8-2.1-2.6c0.5-3.1,1.2-6.2,2.2-9.2c4.3-11.4,8.9-22.6,13.1-34c1.3-3.5,2.2-7.3,2.5-11.1
		c0.5-5-3.2-9.3-8.8-11.1c-3.6-1.2-9.7,0.8-11.9,4.3c-2.1,3.2-4,6.6-5.5,10.1c-9.1,21.2-18.2,42.3-26.8,63.6
		c-2.7,6.6-6.1,12.5-11.3,17.5c-15.8,15.4-23.8,34.5-26.9,56c-3.1,21.5-6,43.1-9.2,64.6c-0.8,5.7-2.5,11.2-4.1,16.7
		c-0.8,2.6-3.2,4-5.8,4.3C667.7,1800.4,663.2,1800.3,658.8,1800.8z M1605.1,2049.5c-0.3,1-1.5,2.1-2.5,2.3c-2.5,0.5-5.1,0.6-7.6,0.6
		c-8.3,0.1-16.6,0-24.5,0c-29.2-1.2-57.8-3.2-86.4-6.5c-20.3-2.3-40.5-5.3-60.6-8.9c-2.5-0.4-5-1.1-7.4-1.8c-1.8-0.5-4.1-4-4.1-6
		c0-1.3-0.1-2.6,0.1-3.8c2.4-17.1,4.9-34.1,7.4-51.2c0.1-0.6,0.4-1.2,0.6-1.8c0.5-2.2,3.6-4.4,5.8-4c6.9,1.1,13.9,2.2,20.8,3.4
		c32.1,5.7,64.5,9.2,97,10.9c1.9,0.1,3.8,0.2,5.7,0.4c2.6,0.3,4.8,1.5,6.6,3.5c1.3,1.4,2.5,2.9,3.6,4.5c12.9,18.3,27,35.6,42.5,51.8
		c0.9,0.9,1.8,1.9,2.4,3C1605,2047.1,1605.4,2048.5,1605.1,2049.5z M951.1,1924.8c-4.9-5-10.4-9.4-15.7-14.1
		c-7.7-6.7-15.6-13.2-23.2-20.1c-10.5-9.5-15.8-21.4-15.1-35.8c0.2-3.8,0.3-7.7,0.8-11.5c3.1-27.3,6.3-54.6,9.4-81.9
		c2-17.8,3.8-35.6,5.8-53.4c0.4-3.2,0.8-6.3,1.4-9.5c0.5-3.1,3.7-5.6,6.9-5.2c8.3,0.9,16.5,1.6,24.8,2.8c25.3,3.4,50.6,6.9,76,10.5
		c22.8,3.2,45.6,6.4,68.3,9.6c22.1,3.1,44.3,6.1,66.5,9.1c24.7,3.4,49.4,6.8,74.1,10.2c5.1,0.7,10.2,1.1,15.2,1.9
		c4.4,0.7,8.8,1.4,13.1,2.6c22.8,6.4,37.4,26.8,35.9,50.4c-0.5,7.7-1.5,15.3-2.6,22.9c-6.3,46.2-12.7,92.4-19,138.7
		c-4.7,34.2-9.6,68.3-14.4,102.5c-2.9,20.9-5.9,41.8-8.9,62.6c-0.6,3.8-1.3,7.6-2.3,11.3c-6,23.2-25.7,37.8-49.5,36.8
		c-7.1-0.8-14.1-1.3-21.1-2.3c-41.8-5.8-83.5-11.8-125.3-17.6c-22.8-3.2-45.6-6-68.4-9.1c-5.7-0.8-11.3-1.9-17-3
		c-3.3-0.6-5.3-3.5-5-7.1c0.7-8.3,1.4-16.6,2.3-24.8c4.1-35.6,8.8-71.1,12.3-106.7C978.8,1967.8,970,1944.2,951.1,1924.8z
		 M881.2,1921.4c9.7,9.3,19.9,18.2,30.5,26.3c17.5,13.5,23.5,30.8,20.5,52.4c-4.9,34.8-9,69.8-13.5,104.6c-0.2,1.3-0.5,2.5-0.6,3.8
		c-1.9,18.8-2.7,18.2-19.8,15.9c-31.7-4.1-63.3-8.9-95-13.3c-21.5-3-43.1-5.8-64.6-8.9c-5-0.7-10.2-1.5-15-3.1
		c-20.5-6.8-33.5-25.1-33.4-46.5c0-3.8,0.4-7.7,0.9-11.5c5.6-41.8,11.4-83.6,17-125.4c4.4-32.3,8.5-64.7,13-97
		c4.7-34.2,9.5-68.4,14.5-102.5c2.8-18.6,13.7-31.2,30.9-38.5c6.7-2.8,13.7-3,21.4-2.9c3.8,0.3,8.3,0.6,12.7,1.2
		c19.6,2.6,39.3,5.3,58.9,8.1c2.5,0.3,5.1,1,7.3,2.2c1.5,0.8,3.3,2.6,3.5,4.1c0.4,3.8,0.2,7.7-0.3,11.4c-3.7,33-7.4,66.1-11.1,99.1
		c-1.7,14.6-3.4,29.2-5.1,43.8C850.4,1874.9,859.4,1900.6,881.2,1921.4z M1278.2,2169.7c3-5.6,6.2-11.2,8.8-17
		c3.4-7.6,5.4-15.6,6.4-24c3.5-27.9,7.2-55.7,11-83.6c3-22.2,6-44.3,9.1-66.4c3.4-24.7,6.8-49.3,10.2-74c3.2-23.4,6.6-46.8,9.9-70.2
		c1.5-10.8,3.2-21.5,4.4-32.3c1.5-13.4,1.7-26.8-2.5-39.9c-0.8-2.4-1-5-1.5-7.5c-0.3-1.6,1.6-4.4,3-4.2c8.2,1,16.7,1.1,24.6,3.2
		c22.4,6,37.9,26,36.3,52.7c-0.3,3-0.6,8.8-1.4,14.5c-4.5,32.3-9.2,64.5-13.6,96.8c-4.4,32.3-8.6,64.6-13,96.8
		c-2.9,20.9-6.2,41.7-9.2,62.5c-2.2,15.2-4.2,30.4-6.3,45.6c-0.9,6.3-1.9,12.6-3.1,18.9c-4.2,21.6-25.1,38.6-46.8,37.7
		c-7.6-0.3-15.2-1.5-22.8-2.5C1277.9,2176.3,1276.5,2172.9,1278.2,2169.7z M1155.9,3013.4c-2.7,3.6-5.4,7.1-7.9,10.8
		c-14.5,21.1-22.6,44.4-24.1,69.8c-1,16-0.7,32,2.8,47.7c0.4,1.9,0.6,3.8,0.8,5.7c0.3,2.3-1.8,5.4-3.9,5.9
		c-6.3,1.3-12.5,2.8-18.8,3.7c-24.1,3.2-48.2,6.3-72.3,9.2c-19,2.3-38.1,4.8-57.2,6.1c-38.3,2.7-76.5,6.1-115,5.4
		c-16.6-0.3-33.3-0.2-49.9-0.8c-32.6-1.3-65-4.6-97.1-11.2c-13.8-2.8-27.3-6.7-40.2-12.6c-10.5-4.8-20.3-10.8-28.5-19.2
		c-14.9-15.2-20.9-33.6-17.6-54.4c5.5-34.9,23.9-61.5,53.6-80.4c5.3-3.4,11.2-6.2,17.2-8.2c22-7.1,44.5-11.9,67.7-12.6
		c32.3-1,63.7,4,93.7,16.8c6.5,2.8,12.9,5.5,19.4,8.1c2,0.8,5.5-0.5,6.7-2.6c1.4-2.3,1.8-4.7,0.6-7.3c-1.4-3.1-4.1-4.8-6.7-6.7
		c-23.8-16.8-49.9-28.5-78.1-35.6c-19.3-4.8-38.8-8.1-58.8-8.2c-4.5,0-9-0.2-13.4-0.9c-1.5-0.2-3.2-2.1-3.9-3.7
		c-1-2.3-1.3-4.9-1.5-7.4c-2.5-26.1-4.9-52.2-7.3-78.3c-0.2-2.4,0.2-5,0.8-7.4c0.2-0.9,1.7-2.2,2.7-2.2c3.2-0.1,6.4-0.2,9.5,0.5
		c22.4,5.2,45,9.4,67.8,12.7c18.3,2.6,36.7,5.2,55.3,6.2c21.1,1.1,42.1,3.3,63.2,2.7c41.6-1.3,83-3.8,123.6-13.9
		c19.9-5,39.5-10.7,58.5-18.4c4.7-1.9,9.5-3.6,14.4-5.3c2.1-0.7,4,0.3,4.9,1.9c1.6,2.7,2.9,5.7,3.9,8.7
		c9.5,27.2,16.4,55.2,22.1,83.4c5.3,26.3,9.7,52.8,14.5,79.2c0.2,1.3,0.4,2.5,0.5,3.8C1158.3,3007.6,1157.9,3010.7,1155.9,3013.4z
		 M1155.4,2802c-1.2-2.9-2.1-6-3.3-9.4c6.4-23,12.4-44.5,18.5-65.9c0.3-1.1,1.4-1.9,2.1-2.8c1.3,1.2,3.5,2.3,3.9,3.7
		c13,55.7,17,112,11.8,168.9c-0.1,1.6-1.1,2.2-2.8,1.6c-0.5-0.2-1.2-0.6-1.4-1.1c-0.8-1.7-1.6-3.4-2-5.2c-2-8-3.7-16.1-5.8-24.1
		C1170.4,2845.3,1164,2823.3,1155.4,2802z M1657.2,3079.2c-0.9,12.1-3.1,24.1-6.4,35.8c-2.4,8.4-6.9,15.2-14.1,19.9
		c-6.9,4.6-14.1,8.8-21.5,12.6c-15.5,7.9-31.9,13.2-48.5,17.9c-34.5,9.8-69.7,15.9-105.4,20c-45.9,5.3-91.9,5.8-138,3.1
		c-37.1-2.1-73.8-7.8-109.3-19.1c-10.3-3.3-20.4-7.6-30.5-11.6c-3.1-1.2-5.5-3.5-6.3-6.8c-7.2-29-9.8-58,1.4-86.7
		c1.2-3,2.5-5.9,3.9-8.8c6.1-12.3,14.9-22.1,26.7-29.4c18-11.3,37.2-19.8,57.6-25.7c25.5-7.4,51.5-9.3,77.9-8.1
		c5.7,0.3,11.5,0.1,17.2,0c2,0,4.7-2.9,5.1-5.1c0.5-2.7-0.1-5.3-2.1-7c-1.9-1.6-4.3-2.8-6.6-3.6c-15.7-5.6-31.9-9.4-48.6-10.5
		c-26.3-1.8-52.4-0.7-78,6.8c-2.4,0.7-5,0.7-7.5,0.5c-1-0.1-2.5-1.4-2.6-2.4c-0.2-1.8,0.2-3.8,0.6-5.6c4.6-21.9,8.9-43.9,10.5-66.3
		c0.9-12.8,1.6-25.5,2.4-38.3c0.3-4.5,0.5-8.9,0.9-13.4c0.1-1.3,2.9-3.5,4.2-3.3c10.8,1.3,21.5,2.7,32.3,3.9
		c19.7,2.1,39.4,4.2,59.1,6.2c43.4,4.2,86.9,4,130.4,3.7c7.7,0,15.4-0.2,23-0.9c22.3-2,44.6-3.9,66.8-6.5c24.8-3,49.3-7.6,73.5-13.6
		c5-1.2,9.9-2.4,14.9-3.6c8.1-1.9,9.7-0.8,10.9,8.3c0.8,6.3,1.6,12.7,2.1,19.1c3.4,43.4,5.6,86.8,6.4,122.3
		C1661.2,3020.5,1659.4,3049.9,1657.2,3079.2z M1703.7,2235.7c-1,25-4.1,49.7-10.9,73.9c-1.9,6.8-3.9,13.6-6.5,20.1
		c-10.2,25.7-16.1,52.6-20.6,79.7c-6,36.6-9.7,73.5-12.6,110.5c-6.2,79.2-7.7,158.5-7.5,237.8c0,6.4,0.1,12.8-0.1,19.2
		c-0.1,6.5-2,8.9-8.6,10.8c-18.4,5.4-37.2,9.5-56,12.9c-51.8,9.3-104,13.2-156.6,13.1c-21.7,0-43.5-0.3-65.2-1.5
		c-22.3-1.3-44.6-3.8-66.8-6c-14-1.4-27.9-3.3-41.9-5.2c-4.4-0.6-8.8-1.7-13.1-2.9c-2.6-0.7-4.3-2.9-4.7-5.6
		c-1.6-10.8-2.9-21.5-4.5-32.3c-7.1-49-20.8-96.1-38.9-142.1c-14-35.7-27.1-71.8-40.6-107.7c-0.9-2.4-1.2-4.9-1.8-7.4
		c-0.3-1.3,1.7-4.2,2.9-4.4c3.1-0.5,6.3-1.1,9.4-1.4c38.4-2.8,76.1-9.5,113.2-19.8c22.2-6.2,44-13.6,65.1-22.8
		c3.5-1.5,6.7-3.6,9.9-5.7c2.4-1.6,3.7-7.5,2.4-10.7c-1.3-3.1-3.7-5.3-7.1-5.9c-1.9-0.3-3.8-0.4-5.7-0.2c-2.5,0.3-5.1,0.8-7.6,1.4
		c-26.1,6.3-52.5,11.4-79,15.6c-50.1,8-100.4,11.7-151,9.2c-103.8-5.2-201.7-32.2-293.4-81.2c-10.1-5.4-19.9-11.5-29.9-17.3
		c-2.8-1.6-5.6-3-8.5-4.3c-3.2-1.4-8.2,0.2-10.5,2.9c-2.8,3.4-3.2,9.4-0.6,12.5c2,2.4,4.2,4.8,6.6,6.9
		c13.6,11.7,28.2,22.1,43.3,31.8c47.8,30.6,99.2,52.9,153.8,68.1c40.2,11.2,81.1,18.2,122.8,20.3c3.2,0.1,6.4,0.4,9.5,0.8
		c2.7,0.4,4.6,2.1,5.8,4.5c1.2,2.3,2.2,4.6,3.1,7c11.9,32.4,23.7,64.9,35.8,97.2c3,8,3.9,16,3.5,24.4c-0.9,21.8-4.9,43.2-9.5,64.5
		c-5.1,23.8-11.5,47.2-18.6,70.5c-0.4,1.2-0.7,2.5-1.1,3.7c-1.7,5.1-4.5,9.1-9.6,11.2c-8.9,3.7-17.5,7.9-26.5,11.2
		c-32.5,12.3-66.2,19.1-100.6,23.5c-23.6,3-47.1,3.9-70.8,3.9c-30.1,0-60-2.9-89.9-6.7c-29.9-3.8-59.3-9.4-88.6-16.5
		c-3.7-0.9-7.3-2.2-10.9-3.5c-1.1-0.4-2-1.5-3.6-2.7c-0.5-3.3-1.3-7-1.6-10.8c-1.1-10.8-2.1-21.7-2.9-32.5
		c-1.7-21.7-3.3-43.4-5-65.1c-2-26.2-4.1-52.3-6.1-78.4c-0.2-3.2-0.6-6.4-0.8-9.6c-3.1-49.8-6-99.6-9.2-149.4
		c-3.6-56.8-6.4-113.7-7.9-170.6c-0.6-20.5-1.8-40.9-2.1-61.4c-0.4-25.6-0.2-51.2-0.2-76.8c0-2.5,0.5-5.1,0.8-7.6
		c0.2-1.6,3-2.7,4.6-1.8c1.1,0.6,2.4,1,3.4,1.7c16,11.7,34.5,16.1,53.8,18.7c35.5,4.7,70.9,9.8,106.4,14.6
		c32.3,4.4,64.6,8.6,97,13.1c32.3,4.4,64.6,9,96.9,13.5c22.2,3.1,44.3,6,66.5,9.1c24.1,3.3,48.1,6.6,72.2,9.9
		c22.2,3.1,44.3,6.1,66.5,9.1c15.2,2.1,30.5,3.7,45.6,6.3c46.4,7.9,99.5-22.7,107.8-80.2c2.5-17.7,5-35.5,7.5-53.2
		c0.4-2.5,1-5,2-7.3c0.4-1,1.8-2,2.9-2.1c2.5-0.2,5.1-0.1,7.5,0.3c44.2,7.8,88.6,12.7,133.4,14.6c32,1.3,63.9,1.3,95.9-0.4
		c5.7-0.3,11.5-0.7,17.3-0.5c3.1,0.1,6.5,0.6,9.2,1.9c6.3,3,12.9,5.6,19.2,10.1c1.3,5.3,3,10.8,3.9,16.4
		C1701.6,2160.3,1705.1,2197.9,1703.7,2235.7z M1912.4,2054.5c0.1,5.1-0.4,10.2-0.7,15.3c0.2,0,0.4,0,0.7,0
		c-2.4,29.3-4.8,58.5-7.4,87.8c-1.5,16.5-3.1,33.1-5,49.5c-4.5,38.7-10.7,77.1-18.8,115.2c-9.1,42.9-44.4,86-93.3,100.6
		c-24.5,7.3-49.7,11.7-74.9,15.7c-2.5,0.4-5.2-1.9-5.1-4.4c0.1-3.8,0-7.7,0.7-11.4c4.3-25.2,9.5-50.1,18.2-74.3
		c7.7-21,13.5-42.6,16.4-64.8c3.9-29.2,6.2-58.4,4.4-87.9c-1.4-23-3.3-45.8-6.6-68.6c-0.4-2.5-0.7-5.1-1-7.6
		c-0.2-2.2,2.1-5.3,4.2-5.5c3.8-0.3,7.6-0.6,11.5-0.6c47.9-0.8,89.8-17.4,126.1-48.3c6.3-5.4,12.2-11.3,18-17.2
		c9.3-9.4,10.1-10.2,11.5-8.3C1914.6,2044.5,1912.3,2049.6,1912.4,2054.5z M2278.9,1742.6c-2.4,0.9-4.8,2-7.2,2.2
		c-9.6,0.8-19.1,0.4-28.7-1c-18.4-2.7-36.5-6.2-54.3-11.7c-4.2-1.3-8.6-2.5-13-3c-12.3-1.3-22.7,7.4-23.6,19.8c-0.2,3.2,0,6.4,0,9.6
		c0.2,8.4-1.3,16.6-3.5,24.6c-5.8,20.9-18.7,36.1-38.1,45.7c-13.9,7-28.8,10.3-44.2,12.1c-4.4,0.5-8.9,0.6-13.3,1.4
		c-1.7,0.3-3.3,1.7-4.7,3c-2.4,2.2-1.8,6.8,1,8.2c2.2,1.1,4.7,2.3,7,2.4c12.1,0.5,24.3,1.3,36.4,0.6c29.3-1.7,54.5-12.8,74.3-35
		c1.7-1.9,3.3-3.9,5.1-5.8c2.5-2.7,6.1-2.3,8,0.7c2,3.2,4,6.5,5.9,9.8c13.8,23.2,29.4,44.9,48.4,64.1c12.8,12.9,22.3,27.9,27.6,45.5
		c3.5,11.7,5.9,23.5,4,35.9c-2,13.7-7.3,25.8-15.7,36.6c-5.6,7.1-11.9,13.4-19.1,18.8c-27.7,20.6-58.4,34.1-93,37.8
		c-28.2,3-54.7-2.6-79.8-15.4c-17.8-9.1-33.7-20.9-48-34.7c-8.3-8-16.4-16.2-23.8-25c-34.1-40.2-63.4-83.4-85.2-131.6
		c-1.8-4.1-3.7-8.2-5.6-12.2c-0.8-1.7-1.6-3.6-2.9-4.9c-1.2-1.2-3.1-1.9-4.9-2.2c-1.4-0.3-3.6,2.2-3.6,3.8c0.1,4.5-0.2,9,0.6,13.4
		c2.9,16.4,5.7,32.8,9.3,48.9c3.2,14.3,7.4,28.4,11.4,42.6c1.3,4.5,1.2,8.7-0.7,13c-13.1,29-31.1,54.3-55.8,74.6
		c-15,12.3-31.8,21.4-50.2,27.3c-3.6,1.2-7.4,1.9-11.2,2.6c-3.5,0.6-6.2-0.9-8.2-3.6c-0.8-1-1.6-2-2.2-3.1
		c-17.9-28.3-31.6-58.4-39.5-91.1c-10-41.4-8.6-82.4,2.5-123.3c8.3-30.5,21-58.9,37.9-85.6c16.9-26.5,36.7-50.8,59.1-72.8
		c5.2-5.1,11-8.3,18.1-10.1c38.4-9.7,77.2-17.8,116.4-23.5c32.3-4.7,64.7-8.1,97.4-8.2c11.5,0.3,23,0.2,34.5,0.8
		c43.5,2.3,84.3,14.2,122.1,35.7c13.4,7.6,25.8,16.6,36.8,27.5c5.9,5.9,11.3,12.2,15.4,19.5c1.5,2.8,2.5,5.9,3.6,8.8
		C2282.6,1738.3,2281.1,1741.8,2278.9,1742.6z"/>
	<path class="st2" d="M1141.3,1947.7c-24.3,1.1-55-17.6-55-56.4c-0.9-25.5,23-49.2,50.3-50.7c24.7-1.3,54.8,14.9,55.8,52.9
		C1193.1,1920.3,1171.9,1946.3,1141.3,1947.7z"/>
	<g>
		<path class="st10" d="M113.4,260.8c10-10.6,23.9-21.6,41.7-33.2c13.6-8.8,24-16.7,31-23.6c7-6.9,11.3-15.4,12.9-25.4
			c2.2-14-1.7-26.2-11.7-36.6c-10-10.4-24.5-17.1-43.4-20c-28.6-4.4-52.8,0.1-72.8,13.6c-9.5,6.4-22.1,5.5-30.7-2.1l-5.5-4.9
			c-12.4-11.1-10.8-31.1,3.3-39.9c11.3-7.1,23.7-12.5,37.1-16.4c24.3-7,51.7-8.1,82.3-3.4c37.3,5.8,65.8,18.5,85.4,38
			c19.6,19.6,27.3,43.5,22.9,71.8c-2.1,13.7-6.2,25.3-12.3,34.9c-6.1,9.6-12.9,17.5-20.3,23.7c-7.4,6.2-17,13.1-28.8,20.9
			c-14.4,9.4-25.4,17.9-32.9,25.6c-3.6,3.7-6.6,7.9-8.9,12.6c-4.8,9.8-15.5,15.3-26.3,13.6l-13-2c-17.9-2.8-27.1-23-17.3-38.2
			C108.4,266.6,110.7,263.6,113.4,260.8z M80.7,412.2c-6.3-8.7-8.6-18.5-6.9-29.5c1.7-11,6.9-19.6,15.5-25.7
			c8.6-6.2,18.8-8.3,30.4-6.5c11.3,1.8,20.2,6.9,26.5,15.4c6.4,8.5,8.7,18.2,7,29.2c-1.7,11-6.9,19.6-15.5,26
			c-8.7,6.3-18.6,8.6-30,6.9C96,426.1,87,420.9,80.7,412.2z"/>
	</g>
</g>
</svg>
