<?xml version="1.0" encoding="utf-8"?>
<!-- Generator: Adobe Illustrator 25.4.1, SVG Export Plug-In . SVG Version: 6.00 Build 0)  -->
<svg version="1.1" id="Layer_1" xmlns="http://www.w3.org/2000/svg" xmlns:xlink="http://www.w3.org/1999/xlink" x="0px" y="0px"
	 viewBox="0 0 409.6 409.6" style="enable-background:new 0 0 409.6 409.6;" xml:space="preserve">
<style type="text/css">
	.st0{fill:#1086CE;}
</style>
<g>
	<path class="st0" d="M307.5,409.6c-68.2,0-136.3,0-204.5,0c-0.3-0.2-0.7-0.5-1-0.5c-17.7-3.7-28.6-15.4-30.3-33.3
		c-2.1-22.8-3.8-45.6-5.7-68.4c-2.3-27.4-4.6-54.9-6.9-82.3c-2-24.5-4.1-49-6.1-73.6c-0.8-10.2-1.6-20.3-2.5-30.7
		c103.2,0,206.2,0,309.2,0c0.1,0.6,0.2,0.9,0.2,1.3c-2.9,35.1-5.8,70.3-8.7,105.4c-4,48-8,96-11.9,144c-0.9,10.5-3.4,20.1-11.2,27.8
		C322.3,404.9,315.2,407.7,307.5,409.6z M157.4,350.3c-0.8-12.6-1.3-22.3-1.9-32c-2-32.9-4.1-65.8-6.1-98.7
		c-1.3-21.2-2.6-42.5-4-63.7c-0.3-4.4-2.3-7.9-6.3-10c-8.2-4.3-17.8,1.6-17.5,11c0.3,10.4,1.1,20.7,1.8,31.1
		c2,32.4,4.1,64.8,6.1,97.1c1.3,21.6,2.7,43.3,4,64.9c0.3,5.3,3,9,8,10.9C150,364,157.7,357.5,157.4,350.3z M289.1,157.6
		c0.3-7-4.2-12.7-11.2-13.1c-6.6-0.4-12.3,4.8-12.7,11.7c-1.4,21.9-2.7,43.8-4.1,65.7c-1.7,27.9-3.5,55.8-5.3,83.7
		c-0.9,14.5-1.9,28.9-2.6,43.4c-0.3,7.1,4.9,12.5,11.6,12.6c6.6,0.1,11.7-4.7,12.3-11.7c0.3-4.4,0.6-8.8,0.8-13.1
		c1.7-27.5,3.4-55,5.1-82.5C285,222.5,287,190.7,289.1,157.6z M217.2,253.1c0-31.1,0-62.3,0-93.4c0-9.6-4.4-15.2-12-15.1
		c-7.6,0-12,5.6-12,15.2c0,62.3,0,124.6,0,186.9c0,1.3-0.1,2.7,0.1,4c0.6,5.1,3.2,8.7,8,10.4c8.2,2.9,15.8-3.1,15.9-12.4
		C217.3,316.7,217.2,284.9,217.2,253.1z"/>
	<path class="st0" d="M121.7,48.6c0-5.6-0.5-10.7,0.1-15.6c2.3-18.9,16.4-32,35.5-32.2c31.9-0.3,63.9-0.3,95.8,0
		c20.5,0.2,35.4,15.6,35.9,36.2c0.1,3.7,0,7.4,0,11.6c1.7,0,3.1,0,4.5,0c22.1,0,44.2-0.1,66.3,0c12,0,21.3,6.9,24.2,17.7
		c3.6,13.2-4.6,26.6-18,29.5c-2.4,0.5-5,0.7-7.5,0.7c-102.2,0-204.5,0-306.7,0c-12.3,0-21.4-5.8-24.8-15.7
		c-5.6-16.3,5.6-32,23.2-32.1c22.1-0.2,44.2,0,66.3,0C118,48.6,119.4,48.6,121.7,48.6z M145.4,48.4c40.1,0,79.8,0,119.8,0
		c0-3.9,0.1-7.6,0-11.3c-0.2-7.5-5.1-12.3-12.7-12.5c-4.4-0.1-8.8,0-13.2,0c-26.9,0-53.7,0-80.6,0c-8.6,0-13.3,4.8-13.4,13.3
		C145.3,41.4,145.4,44.7,145.4,48.4z"/>
</g>
</svg>
