<?xml version="1.0" encoding="utf-8"?>
<!-- Generator: Adobe Illustrator 25.4.1, SVG Export Plug-In . SVG Version: 6.00 Build 0)  -->
<svg version="1.1" id="Layer_1" xmlns="http://www.w3.org/2000/svg" xmlns:xlink="http://www.w3.org/1999/xlink" x="0px" y="0px"
	 viewBox="0 0 384 384" style="enable-background:new 0 0 384 384;" xml:space="preserve">
<style type="text/css">
	.st0{fill:#0B4C84;}
</style>
<path class="st0" d="M183.8,0c5.5,0,11,0,16.5,0c1.7,0.3,3.4,0.6,5.1,0.9c7.2,0.9,14.4,1.3,21.5,2.6c48.2,9.4,87.5,33.4,117.5,72.3
	c21.6,28,34.2,59.8,38.1,95c0.5,4.6,1,9.1,1.6,13.7c0,5,0,10,0,15c-0.2,0.8-0.6,1.7-0.7,2.5c-0.8,7.3-1.2,14.7-2.5,21.9
	c-8.2,47.8-31.4,86.9-68.9,117.4c-28.9,23.5-62.1,37.2-99.2,41.1c-4.4,0.5-8.9,1-13.3,1.5c-5,0-10,0-15,0c-1.7-0.3-3.4-0.6-5.1-0.8
	c-8.8-1.2-17.7-1.7-26.3-3.5c-46.7-9.9-84.6-33.9-113.7-71.7c-20.1-26.1-32.5-55.7-37-88.4c-0.9-6.6-1.6-13.3-2.4-20c0-5,0-10,0-15
	c0.3-1.8,0.6-3.7,0.8-5.5c0.9-7.2,1.3-14.4,2.6-21.5c6.6-35.3,21.7-66.6,45.8-93.2c32.6-35.9,73-57,121.3-62.7
	C174.9,1.1,179.3,0.5,183.8,0z M150.1,306.8c1.8-1.5,2.6-2.2,3.3-2.8c33.2-30.9,66.4-61.8,99.6-92.7c21.1-19.7,42.2-39.4,63.3-59.1
	c8.7-8.2,11.3-19.5,6.9-29.7c-7-16.5-28.1-21-41.5-8.7c-15.1,13.8-30.1,27.8-45.1,41.8c-25.5,23.8-50.9,47.6-76.4,71.4
	c-2.2,2-4.4,4-6.8,6.2c-1.7-1.8-3.2-3.4-4.7-5.1c-16-17.2-32.1-34.3-48.1-51.5c-5.2-5.6-11.4-8.9-19-9.3
	c-10.4-0.5-20.1,5.5-24.5,14.9c-4.6,9.9-2.9,20.8,4.9,29.1c28.7,30.8,57.5,61.5,86.2,92.3C149.1,304.4,149.5,305.6,150.1,306.8z"/>
</svg>
