<?xml version="1.0" encoding="utf-8"?>
<!-- Generator: Adobe Illustrator 25.4.1, SVG Export Plug-In . SVG Version: 6.00 Build 0)  -->
<svg version="1.1" id="Layer_1" xmlns="http://www.w3.org/2000/svg" xmlns:xlink="http://www.w3.org/1999/xlink" x="0px" y="0px"
	 viewBox="0 0 352.2 352.1" style="enable-background:new 0 0 352.2 352.1;" xml:space="preserve">
<style type="text/css">
	.st0{fill:#0B4C84;}
</style>
<g>
	<path class="st0" d="M176.1,352.1C80,352.6,0.3,273.5,0,177.3C-0.3,79.4,78,0.5,176,0c96.2-0.5,175.9,78.9,176.2,175.7
		C352.4,272.9,273.8,351.6,176.1,352.1z M176.2,32.1c-79.4,0-144.1,64.4-144.1,143.6c0,79.7,64.4,144.4,143.7,144.4
		c79.7,0,144.3-64.5,144.3-144.2C320.1,96.7,255.4,32.1,176.2,32.1z"/>
	<path class="st0" d="M160.2,128.1c0-16.2-0.1-32.5,0.1-48.7c0.1-7.8,6.1-14.2,13.6-15.1c8.2-1,15.4,3.6,17.6,11.3
		c0.6,2.2,0.6,4.7,0.7,7c0,27.5,0.1,55,0,82.5c0,3,0.8,5.1,2.9,7.2c13.3,13.1,26.4,26.3,39.5,39.4c4.4,4.4,6.5,9.5,5,15.6
		c-2.8,12-17,16.5-26.3,8.3c-3.5-3.2-6.8-6.7-10.1-10c-12.3-12.3-24.5-24.6-36.9-36.8c-4.2-4.1-6.2-8.8-6.1-14.7
		C160.3,158.8,160.1,143.5,160.2,128.1C160.1,128.1,160.2,128.1,160.2,128.1z"/>
</g>
</svg>
