<?xml version="1.0" encoding="utf-8"?>
<!-- Generator: Adobe Illustrator 25.4.1, SVG Export Plug-In . SVG Version: 6.00 Build 0)  -->
<svg version="1.1" id="Layer_1" xmlns="http://www.w3.org/2000/svg" xmlns:xlink="http://www.w3.org/1999/xlink" x="0px" y="0px"
	 viewBox="0 0 322 322" style="enable-background:new 0 0 322 322;" xml:space="preserve">
<style type="text/css">
	.st0{fill:#FFFFFF;}
</style>
<g>
	<path class="st0" d="M315,315c-4.6,4.6-10.7,7-16.8,7c-6.1,0-12.1-2.3-16.8-7L161,194.5L40.5,315c-9.3,9.3-24.3,9.3-33.6,0
		c-9.3-9.3-9.3-24.3,0-33.6L127.5,161L7,40.5C-2.2,31.3-2.2,16.2,7,7s24.3-9.3,33.6,0L161,127.4L281.4,7c9.3-9.3,24.3-9.3,33.6,0
		c4.6,4.6,7,10.7,7,16.8c0,6.1-2.3,12.2-7,16.8L194.6,161L315,281.4C324.3,290.7,324.3,305.7,315,315z"/>
</g>
</svg>
