<?xml version="1.0" encoding="utf-8"?>
<!-- Generator: Adobe Illustrator 25.4.1, SVG Export Plug-In . SVG Version: 6.00 Build 0)  -->
<svg version="1.1" id="Layer_1" xmlns="http://www.w3.org/2000/svg" xmlns:xlink="http://www.w3.org/1999/xlink" x="0px" y="0px"
	 viewBox="0 0 225 225" style="enable-background:new 0 0 225 225;" xml:space="preserve">
<style type="text/css">
	.st0{fill:#0B4C84;}
</style>
<path class="st0" d="M105.3,0c4.7,0,9.4,0,14,0c3.8,0.5,7.5,0.8,11.3,1.5c25.2,4.3,46.7,15.6,64,34.5c24.5,26.9,34,58.6,28.5,94.5
	c-3.9,25.3-15.6,46.7-34.4,64c-25.9,23.8-56.6,33.4-91.5,29c-22.2-2.8-41.9-11.9-58.7-26.7c-19.7-17.4-32-39-36.7-64.9
	c-0.7-4.2-1.2-8.4-1.7-12.6c0-4.7,0-9.4,0-14c0.2-1.4,0.4-2.9,0.5-4.3c2.6-24.2,11.9-45.5,28.2-63.6C46.1,18.1,67.6,6.1,93.2,1.7
	C97.2,1,101.2,0.6,105.3,0z M146.2,99.8c-7.1-7.1-14.2-14.3-21.2-21.3c-17.5,17.5-35.2,35.2-52.6,52.6c7,7,14.2,14.2,21.2,21.3
	C111.1,135,128.7,117.3,146.2,99.8z M63.5,140c-1.8,1.7-3.8,3.4-5.5,5.3c-0.8,0.9-1.5,2-1.7,3.2c-1.5,6.2-2.8,12.4-4.1,18.6
	c-0.9,4.2,1.5,6.6,5.6,5.7c6.3-1.4,12.5-2.8,18.8-4.2c0.9-0.2,1.9-0.6,2.5-1.2c2.1-1.9,4-4,5.9-5.9C77.8,154.2,70.6,147.1,63.5,140z
	 M155.2,91.3c3.2-3.2,6.5-6.5,9.7-9.9c2.2-2.3,2.2-3.7,0-5.9c-4.6-4.6-9.3-9.1-13.8-13.8c-4.6-4.7-5.4-4.7-9.9,0
	c-2.6,2.7-5.3,5.3-7.8,7.8C140.8,76.9,147.9,84,155.2,91.3z"/>
</svg>
