<?xml version="1.0" encoding="utf-8"?>
<!-- Generator: Adobe Illustrator 25.4.1, SVG Export Plug-In . SVG Version: 6.00 Build 0)  -->
<svg version="1.1" id="Layer_1" xmlns="http://www.w3.org/2000/svg" xmlns:xlink="http://www.w3.org/1999/xlink" x="0px" y="0px"
	 viewBox="0 0 390.4 232.4" style="enable-background:new 0 0 390.4 232.4;" xml:space="preserve">
<style type="text/css">
	.st0{fill:#4A97CC;}
</style>
<g>
	<path class="st0" d="M0,113.1c4.1-5.9,7.7-12.2,12.2-17.7c24.5-29.8,53.2-54.7,87.9-72.3c23.7-12,48.6-19.6,75.1-22.1
		c51.4-4.9,98,8.8,140.6,37.2c27.7,18.5,50.7,41.7,70.8,68c5,6.5,5,13.5,0,20c-23.2,30.4-50.3,56.5-83.4,75.9
		c-27.4,16.1-56.7,26.3-88.5,29.3c-46.2,4.4-88.9-6.4-128.6-29.9c-32.8-19.4-59.7-45.5-82.6-75.7c-1.5-2-2.4-4.4-3.5-6.6
		C0,117.2,0,115.2,0,113.1z M192.5,34.2c-44.5,0.8-80.1,38.7-79.4,84.4c0.7,44.7,38.7,80.4,84.6,79.5c44.4-0.8,80.2-38.9,79.4-84.4
		C276.4,69,238.4,33.4,192.5,34.2z"/>
	<path class="st0" d="M195.3,72c24,0,44,19.6,44.1,43.3c0.1,24.9-19.8,45-44.5,45c-24,0-43.9-19.9-43.9-43.9C151,92,171,72,195.3,72
		z"/>
</g>
</svg>
