<?xml version="1.0" encoding="utf-8"?>
<!-- Generator: Adobe Illustrator 25.4.1, SVG Export Plug-In . SVG Version: 6.00 Build 0)  -->
<svg version="1.1" id="Layer_1" xmlns="http://www.w3.org/2000/svg" xmlns:xlink="http://www.w3.org/1999/xlink" x="0px" y="0px"
	 viewBox="0 0 384 384" style="enable-background:new 0 0 384 384;" xml:space="preserve">
<style type="text/css">
	.st0{fill:#1086CE;}
</style>
<path class="st0" d="M195,384c-5,0-10,0-15,0c-0.8-0.2-1.7-0.5-2.5-0.6c-23.1-1.7-45.4-7.1-66.2-17.3C51.9,337.2,15.7,290.3,3,225.5
	c-1.4-7.1-2-14.3-3-21.5c0-8,0-16,0-24c0.3-2.5,0.6-4.9,0.9-7.4c4.5-41.5,20.4-78,48.4-109c29.6-32.8,66.3-53.2,110-60.7
	C166.2,1.7,173.1,1,180,0c8,0,16,0,24,0c1,0.2,1.9,0.5,2.9,0.6c29.8,2.3,57.6,10.8,83.1,26.3c49.8,30.5,80.3,74.5,91.1,132
	c1.3,7,2,14.1,2.9,21.1c0,7.8,0,15.5,0,23.2c-0.8,6.5-1.3,13.1-2.5,19.6c-12.4,66.7-49.3,114.8-110.5,144.1
	c-8.1,3.9-16.8,6.6-25.6,10c0-47.9,0-95,0-142.5c13.8,0,27.3,0,41.1,0c2.1-16.2,4.1-31.9,6.2-48.2c-16.2,0-31.7,0-47.3,0
	c-0.1-0.9-0.2-1.4-0.2-1.9c0-10.7-0.1-21.5,0.1-32.2c0.3-12.4,6.7-18.8,19.1-19.4c8.5-0.4,17-0.2,25.5-0.2c1.3,0,2.6,0,3.9,0
	c0-14.7,0-28.7,0-43.8c-15.1-0.2-29.9-1.2-44.7-0.4c-7.6,0.4-15.6,2.8-22.6,6.1c-20.2,9.6-29.1,27.1-30.6,48.5
	c-0.9,12.9-0.4,26-0.5,39c0,1.4,0,2.9,0,4.8c-14,0-27.5,0-41,0c0,16.1,0,31.8,0,47.9c13.7,0,27.1,0,41,0c0,1.7,0,3.1,0,4.4
	c0,47,0,94,0,141C195.4,381.3,195.1,382.6,195,384z"/>
</svg>
