<?xml version="1.0" encoding="utf-8"?>
<!-- Generator: Adobe Illustrator 25.4.1, SVG Export Plug-In . SVG Version: 6.00 Build 0)  -->
<svg version="1.1" id="Layer_1" xmlns="http://www.w3.org/2000/svg" xmlns:xlink="http://www.w3.org/1999/xlink" x="0px" y="0px"
	 viewBox="0 0 352.1 319.9" style="enable-background:new 0 0 352.1 319.9;" xml:space="preserve">
<style type="text/css">
	.st0{fill:#0B4C84;}
</style>
<g>
	<path class="st0" d="M311.9,288c-7.7,0-15.5,0.1-23.2-0.1c-2.7-0.1-3.8,0.8-4.9,3.3c-8.4,19.2-27.7,30.4-49.1,28.4
		c-19.9-1.8-37-17.1-41.6-37.2c-5.4-23.8,8.2-48.2,31.1-55.8c24-8,49.4,3,59.4,25.8c1.3,3,2.8,3.6,5.8,3.6c15.6-0.1,31.2-0.1,46.9,0
		c8.2,0.1,14.4,5.8,15.6,13.9c1.1,7.3-3.3,14.7-10.5,17c-2.2,0.7-4.6,1-7,1C326.9,288.1,319.4,288,311.9,288z"/>
	<path class="st0" d="M39.9,144c7.9,0,15.8-0.1,23.6,0.1c2.5,0.1,3.6-0.8,4.7-3.1c8.2-19.1,27.9-30.8,48.1-28.9
		c21.1,2,38,16.8,42.7,37.4c5.4,23.7-8.1,48-31.2,55.9c-23.4,8-48.8-2.8-59-25.2c-1.6-3.4-3.3-4.4-6.9-4.3
		c-15.4,0.2-30.7,0.2-46.1,0c-6.9-0.1-12.3-4.1-14.7-10.3c-2.3-6.2-0.7-13,4.2-17.5c3.1-2.8,6.8-4.1,11-4.1
		C24.1,144,32,144,39.9,144z"/>
	<path class="st0" d="M256.2,47.9c0.1-26.7,21.5-48,47.9-47.9c26.8,0.1,48.3,21.6,48.1,48.2C351.9,74.6,330.3,96,303.9,96
		C277.6,96,256,74.2,256.2,47.9z"/>
	<path class="st0" d="M111.8,63.9c-31.7,0-63.5,0-95.2,0c-11.1,0-18.7-9.3-16.1-19.8C2,37.9,6.1,34,12.3,32.4
		c1.8-0.4,3.7-0.5,5.6-0.5c62.7,0,125.5,0,188.2,0c2.5,0,5,0.3,7.4,1.1c7.1,2.4,11.5,9.8,10.5,17.1c-1.1,7.7-7.5,13.6-15.4,13.8
		c-7.7,0.2-15.5,0.1-23.2,0.1C160.8,63.9,136.3,63.9,111.8,63.9z"/>
	<path class="st0" d="M79.9,288c-20.9,0-41.8,0-62.6,0c-8.9,0-15.4-5-16.9-12.9c-1.9-9.7,5.1-18.8,15.1-19.1
		c6.9-0.2,13.7-0.1,20.6-0.1c35.8,0,71.5,0,107.3,0c11.1,0,18.6,9.2,16.3,19.7c-1.7,7.5-8.2,12.3-17,12.3
		C121.7,288.1,100.8,288,79.9,288z"/>
	<path class="st0" d="M272,175.9c-21,0-42,0.1-63,0c-11.3,0-18.8-8.9-16.5-19.4c1.5-6.8,7.3-11.9,14.2-12.4c0.7-0.1,1.5-0.1,2.2-0.1
		c42.1,0,84.2,0,126.4,0c9.1,0,15.4,5.4,16.6,14c1.1,7.5-3.8,15.1-11.4,17.2c-2.1,0.6-4.4,0.6-6.7,0.6
		C313.3,175.9,292.6,175.9,272,175.9z"/>
</g>
</svg>
