<?xml version="1.0" encoding="utf-8"?>
<!-- Generator: Adobe Illustrator 25.4.1, SVG Export Plug-In . SVG Version: 6.00 Build 0)  -->
<svg version="1.1" id="Layer_1" xmlns="http://www.w3.org/2000/svg" xmlns:xlink="http://www.w3.org/1999/xlink" x="0px" y="0px"
	 viewBox="0 0 375 375" style="enable-background:new 0 0 375 375;" xml:space="preserve">
<style type="text/css">
	.st0{fill:#1086CE;}
</style>
<g>
	<path class="st0" d="M187.6,0C291.1,0.1,375,84.1,375,187.5c0,103.6-84.2,187.7-187.8,187.5C83.7,374.8-0.1,290.7,0,187.3
		S84.2-0.1,187.6,0z M72,187.5c-0.1,0-0.2,0-0.3,0c0,14.1-0.1,28.2,0,42.4c0.1,5.4,0.3,10.8,1.1,16c3.5,23,14.7,40.6,36.8,50
		c10.2,4.4,21.1,6.2,32.2,6.2c29.2,0.1,58.5,0.1,87.7,0c6.3,0,12.8-0.4,19-1.4c23.5-4,40.9-15.9,49.7-38.8
		c3.7-9.5,5.2-19.5,5.2-29.7c0-28.9,0.1-57.7,0-86.6c0-5.5-0.3-11-1.1-16.4c-3.7-24-15.6-41.8-38.9-50.9c-9.4-3.7-19.3-5.3-29.3-5.3
		c-31-0.1-62-0.2-93,0c-11.6,0-23,2-33.5,7c-23.4,11-33.8,30.8-35.4,55.4C71.1,152.7,72,170.1,72,187.5z"/>
	<path class="st0" d="M187.4,94.6c15.5,0,31-0.1,46.5,0.1c5,0.1,10,0.7,14.8,1.8c18.4,4.3,30.2,17.8,32.5,36.6
		c0.5,4.2,0.7,8.5,0.8,12.7c0.1,28.6,0.2,57.3-0.1,85.9c-0.1,6.9-1.2,14-3.3,20.5c-5.8,17.1-18.7,26.3-36.2,27.3
		c-21.8,1.2-43.7,1.1-65.6,1.2c-14.1,0.1-28.3,0.2-42.3-1c-25.4-2.2-40.5-18.1-41.1-43.8c-0.7-32.4-0.4-64.7,0.1-97.1
		c0.1-6.7,2.1-13.6,4.8-19.8c6.4-15.1,18.9-22.4,34.7-23.6c15.2-1.1,30.5-0.9,45.7-1.2c3-0.1,6,0,9,0
		C187.4,94.3,187.4,94.4,187.4,94.6z M248.5,187.9c0.1-33.9-26.9-61.2-60.6-61.3c-34-0.1-61.2,26.9-61.3,61
		c-0.1,33.7,27,60.8,61,60.9C221,248.6,248.4,221.4,248.5,187.9z M248.8,139c6.7,0,12.2-5.3,12.2-12s-5.3-12.2-12-12.3
		c-6.9-0.1-12.4,5.4-12.4,12.2C236.7,133.6,242,138.9,248.8,139z"/>
	<path class="st0" d="M226.8,187.4c0.1,21.7-17.4,39.3-39.2,39.4c-21.7,0.1-39.3-17.4-39.5-39.2c-0.1-21.7,17.4-39.3,39.2-39.4
		C209.1,148.1,226.7,165.5,226.8,187.4z"/>
</g>
</svg>
