<?xml version="1.0" encoding="utf-8"?>
<!-- Generator: Adobe Illustrator 25.4.1, SVG Export Plug-In . SVG Version: 6.00 Build 0)  -->
<svg version="1.1" id="Layer_1" xmlns="http://www.w3.org/2000/svg" xmlns:xlink="http://www.w3.org/1999/xlink" x="0px" y="0px"
	 viewBox="0 0 512 512" style="enable-background:new 0 0 512 512;" xml:space="preserve">
<style type="text/css">
	.st0{fill:#1086CE;}
</style>
<path class="st0" d="M240,0c10.7,0,21.3,0,32,0c1.3,0.3,2.6,0.7,3.8,0.8c39.9,3,77.2,14.4,111.2,35.4
	c66.1,40.7,106.8,99.2,121,175.7c1.7,9.3,2.6,18.7,3.9,28.1c0,10.7,0,21.3,0,32c-0.4,3.3-0.9,6.6-1.2,9.8
	c-5.5,50.6-23.8,96.1-56.1,135.4c-40.2,49-91.6,79.4-154,90.7c-9.5,1.7-19.1,2.7-28.6,4c-10.7,0-21.3,0-32,0
	c-6.2-0.8-12.5-1.4-18.7-2.3c-47.2-6.7-89.7-24.7-126.5-55C45.9,414.4,15.4,363,4,300.6c-1.7-9.5-2.7-19.1-4-28.6
	c0-10.7,0-21.3,0-32c0.4-3.3,0.9-6.6,1.2-9.8C7.1,175.9,27.6,128,63.8,87.1c39.8-45,89.3-72.9,148.6-83.2C221.5,2.3,230.8,1.3,240,0
	z M278.4,386.8c0-16.1,0-31.8,0-47.4c0.1-21.2,0-42.3,0.5-63.5c0.3-11.5,6.3-20.3,15.7-26.5c18.1-12.1,40.8-4,46.7,16.8
	c2,6.9,2.6,14.4,2.7,21.7c0.3,31.2,0.1,62.3,0.1,93.5c0,1.8,0,3.5,0,5.2c21.1,0,41.6,0,62.1,0c0.1-1.6,0.2-3,0.2-4.3
	c0-34.2,0.1-68.3-0.1-102.5c0-6.8-0.5-13.7-1.3-20.4c-4.4-36.7-26.3-59.9-61.7-64c-25.5-2.9-47,4.8-62.2,26.7
	c-0.5,0.7-1.2,1.3-2.6,2.8c0-7.7-0.2-14.3,0.1-20.9c0.1-3.7-1-4.9-4.8-4.8c-17.8,0.2-35.7,0.1-53.5,0.1c-1.3,0-2.6,0.3-3.8,0.4
	c0,62.6,0,124.8,0,187.1C237.1,386.8,257.4,386.8,278.4,386.8z M181.4,386.9c0.1-1.3,0.2-2.1,0.2-2.9c0-60.2,0-120.3,0.1-180.5
	c0-3.9-1.7-4.2-4.8-4.2c-17.7,0.1-35.3,0-53,0.1c-1.4,0-2.9,0.2-4.4,0.3c0,62.6,0,124.8,0,187.2
	C140.3,386.9,160.6,386.9,181.4,386.9z M115.7,141.5c0,19,14.6,32.5,34.8,32.4c20.4-0.1,35.3-13.7,35.2-32.2
	c0-19-14.6-32.6-34.8-32.6C130.2,109,115.7,122.3,115.7,141.5z"/>
</svg>
