<?xml version="1.0" encoding="utf-8"?>
<!-- Generator: Adobe Illustrator 25.4.1, SVG Export Plug-In . SVG Version: 6.00 Build 0)  -->
<svg version="1.1" id="Layer_1" xmlns="http://www.w3.org/2000/svg" xmlns:xlink="http://www.w3.org/1999/xlink" x="0px" y="0px"
	 viewBox="0 0 336.1 360.2" style="enable-background:new 0 0 336.1 360.2;" xml:space="preserve">
<style type="text/css">
	.st0{fill:#1086CE;}
</style>
<g>
	<path class="st0" d="M240.1,0c57,0,101.5,49.4,95.5,105.9c-2.5,23-12.1,42.5-28.4,58.9C250,222.5,193,280.4,135.7,338.1
		c-19.8,19.9-43.8,26.6-70.9,19.1c-27-7.5-44.3-25.6-50.8-52.9c-5.9-24.8,0-47.6,17.9-65.7c41.9-42.4,84.3-84.4,126.8-126.2
		c20.7-20.4,53.9-18,70.3,4.4c12.8,17.5,11.2,42.8-4.4,59.3c-12.6,13.3-25.9,26.1-38.9,39.1c-26.7,26.7-53.4,53.4-80.1,80.1
		c-2.9,2.9-6,4.9-10.2,4.6c-4.8-0.3-8.3-2.6-10.3-6.9c-2-4.3-1.4-8.5,1.4-12.4c0.9-1.2,2-2.2,3.1-3.3
		c38.4-38.4,76.7-76.7,115.1-115.1c5.6-5.6,9.1-12,8.7-20c-0.7-14.1-13.7-23.2-27.3-18.9c-4.1,1.3-8.3,3.8-11.4,6.8
		C133,171.5,91.5,212.9,49.9,254.3c-14.1,14.1-17.8,35.2-9.7,53.4c8.1,18.1,26.4,29.3,46.3,28.3c12.8-0.7,23.5-5.9,32.5-15
		C160,279.4,201,238,241.9,196.6c16.6-16.8,33.4-33.5,49.8-50.5C323,113.7,317.7,62,280.6,36.5c-28-19.3-66.2-16.2-90.6,7.9
		c-42.9,42.3-85.6,84.8-128.4,127.3c-13.5,13.4-27,26.8-40.5,40.1c-5.8,5.7-13.7,5.6-18.4-0.2c-4.2-5-3.6-11.7,1.6-16.8
		c16.2-16.1,32.5-32.3,48.7-48.4c39.4-39.1,78.8-78.2,118.2-117.3C190.7,9.8,214,0,240.1,0z"/>
</g>
</svg>
