<?xml version="1.0" encoding="utf-8"?>
<!-- Generator: Adobe Illustrator 25.4.1, SVG Export Plug-In . SVG Version: 6.00 Build 0)  -->
<svg version="1.1" id="Layer_1" xmlns="http://www.w3.org/2000/svg" xmlns:xlink="http://www.w3.org/1999/xlink" x="0px" y="0px"
	 viewBox="0 0 373.7 219.5" style="enable-background:new 0 0 373.7 219.5;" xml:space="preserve">
<style type="text/css">
	.st0{fill:#1086CE;}
</style>
<g>
	<path class="st0" d="M0,35.3c1.9-6.9,4-13.7,8.6-19.4C16.4,6.2,26.4,0.6,39,0.2C47.6-0.1,56.2,0,64.9,0c48.2,0,96.3,0,144.5,0
		c18,0,31.6,7.6,39.1,24c2.5,5.6,3.7,12.2,3.7,18.4c0.3,44.9,0.2,89.8,0.1,134.6c0,21.5-13.5,38-33.9,41.8c-3.1,0.6-6.3,0.6-9.4,0.6
		c-55.2,0-110.4,0-165.6,0c-22.7,0-37.9-12.3-42.8-34.4c-0.1-0.3-0.4-0.6-0.6-0.9C0,134.6,0,85,0,35.3z"/>
	<path class="st0" d="M373.7,109.7c0,20.9,0.1,41.8,0,62.8c-0.1,16.7-15.6,28.2-31.3,23.5c-2.6-0.8-5.2-2.1-7.6-3.5
		c-19.6-11.2-39.2-22.5-58.9-33.6c-2.3-1.3-3.2-2.7-3.2-5.4c0.1-29.3,0.1-58.6,0-88c0-2,0.1-3.6,2.3-4.8
		c20.7-11.8,41.2-23.9,62-35.6c14-7.9,30.8-1,35.6,14.3c0.9,2.8,1.1,6,1.1,9C373.7,68.8,373.7,89.3,373.7,109.7z"/>
</g>
</svg>
