<?xml version="1.0" encoding="utf-8"?>
<!-- Generator: Adobe Illustrator 25.4.1, SVG Export Plug-In . SVG Version: 6.00 Build 0)  -->
<svg version="1.1" id="Layer_1" xmlns="http://www.w3.org/2000/svg" xmlns:xlink="http://www.w3.org/1999/xlink" x="0px" y="0px"
	 viewBox="0 0 312 72" style="enable-background:new 0 0 312 72;" xml:space="preserve">
<style type="text/css">
	.st0{fill:#1086CE;}
</style>
<g>
	<path class="st0" d="M0,36.1C0,16.3,16.1,0,35.9,0c19.8,0,36,16.1,36.1,35.9C72,55.7,55.9,72,36.1,72C16.3,72,0,55.9,0,36.1z"/>
	<path class="st0" d="M120,35.8c0.1-19.8,16.3-35.9,36.1-35.8c19.8,0.1,35.9,16.3,35.8,36.1c-0.1,19.8-16.3,35.9-36.1,35.9
		C136.1,71.9,120,55.6,120,35.8z"/>
	<path class="st0" d="M276.1,0c19.8,0,36,16.3,35.9,36.1c0,19.8-16.3,36-36.1,35.9c-19.8,0-36-16.3-35.9-36.1
		C240.1,16.1,256.3,0,276.1,0z"/>
</g>
</svg>
