<?xml version="1.0" encoding="utf-8"?>
<!-- Generator: Adobe Illustrator 25.4.1, SVG Export Plug-In . SVG Version: 6.00 Build 0)  -->
<svg version="1.1" id="Layer_1" xmlns="http://www.w3.org/2000/svg" xmlns:xlink="http://www.w3.org/1999/xlink" x="0px" y="0px"
	 viewBox="0 0 222.6 347.6" style="enable-background:new 0 0 222.6 347.6;" xml:space="preserve">
<style type="text/css">
	.st0{fill:#1086CE;}
</style>
<g>
	<path class="st0" d="M51.6,347.6c-0.7-0.4-1.3-0.7-2-1.1c-5.3-2.5-8.2-8-7.2-13.3c1.2-6,5.8-10,11.9-10.1c13.6-0.1,27.1,0,40.7-0.1
		c1.2,0,2.4,0,3.9,0c0-11,0-21.7,0-32.5c-5.5-1.2-11-2.1-16.5-3.5c-24.9-6.7-45.1-20.6-60.5-41.2C7.5,226.5,0.4,204.6,0,180.5
		c-0.1-6,3-10.5,8.3-12.3c5-1.7,10.7-0.2,13.6,4.2c1.5,2.3,2.4,5.4,2.6,8.2c0.7,19.4,6.4,37.1,18.6,52.4
		c14.2,18,32.6,29.3,55.4,32.3c35,4.6,63.3-7.7,84.2-36.1c10.7-14.6,15.2-31.3,15.7-49.3c0.2-8.1,6.5-13.3,14.2-12.2
		c6,0.9,10.3,6.1,10.2,12.8c-0.4,24.2-7.6,46.3-22.1,65.7c-17.1,22.7-39.7,36.9-67.5,42.7c-3.1,0.6-6.2,1.1-9.3,1.6
		c0,10.9,0,21.5,0,32.7c1.3,0,2.4,0,3.6,0c13.1,0,26.2,0,39.4,0c7.5,0,12.3,3.7,13.6,10.1c1.2,5.9-2.1,11-8.8,13.9
		c-0.2,0.1-0.3,0.3-0.4,0.5C131.2,347.6,91.4,347.6,51.6,347.6z"/>
	<path class="st0" d="M179.8,124.1c0,17.9,0.2,35.7-0.1,53.6c-0.5,29.2-13.7,50.8-40.1,63.7c-34.6,16.8-78.6-1.2-92-37.3
		c-3.2-8.6-4.7-17.4-4.7-26.5c0-35.9-0.1-71.7,0-107.6c0.1-31,17.8-56.1,46.7-66.4c36.3-12.8,78.2,9.4,87.5,46.7
		c1.6,6.5,2.4,13.4,2.6,20.1C180,88.4,179.8,106.2,179.8,124.1z"/>
</g>
</svg>
