<?xml version="1.0" encoding="utf-8"?>
<!-- Generator: Adobe Illustrator 25.4.1, SVG Export Plug-In . SVG Version: 6.00 Build 0)  -->
<svg version="1.1" id="Layer_1" xmlns="http://www.w3.org/2000/svg" xmlns:xlink="http://www.w3.org/1999/xlink" x="0px" y="0px"
	 viewBox="0 0 410.9 410.9" style="enable-background:new 0 0 410.9 410.9;" xml:space="preserve">
<style type="text/css">
	.st0{fill:#1086CE;}
</style>
<path class="st0" d="M310.1,410.9c-10-2.2-20.1-3.8-30-6.6c-20.3-5.7-39.2-14.8-57.3-25.2c-51.5-29.8-95.5-68.5-134.6-113.1
	c-25.3-28.9-47.5-60.1-64.6-94.6c-10.5-21.3-18.8-43.3-21.6-67C0.2,89.5,0.7,74.7,8,61c2.3-4.3,5.3-8.4,8.7-11.9
	c11.9-12.3,24.2-24.1,36.2-36.3c16.6-17,42.3-15.2,57.9,0c18.6,18.2,37,36.6,55.3,55.2c16.1,16.3,16.2,40.8,0.2,55.7
	c-3.4,3.2-7.8,5.7-12.2,7.4c-11.2,4.4-20,11.1-24.8,22.4c-3.2,7.5-3.7,15.1-1.6,23.1c6,22.3,18.6,40.6,33.8,57.4
	c15.8,17.4,33.7,32.3,55,42.7c9.4,4.6,19,8.6,29.9,7.2c14.7-1.9,25.9-9,31.7-23c3.6-8.7,7.8-16.6,16.1-21.8
	c15.5-9.7,34.5-7.9,48.2,5.4c19.2,18.7,38.3,37.7,56.9,56.9c15.3,15.8,14.7,40.9-0.8,56.7c-12.3,12.5-24.7,24.7-37.1,37.1
	c-8.8,8.8-19.5,13.2-31.6,14.9c-1,0.1-2,0.5-3,0.8C321.3,410.9,315.7,410.9,310.1,410.9z"/>
</svg>
