<?xml version="1.0" encoding="utf-8"?>
<!-- Generator: Adobe Illustrator 25.4.1, SVG Export Plug-In . SVG Version: 6.00 Build 0)  -->
<svg version="1.1" id="Layer_1" xmlns="http://www.w3.org/2000/svg" xmlns:xlink="http://www.w3.org/1999/xlink" x="0px" y="0px"
	 viewBox="0 0 384 384" style="enable-background:new 0 0 384 384;" xml:space="preserve">
<style type="text/css">
	.st0{fill:#0B4C84;}
	.st1{fill:#1086CE;}
</style>
<path class="st0" d="M224.8,383.9c-4.2-1.9-6.6-5.2-8.6-9.3c-21.9-45.3-43.9-90.6-65.8-135.9c-0.5-1-0.9-2-1.3-3.1
	c0.2-1.9,1.9-2.9,3.1-4.1C226.8,156.9,301.4,82.3,376,7.6c1.3-1.3,3.1-2.2,3.2-4.4c2.7,0.9,3,3.6,4.4,5.4c0,2,0,4,0,6
	c-0.2,0.3-0.5,0.6-0.6,0.9c-47.6,119.1-95.3,238.2-142.8,357.3c-1.9,4.7-4.1,8.6-8.6,11.1C229.3,383.9,227.1,383.9,224.8,383.9z"/>
<path class="st1" d="M379.2,3.2c0,2.2-1.9,3.1-3.2,4.4c-74.6,74.7-149.3,149.3-223.9,224c-1.2,1.2-2.8,2.2-3.1,4.1
	c-8.5-4.2-16.9-8.5-25.4-12.7c-32.8-15.9-65.6-31.8-98.4-47.7c-4.9-2.4-9.8-4.9-14.8-7.1c-4.5-1.9-8.2-4.5-10.4-9c0-2,0-4,0-6
	c1.8-3.7,4.2-6.5,8.2-8.1c108.7-43.4,217.5-86.9,326.2-130.4c11.8-4.7,23.6-9,35-14.3c1.7,0,3.5,0,5.2,0
	C376,1.5,378.2,1.4,379.2,3.2z"/>
</svg>
