<?xml version="1.0" encoding="utf-8"?>
<!-- Generator: Adobe Illustrator 25.4.1, SVG Export Plug-In . SVG Version: 6.00 Build 0)  -->
<svg version="1.1" id="Layer_1" xmlns="http://www.w3.org/2000/svg" xmlns:xlink="http://www.w3.org/1999/xlink" x="0px" y="0px"
	 viewBox="0 0 384 384" style="enable-background:new 0 0 384 384;" xml:space="preserve">
<style type="text/css">
	.st0{fill:#1086CE;}
</style>
<path class="st0" d="M384,180c0,7.8,0,15.5,0,23.2c-0.2,1.2-0.5,2.4-0.6,3.6c-1,7.5-1.7,15.1-3.1,22.6
	c-14.9,77.2-77.5,138.4-155.2,151.6c-7,1.2-14,2-21.1,2.9c-8,0-16,0-24,0c-0.8-0.2-1.6-0.6-2.5-0.6c-16.3-1.2-32.2-4.2-47.5-9.8
	C60.3,347.7,18,298.3,3,225.4c-1.4-7.1-2-14.3-3-21.4c0-8,0-16,0-24c1-7,1.7-14.1,2.9-21.1C16.2,81.2,77.2,18.7,154.5,3.8
	c8.7-1.7,17.5-2.5,26.3-3.8c7.8,0,15.5,0,23.2,0c1,0.2,1.9,0.5,2.9,0.6c28.8,2.2,56,10.2,80.8,25c51.1,30.4,82.4,74.8,93.4,133.3
	C382.4,165.9,383,173,384,180z M193.3,319c3.8-0.3,8.8-0.4,13.8-1c24.7-2.8,47-11.4,65.6-28.2c14.1-12.7,23.2-28.3,27.1-46.9
	c1.2-5.6-0.4-9.7-5.3-11.3c-2.9-1-6.6-1.3-9.4-0.4c-21,6.9-42.5,11-64.5,12.8c-30.1,2.5-59.9,1.4-89.5-4.6
	c-11.1-2.3-22-5.7-32.9-8.6c-9.3-2.4-15.7,3.6-13.7,12.9c3.9,18.2,13,33.4,26.7,45.8C134.2,310.2,161.7,318.4,193.3,319z
	 M237.7,147.7c0,13.5,11,24.6,24.6,24.6c13.5,0,24.6-11.1,24.7-24.6c0.1-13.5-11-24.7-24.4-24.7
	C248.7,122.9,237.7,133.9,237.7,147.7z M146.3,147.8c0-13.6-10.8-24.7-24.3-24.8c-13.8-0.1-24.8,10.8-24.9,24.6
	c-0.1,13.5,11,24.6,24.5,24.7C135.1,172.4,146.3,161.3,146.3,147.8z"/>
</svg>
