<?xml version="1.0" encoding="utf-8"?>
<!-- Generator: Adobe Illustrator 25.4.1, SVG Export Plug-In . SVG Version: 6.00 Build 0)  -->
<svg version="1.1" id="Layer_1" xmlns="http://www.w3.org/2000/svg" xmlns:xlink="http://www.w3.org/1999/xlink" x="0px" y="0px"
	 viewBox="0 0 384 384" style="enable-background:new 0 0 384 384;" xml:space="preserve">
<style type="text/css">
	.st0{fill:#0B4C84;}
</style>
<path class="st0" d="M180,0c8,0,16,0,24,0c1,0.2,1.9,0.5,2.9,0.6c29,2.2,56.2,10.3,81.1,25.2c50.9,30.4,82.1,74.7,93,133.1
	c1.3,7,2,14.1,2.9,21.1c0,8,0,16,0,24c-0.2,1-0.5,1.9-0.6,2.9c-2.5,32.9-12.7,63.3-31.1,90.7C321.7,343,279.4,371,225.4,381
	c-7.1,1.3-14.3,2-21.4,3c-8,0-16,0-24,0c-1-0.2-1.9-0.5-2.9-0.6c-38.2-3-72.7-16.2-102.8-39.9C35.5,313,11.5,273.4,2.9,224.7
	C1.6,217.9,0.9,210.9,0,204c0-8,0-16,0-24c0.6-4.6,1-9.1,1.7-13.7c5.5-39,21.2-73.4,47.7-102.7c29.7-32.7,66.3-53.2,110-60.7
	C166.2,1.7,173.1,1,180,0z M82.5,192c0,16.4,13.4,29.9,29.7,30c16.8,0.1,30.3-13.4,30.3-30.2c0-16.3-13.5-29.8-29.9-29.8
	C96,162,82.5,175.5,82.5,192z M222,192.2c0.1-16.4-13.2-30-29.5-30.2c-16.6-0.2-30.3,13.1-30.5,29.6c-0.1,16.6,13.2,30.3,29.7,30.4
	C208.3,222.1,221.9,208.8,222,192.2z M271.5,162c-16.6,0-30,13.5-30,30.1c0,16.4,13.5,29.9,29.8,29.9c16.8,0,30.3-13.5,30.2-30.3
	C301.4,175.4,287.9,162,271.5,162z"/>
</svg>
