<?xml version="1.0" encoding="utf-8"?>
<!-- Generator: Adobe Illustrator 25.4.1, SVG Export Plug-In . SVG Version: 6.00 Build 0)  -->
<svg version="1.1" id="Layer_1" xmlns="http://www.w3.org/2000/svg" xmlns:xlink="http://www.w3.org/1999/xlink" x="0px" y="0px"
	 viewBox="0 0 359.4 359.4" style="enable-background:new 0 0 359.4 359.4;" xml:space="preserve">
<style type="text/css">
	.st0{fill:#0B4C84;}
</style>
<g>
	<path class="st0" d="M359.4,179.6c0,99.1-80.6,179.8-179.7,179.8C80.7,359.4,0,278.6,0,179.6C0,80.5,80.8-0.1,179.9,0
		C278.8,0.1,359.4,80.7,359.4,179.6z M335.5,179.8C335.6,93.8,266.2,24.2,180,24C93.9,23.7,24,93.4,24,179.6
		c-0.1,86,69.4,155.6,155.5,155.8C265.6,335.7,335.4,266.1,335.5,179.8z"/>
	<path class="st0" d="M167.8,106c0-3.4-0.1-6.7,0-9.9c0.2-7,5.4-12.2,12.1-12.2c6.7,0,11.7,5.3,11.9,12.3c0.1,3.2,0,6.5,0,9.4
		c4.7,1.6,9.2,2.8,13.3,4.7c13.9,6.5,22.2,17,22.6,32.8c0.2,6.9-4.7,12.2-11.2,12.5c-6.8,0.3-12.3-4.5-12.6-11.5
		c-0.3-6-3.4-9.8-8.5-12.1c-10.2-4.6-20.6-4.7-30.8,0c-10.5,4.9-12.2,18.9-3,25.9c4.8,3.6,10.6,5.8,16.2,8.2
		c6.8,2.8,13.9,4.7,20.7,7.6c19.4,8.2,29.6,23,29.3,42.3c-0.2,14.3-7.1,24.7-19.4,31.4c-5,2.7-10.5,4.3-16.5,6.7c0,2.5,0,5.7,0,8.9
		c-0.1,7.3-5.1,12.5-12,12.5c-6.9,0-11.8-5.3-11.9-12.6c0-3.1,0-6.2,0-8.8c-5.7-2.3-11.3-3.9-16.2-6.5
		c-12.3-6.5-19.1-16.8-19.6-30.9c-0.3-7.4,4.6-12.9,11.4-13.1c7-0.3,12.1,4.5,12.5,12c0.3,5.1,2.7,8.9,7.1,11.1
		c11.2,5.7,22.7,5.8,33.7,0c8.8-4.7,10-18.1,2.1-24.6c-4.2-3.5-9.5-5.8-14.7-7.9c-8.2-3.4-16.7-5.8-24.8-9.3
		c-14.6-6.3-24.2-17.1-26.7-33.1c-3.3-21.3,7.2-37.4,28.2-43.8C163,107.2,165.2,106.7,167.8,106z"/>
</g>
</svg>
