<?xml version="1.0" encoding="utf-8"?>
<!-- Generator: Adobe Illustrator 25.4.1, SVG Export Plug-In . SVG Version: 6.00 Build 0)  -->
<svg version="1.1" id="Layer_1" xmlns="http://www.w3.org/2000/svg" xmlns:xlink="http://www.w3.org/1999/xlink" x="0px" y="0px"
	 viewBox="0 0 512 512" style="enable-background:new 0 0 512 512;" xml:space="preserve">
<style type="text/css">
	.st0{fill:#0B4C84;}
</style>
<path class="st0" d="M0,272c0-10.7,0-21.3,0-32c1.1-8.6,2-17.2,3.4-25.7c9.1-53.3,32.4-99.3,70.3-137.8
	C112,37.8,158.1,13.4,211.9,3.9c9.3-1.6,18.7-2.6,28.1-3.9c10.7,0,21.3,0,32,0c8.7,1.1,17.5,2,26.1,3.5
	c48.1,8.2,90.6,28.3,127.1,60.7c44.5,39.6,72.4,88.9,82.9,147.7c1.7,9.3,2.6,18.7,3.9,28.1c0,10.7,0,21.3,0,32
	c-0.3,1.3-0.7,2.6-0.8,3.9c-3,39.1-14.1,75.9-34.4,109.4c-40.6,67-99.4,108.3-176.6,122.8c-9.3,1.7-18.7,2.6-28.1,3.9
	c-10.7,0-21.3,0-32,0c-6.2-0.8-12.5-1.4-18.7-2.3c-50.9-7.3-96-27.7-134.4-61.9C42.4,408.3,14.6,359.2,4,300.6
	C2.3,291.1,1.3,281.5,0,272z M234.8,277.2c0,2.9,0,4.9,0,6.9c0,27.5,0.1,55,0,82.5c0,9.9,4.1,17.1,13.1,21c14,6,29.2-4.2,29.3-19.8
	c0.2-28.2,0.1-56.3,0.1-84.5c0-1.9,0-3.8,0-6.1c2.8,0,4.8,0,6.8,0c27.7,0,55.3,0,83,0c10,0,17.5-5,20.8-13.4
	c5.6-14.2-4.6-28.9-20.4-29c-28-0.2-56-0.1-84-0.1c-1.9,0-3.9,0-6.2,0c0-2.7,0-4.7,0-6.7c0-27.7,0-55.3,0-83
	c0-9.6-4.1-16.8-12.9-20.7c-14.1-6.3-29.4,4-29.5,20c-0.2,28-0.1,56-0.1,84c0,1.9,0,3.9,0,6.4c-2.6,0-4.6,0-6.5,0
	c-27.7,0-55.3,0-83,0c-9.9,0-17.1,4.2-21,13.2c-6,14,4.3,29.1,20,29.2c28,0.2,56,0.1,84,0.1C230.2,277.3,232.1,277.2,234.8,277.2z"
	/>
</svg>
