<?xml version="1.0" encoding="utf-8"?>
<!-- Generator: Adobe Illustrator 25.4.1, SVG Export Plug-In . SVG Version: 6.00 Build 0)  -->
<svg version="1.1" id="Layer_1" xmlns="http://www.w3.org/2000/svg" xmlns:xlink="http://www.w3.org/1999/xlink" x="0px" y="0px"
	 viewBox="0 0 384 384" style="enable-background:new 0 0 384 384;" xml:space="preserve">
<style type="text/css">
	.st0{fill:#0B4C84;}
</style>
<path class="st0" d="M168,0c7.4,1.2,14.9,1.8,22.1,3.6c62.5,15.1,103,53.6,118.6,115.9c12.4,49.8,1.4,95.6-30.5,136
	c-0.5,0.6-0.9,1.2-2.5,3.1c1.2,0.6,2.7,1,3.7,1.9c32.5,32.4,64.9,64.8,97.3,97.3c2.8,2.9,5,6.4,7.4,9.7c0,2,0,4,0,6
	c-1.8,5.2-5.3,8.7-10.5,10.5c-2,0-4,0-6,0c-3.2-2.5-6.8-4.6-9.6-7.4c-32.4-32.3-64.7-64.6-97.1-97c-1-1-1.8-2.1-2.6-3
	c-6.4,4.5-12.1,9-18.2,12.8c-33,20.6-69,28.2-107.3,22.1c-53.7-8.6-92.9-37.6-117.3-86.3c-8.5-16.9-13.1-35-14.7-53.9
	c-0.1-1.1-0.5-2.2-0.7-3.3c0-7.2,0-14.5,0-21.8c0.2-1,0.5-1.9,0.6-2.9c2-24.3,9.2-47,22-67.7c23.6-38.1,57.3-62.3,101.1-72
	c7.4-1.6,15-2.5,22.5-3.6C153.5,0,160.8,0,168,0z M156.6,26c-8.5,1.1-17.2,1.5-25.6,3.3C33.1,49.3-4.6,165.1,55.2,236.1
	c32,37.9,71.6,56.5,121.8,49c71.6-10.6,121.3-81,107.8-152.2c-4.4-23.1-15-42.7-30.4-60C228.4,43.7,196.8,26.2,156.6,26z"/>
</svg>
