<?xml version="1.0" encoding="utf-8"?>
<!-- Generator: Adobe Illustrator 25.4.1, SVG Export Plug-In . SVG Version: 6.00 Build 0)  -->
<svg version="1.1" id="Layer_1" xmlns="http://www.w3.org/2000/svg" xmlns:xlink="http://www.w3.org/1999/xlink" x="0px" y="0px"
	 viewBox="0 0 409.6 409.6" style="enable-background:new 0 0 409.6 409.6;" xml:space="preserve">
<style type="text/css">
	.st0{fill:#0B4C84;}
</style>
<path class="st0" d="M409.6,193.2c0,8,0,16,0,24c-0.3,2.8-0.7,5.5-1,8.3c-3.6,33.7-14.4,64.8-33.5,92.8
	c-32.8,48-77.7,77.7-135.1,88.3c-7.6,1.4-15.2,2.1-22.8,3.2c-8,0-16,0-24,0c-6.8-0.9-13.7-1.5-20.5-2.6
	c-42.6-7.2-79.6-25.6-110.2-56.1C16.6,305.1-3.9,249.4,1.9,184.7c3.6-40,18.4-76,43.9-106.9c46.6-56.2,106.6-82,179.6-76.1
	c33.7,2.8,64.8,14.3,92.8,33.4c47.9,32.8,77.7,77.8,88.3,135.1C407.8,177.9,408.6,185.6,409.6,193.2z M229.1,241.2
	c0-1.5,0-2.9,0-4.4c0-18.2,0.1-36.5,0-54.7c-0.1-16.7-14.7-28.2-30.1-24c-10.8,3-17.7,12.2-17.7,24.1c-0.1,22.8,0,45.5,0,68.3
	c0,16.5-0.1,33,0,49.5c0.1,11,6.2,19.9,15.6,23.3c16.1,5.7,32.1-5.5,32.2-23C229.3,280.6,229.1,260.9,229.1,241.2z M229.1,109.3
	c0-13-10.9-23.9-24-23.9c-13,0-23.9,10.9-23.9,24c0,13,10.9,23.9,24,23.9C218.3,133.2,229.1,122.3,229.1,109.3z"/>
</svg>
