<?xml version="1.0" encoding="utf-8"?>
<!-- Generator: Adobe Illustrator 25.4.1, SVG Export Plug-In . SVG Version: 6.00 Build 0)  -->
<svg version="1.1" id="Layer_1" xmlns="http://www.w3.org/2000/svg" xmlns:xlink="http://www.w3.org/1999/xlink" x="0px" y="0px"
	 viewBox="0 0 288.1 384" style="enable-background:new 0 0 288.1 384;" xml:space="preserve">
<style type="text/css">
	.st0{fill:#0B4C84;}
</style>
<path class="st0" d="M257.3,384c-75.5,0-151,0-226.5,0c-1.4-0.4-2.8-1-4.2-1.3c-15.3-4.1-26.5-17.9-26.5-33.8
	C0,292.3,0,235.7,0.1,179.1c0-17.1,12.8-31.7,29.8-34.4c5.8-0.9,11.9-0.7,18.1-1c0-1.4,0-2.8,0-4.1c0-15.1-0.1-30.2,0.1-45.4
	c0.5-40.1,27.1-76.5,65.2-89c7.3-2.4,15-3.5,22.5-5.2c5.5,0,11,0,16.5,0c2,0.3,3.9,0.7,5.9,1C206.6,9,240,48.4,240,97.6
	c0,14.1,0,28.2,0,42.4c0,1.3,0,2.6,0,4.1c4.7,0,8.8-0.1,12.9,0c19.1,0.5,34.9,15.9,35,35c0.2,56.6,0.2,113.2,0,169.8
	c0,14.8-9.7,27.8-23.6,32.9C262,382.6,259.6,383.3,257.3,384z M80.3,143.8c42.8,0,85.1,0,127.3,0c0-18.8,0-37.4,0-56
	c0-1-0.3-2-0.5-3c-5.3-33.4-38.9-57.7-72.1-52.2c-32.6,5.4-54.6,31.2-54.8,64.1c-0.1,14.5,0,29,0,43.5
	C80.1,141.4,80.2,142.5,80.3,143.8z M128.1,287.6c0,1.5,0,3,0,4.5c0,4.4-0.1,8.8,0.1,13.1c0.4,8.3,7.6,14.9,15.9,14.8
	c8.2-0.1,15.5-6.5,15.7-14.6c0.3-11.1,0.2-22.2,0.1-33.3c0-3,0.8-4.9,3.3-6.8c11.9-8.8,16-24,10.4-37.5
	c-5.5-13.3-19.1-21.3-33.4-19.5c-13.2,1.6-23.7,10.8-27.1,23.6c-3.3,12.6,1.1,25.7,11.8,33.5c2.5,1.8,3.3,3.6,3.2,6.5
	C128,277.1,128.1,282.3,128.1,287.6z"/>
</svg>
