<?xml version="1.0" encoding="utf-8"?>
<!-- Generator: Adobe Illustrator 25.4.1, SVG Export Plug-In . SVG Version: 6.00 Build 0)  -->
<svg version="1.1" id="Layer_1" xmlns="http://www.w3.org/2000/svg" xmlns:xlink="http://www.w3.org/1999/xlink" x="0px" y="0px"
	 viewBox="0 0 288.2 384" style="enable-background:new 0 0 288.2 384;" xml:space="preserve">
<style type="text/css">
	.st0{fill:#0B4C84;}
</style>
<path class="st0" d="M154.5,384c-7,0-14,0-21,0c-0.8-0.2-1.6-0.6-2.5-0.6c-16.6-1.3-32.5-5.4-47.7-12.2
	C24.4,345.1-12.7,282.7,4.1,213c7.2-30.1,20.4-57.6,36.3-83.9c28-46.4,62.4-87.6,100.5-126c0.9-0.9,1.6-2.1,2.4-3.1c0.5,0,1,0,1.5,0
	c0.7,1,1.4,2,2.2,2.9c35.2,35.4,67.1,73.4,94,115.5c16.8,26.2,31.1,53.5,40,83.5c7.3,24.6,10.1,49.6,3.5,74.7
	c-14.7,55.9-51.6,89.3-106.8,103.6C170.1,382.1,162.2,382.7,154.5,384z M143.8,72.4c-1.3,1.4-2.1,2.2-2.9,3.1
	c-19.7,22.6-38.1,46.3-54.2,71.7c-14,22-26.3,44.7-33.8,69.8c-6.3,20.9-7.5,41.9,1.5,62.3c13.9,31.4,38.9,48.8,72.1,55.1
	c5.7,1.1,11.5,1.3,17.3,1.8C143.8,248,143.8,160.6,143.8,72.4z"/>
</svg>
