<?xml version="1.0" encoding="utf-8"?>
<!-- Generator: Adobe Illustrator 25.4.1, SVG Export Plug-In . SVG Version: 6.00 Build 0)  -->
<svg version="1.1" id="Layer_1" xmlns="http://www.w3.org/2000/svg" xmlns:xlink="http://www.w3.org/1999/xlink" x="0px" y="0px"
	 viewBox="0 0 329.1 367.9" style="enable-background:new 0 0 329.1 367.9;" xml:space="preserve">
<style type="text/css">
	.st0{fill:#0B4C84;}
</style>
<g>
	<path class="st0" d="M171.8,0c9.3,2.2,19,3.3,27.7,6.9c33,13.6,53.1,38.3,59.3,73.6c6.8,39.2-12.4,79.2-48,98.3
		c-34.6,18.6-69,16.7-101.3-5.8c-25.9-18-39.5-43.8-40.1-75.3c-0.7-35,14.5-62.6,43.5-82.2c12.8-8.7,27.1-13.4,42.5-15
		c0.7-0.1,1.4-0.3,2.1-0.5C162.2,0,167,0,171.8,0z"/>
	<path class="st0" d="M169.9,367.9c-47.6-0.4-85.5-12.6-119-37.5c-19.7-14.7-36.3-32.6-49.1-53.8c-1.9-3.2-2.5-6.4-0.9-9.9
		c16.7-34.8,43.6-57.2,81.1-66.6c2.9-0.7,5.9-1.1,8.8-1.7c5.8-1.2,10.7,0.5,15.5,3.8c18.9,13.3,39.9,19.2,62.9,18.3
		c17.7-0.7,34.7-5,48.9-15.5c10.6-7.8,20.8-7.3,32.1-4.1c32,8.9,56.1,28,73.2,56.3c7.4,12.3,7.7,12.5-0.2,24.4
		c-19.1,28.8-43.9,51.5-75.1,66.6C219.9,361.9,192.8,368,169.9,367.9z"/>
</g>
</svg>
