<?xml version="1.0" encoding="utf-8"?>
<!-- Generator: Adobe Illustrator 25.4.1, SVG Export Plug-In . SVG Version: 6.00 Build 0)  -->
<svg version="1.1" id="Layer_1" xmlns="http://www.w3.org/2000/svg" xmlns:xlink="http://www.w3.org/1999/xlink" x="0px" y="0px"
	 viewBox="0 0 48 48" style="enable-background:new 0 0 48 48;" xml:space="preserve">
<style type="text/css">
	.st0{fill:#0B4C84;}
</style>
<path class="st0" d="M48,21.5c0,0.9,0,1.8,0,2.6c0,0.1-0.1,0.2-0.1,0.4c-0.3,3.2-1.2,6.1-3,8.8c-4.1,6.3-10,9.8-17.3,10.9
	c-4.5,0.7-8.9,0.1-13.1-1.5c-0.2-0.1-0.5,0-0.6,0c-0.7,0.3-1.4,0.7-2.1,1c-3.4,1.5-7,2.4-10.7,3.1c-0.5,0.1-0.9-0.1-1.2-0.5
	c0-0.2,0-0.3,0-0.5c0.6-0.8,1.2-1.6,1.7-2.4c1.3-2.6,1.8-5.4,2.1-8.3c0.1-0.5-0.1-0.8-0.3-1.2c-1.5-2.2-2.5-4.6-3-7.2
	C0.2,25.8,0.1,24.9,0,24c0-0.8,0-1.7,0-2.5c0.1-0.7,0.2-1.4,0.3-2.1c1.1-5.6,4-10,8.6-13.3c5.4-3.9,11.5-5.4,18.2-4.6
	C32.6,2,37.5,4.2,41.6,8.1c3.1,2.9,5.1,6.5,6,10.7C47.8,19.7,47.9,20.6,48,21.5z M12.8,26c1.8,0,3.2-1.5,3.2-3.2
	c0-1.7-1.5-3.2-3.2-3.2c-1.8,0-3.2,1.5-3.2,3.2C9.6,24.6,11.1,26,12.8,26z M35.1,26c1.8,0,3.2-1.4,3.3-3.2c0-1.7-1.4-3.2-3.2-3.2
	c-1.7,0-3.2,1.4-3.2,3.2C31.9,24.5,33.4,25.9,35.1,26z M23.9,26c1.8,0,3.2-1.4,3.3-3.1c0-1.7-1.4-3.2-3.1-3.3
	c-1.7-0.1-3.2,1.4-3.3,3.1C20.8,24.5,22.2,25.9,23.9,26z"/>
</svg>
