<?xml version="1.0" encoding="utf-8"?>
<!-- Generator: Adobe Illustrator 25.4.1, SVG Export Plug-In . SVG Version: 6.00 Build 0)  -->
<svg version="1.1" id="Layer_1" xmlns="http://www.w3.org/2000/svg" xmlns:xlink="http://www.w3.org/1999/xlink" x="0px" y="0px"
	 viewBox="0 0 384 384" style="enable-background:new 0 0 384 384;" xml:space="preserve">
<style type="text/css">
	.st0{fill:#0B4C84;}
</style>
<path class="st0" d="M0,309.7c0-84,0-168,0-252c0.6-2.1,1.3-4.3,1.9-6.4c6-21.5,24.6-35.4,47.8-35.4c73.5-0.1,147,0,220.4,0
	c0.7,0,1.5,0,2.2,0c18.3,0.8,31.3,14,31.6,32.3c0.1,7.2,0,14.5,0,21.7c0,3.2,0,6.4,0,10c5.1,0,9.7,0,14.3,0
	c20.4,0.1,33.7,13.4,33.7,33.9c0,8.7,0,17.5,0,26.2c0,1.2-0.1,2.4-0.2,3.8c-12.9,0-25.5-0.1-38.1,0.1c-4.7,0.1-9.5,0.2-14.2,1.1
	c-38.8,7.5-63.2,41.1-58.7,80.5c3.5,31.1,30.5,58.6,61.6,61.4c14.9,1.4,29.9,0.7,44.9,0.9c1.5,0,2.9,0,4.4,0c0,12.5,0,24.6-0.1,36.7
	c0,1.6-0.6,3.2-1.1,4.7c-4.4,14-16.4,22.5-32.2,22.5c-89.7,0-179.5,0-269.2,0c-1,0-2,0-3-0.1c-14.9-0.7-26.8-7.1-36.1-18.6
	C4.5,326.4,1.8,318.2,0,309.7z M271.8,48c-1.7,0-3.1,0-4.6,0c-72.2,0-144.4,0-216.6,0c-1.1,0-2.3,0-3.4,0
	c-6.6,0.3-12.2,4.6-14.4,10.8C29.1,69.8,37.2,80,49.8,80c72.7,0,145.4,0,218.1,0c1.3,0,2.6-0.1,3.9-0.2
	C271.8,69,271.8,58.7,271.8,48z"/>
<path class="st0" d="M384,255c-2.9,6.8-8.1,9.2-15.5,9.1c-18.7-0.3-37.5,0-56.2-0.1c-27.6-0.1-49-22.2-48.3-49.9
	c0.7-24.5,21.5-45.6,46-46c20.6-0.3,41.2-0.1,61.9-0.1c6.2,0,9.6,3.9,12.1,9C384,203,384,229,384,255z M327.9,216.1
	c0.1-9-6.9-16-15.8-16c-9-0.1-16,6.8-16,15.8c-0.1,9,6.9,16,15.8,16C320.8,232,327.9,225,327.9,216.1z"/>
</svg>
