<?xml version="1.0" encoding="utf-8"?>
<!-- Generator: Adobe Illustrator 25.4.1, SVG Export Plug-In . SVG Version: 6.00 Build 0)  -->
<svg version="1.1" id="Layer_1" xmlns="http://www.w3.org/2000/svg" xmlns:xlink="http://www.w3.org/1999/xlink" x="0px" y="0px"
	 viewBox="0 0 384 384" style="enable-background:new 0 0 384 384;" xml:space="preserve">
<style type="text/css">
	.st0{fill:#0B4C84;}
</style>
<path class="st0" d="M195.8,0c0.9,0.4,1.7,0.9,2.6,1.3c5.9,2.8,9.3,7.4,9.6,14c0.2,5,0.1,10,0,15c0,2.1,0.6,3,2.8,3.4
	c46.6,8.5,81.3,42,90.9,88.2c1.6,7.9,2,16.1,2.2,24.2c0.4,16.9-0.3,33.8,0.7,50.6c1.8,28.7,14.1,52.7,35.5,72
	c6.2,5.5,10.9,11.7,11.6,20.2c1.5,16.9-10.2,30.1-27.2,31c-1,0.1-2,0-3,0c-86.3,0-172.7,0-259,0c-10,0-18.4-3.1-24.6-11.1
	c-9.3-11.9-7.4-28.3,4.7-38.9c10.6-9.3,19.1-20,25.6-32.5c8.2-15.8,11.9-32.8,11.9-50.5c0-15.4-0.2-30.7,0.1-46.1
	c1-52.6,40.5-98.4,92.4-107c2.9-0.5,3.7-1.6,3.6-4.3c-0.2-3,0.2-6-0.1-9c-0.9-9.9,2.8-16.9,12.2-20.6C190.8,0,193.2,0,195.8,0z"/>
<path class="st0" d="M185.2,384c-7.3-2.4-15-4-21.7-7.5c-15.7-8.1-25.3-21.4-29.9-38.4c-0.1-0.5-0.1-1-0.2-1.8c39,0,77.9,0,117.1,0
	c-1.3,7.2-4.1,13.8-8.1,19.9c-10,15.2-24,24.4-42.1,27.2c-0.6,0.1-1.1,0.4-1.7,0.6C194.2,384,189.8,384,185.2,384z"/>
</svg>
