<?xml version="1.0" encoding="utf-8"?>
<!-- Generator: Adobe Illustrator 25.4.1, SVG Export Plug-In . SVG Version: 6.00 Build 0)  -->
<svg version="1.1" id="Layer_1" xmlns="http://www.w3.org/2000/svg" xmlns:xlink="http://www.w3.org/1999/xlink" x="0px" y="0px"
	 viewBox="0 0 343.4 384" style="enable-background:new 0 0 343.4 384;" xml:space="preserve">
<style type="text/css">
	.st0{fill:#0B4C84;}
</style>
<g>
	<path class="st0" d="M36.7,0c66,0,132,0,198,0c0.4,0.2,0.9,0.5,1.3,0.6C257,4.6,271,20.8,271.3,42c0.3,17.4,0.2,34.7-0.1,52.1
		c-0.1,3.1-1.4,6.7-3.2,9.3c-3.2,4.8-9.7,6.3-15.1,4.3c-5.6-2-9.1-7.2-9.1-13.7c0-17,0-34,0-51c0-9.6-5.7-15.4-15.4-15.5
		c-53,0-106,0-159,0c-0.9,0-1.7,0.2-3.3,0.4c1.6,1,2.6,1.5,3.5,2.1c25.1,14.5,50,29.2,75.3,43.4c16.4,9.2,24.1,22.7,24.1,41.6
		c-0.3,58.5-0.1,117-0.1,175.4c0,1.6,0,3.1,0,4.8c1.5,0.1,2.4,0.2,3.2,0.2c18.6,0,37.2,0,55.9,0c10,0,15.8-5.9,15.8-15.9
		c0-14.7,0-29.5,0-44.2c0-8.2,5.9-14.3,13.6-14.4c7.8-0.1,13.8,5.9,13.9,14.1c0.1,15.4,0.3,30.7,0,46.1
		c-0.5,23.2-17.5,40.8-40.7,41.5c-19,0.6-38,0.2-57,0.2c-1.5,0-2.9,0-4.7,0c0,6.9,0.1,13.3,0,19.6c-0.3,18-10.4,32.3-27.3,38.8
		c-2.9,1.1-5.9,1.9-8.8,2.8c-3.8,0-7.5,0-11.2,0c-6.7-2.8-13.8-5.1-20.1-8.6c-26-14.7-51.6-29.9-77.6-44.6
		c-16.2-9.1-23.8-22.5-23.8-41C0.2,228.9,0.1,168,0.1,107.2c0-21.4-0.1-42.7,0-64.1C0.2,26.5,7.2,13.6,21.7,5.4
		C26.3,2.9,31.7,1.8,36.7,0z"/>
	<path class="st0" d="M295.1,175.2c-1.5,0-2.9,0-4.4,0c-31.4,0-62.7,0-94.1,0c-9,0-15-5.1-15.4-12.9c-0.4-8,5.4-14.4,13.4-14.5
		c10.6-0.2,21.2-0.1,31.9-0.1c21.6,0,43.2,0,64.9,0c1.3,0,2.6,0,5.1,0c-5.4-5.4-10.3-9.8-14.6-14.7c-2-2.2-3.7-5.1-4.3-8
		c-1.3-6,1.8-11.6,7.1-14.4c5.1-2.7,11.2-1.9,15.6,2.2c3.5,3.2,6.8,6.7,10.1,10c9.3,9.3,18.6,18.5,27.8,27.8
		c6.8,6.8,6.8,14.6,0.1,21.4c-12.5,12.6-25,25.2-37.7,37.6c-5.6,5.5-13.8,5.4-19.2,0.2c-5.5-5.3-5.6-13.7-0.3-19.5
		c1.1-1.2,2.3-2.3,3.4-3.5c3.7-3.5,7.3-7.1,11-10.6C295.5,175.9,295.3,175.6,295.1,175.2z"/>
</g>
</svg>
