<?xml version="1.0" encoding="utf-8"?>
<!-- Generator: Adobe Illustrator 25.4.1, SVG Export Plug-In . SVG Version: 6.00 Build 0)  -->
<svg version="1.1" id="Layer_1" xmlns="http://www.w3.org/2000/svg" xmlns:xlink="http://www.w3.org/1999/xlink" x="0px" y="0px"
	 viewBox="0 0 360.1 341.2" style="enable-background:new 0 0 360.1 341.2;" xml:space="preserve">
<style type="text/css">
	.st0{fill:#0B4C84;}
</style>
<path class="st0" d="M125.7,0c7.5,0.5,13.3,3.6,17.9,9.2c9.4,11.3,21.5,17.3,36.2,17.4c14.3,0.1,26.2-5.5,35.7-16.1
	c9.5-10.7,17-12.5,30.3-7.3c17.6,6.9,33.6,16.4,48.2,28.4c8.4,6.9,10.9,15.8,7.4,26.2c-9.9,28.9,6.6,57.3,36.5,62.9
	c11.1,2.1,17.4,8.4,19.5,19.4c3.8,20.4,3.6,40.7-0.3,61.1c-1.9,9.8-9.2,16.8-19.3,18.3c-31,4.7-48.4,34.5-37.5,63.9
	c3.9,10.5,1.5,19.7-7.1,26.8c-14,11.5-29.4,20.7-46.2,27.5c-10.1,4.1-19.9,1.6-26.8-7c-20.7-25.7-55.8-25.3-75.9,0.9
	c-6.9,9.1-16.6,11.9-27.3,7.8c-18-6.9-34.5-16.3-49.5-28.5c-9.4-7.6-11.8-16.8-7.2-28c8.9-21.4,2-45-16.8-57.6
	c-5.9-4-12.3-6.5-19.4-7.4C10.5,216,4.1,210,2,196.2c-3.1-19.7-2.5-39.4,1.4-58.9c2.1-10.4,9.4-16.7,20.2-18.2
	c31.2-4.2,49.2-33.8,38.5-63.5c-3.9-10.9-1.2-20.1,7.9-27.3C84.4,17.3,100.1,8.5,117,2.2C119.8,1.2,122.8,0.7,125.7,0z M180.4,110.7
	c-33.3,0-60.3,26.8-60.3,59.9c0,33.3,26.8,60,60.1,60.1c33.1,0,59.9-27,59.9-60.3C240.1,137.7,213.1,110.7,180.4,110.7z"/>
</svg>
