<?xml version="1.0" encoding="utf-8"?>
<!-- Generator: Adobe Illustrator 25.4.1, SVG Export Plug-In . SVG Version: 6.00 Build 0)  -->
<svg version="1.1" id="Layer_1" xmlns="http://www.w3.org/2000/svg" xmlns:xlink="http://www.w3.org/1999/xlink" x="0px" y="0px"
	 viewBox="0 0 304.2 224.2" style="enable-background:new 0 0 304.2 224.2;" xml:space="preserve">
<style type="text/css">
	.st0{fill:#0B4C84;}
</style>
<g>
	<path class="st0" d="M223.3,55.2c-6.7,6.7-13.2,13.6-20.1,20.2c-7.9,7.6-19.4,5.9-24.9-3.4c-3.7-6.3-2.7-13.6,3.1-19.5
		c11.7-11.8,23.5-23.5,35.2-35.3c3.9-3.9,7.6-7.9,11.3-12c6.1-6.8,17.9-6.8,24.2-0.3c11.3,11.7,22.7,23.2,34.1,34.8
		c4.6,4.7,9.5,9.3,13.9,14.2c5,5.5,5.3,13.1,1.3,19c-4.2,6.1-11.3,8.9-18,6.4c-2.5-0.9-4.8-2.6-6.8-4.5
		c-5.9-5.6-11.5-11.4-17.3-17.2c-0.8-0.8-1.7-1.6-3.2-3c0,2.1,0,3.5,0,4.8c0,28,0.1,56,0,84c0,12-8.5,18.6-20.1,16.2
		c-6.3-1.3-10.8-6.3-11.5-12.7c-0.2-1.9-0.2-3.7-0.2-5.6c0-27.2,0-54.5,0-81.7c0-1.3,0-2.7,0-4C223.9,55.5,223.6,55.3,223.3,55.2z"
		/>
	<path class="st0" d="M112.3,224.2c-31.9,0-63.7,0-95.6,0c-12,0-19.1-9.5-15.8-21c1.6-5.8,5.5-9.4,11.5-10.5
		c2.2-0.4,4.5-0.5,6.7-0.5c62.1,0,124.2,0,186.4,0c0.9,0,1.8,0,2.6,0c10.1,0.4,16.4,6.7,16.2,16.3c-0.2,9.7-6.5,15.7-16.7,15.8
		C175.7,224.2,144,224.2,112.3,224.2z"/>
	<path class="st0" d="M88.3,112.2c23.7,0,47.5-0.1,71.2,0c11.9,0,18.6,8.5,16.1,20.1c-1.3,6.3-6.3,10.8-12.7,11.5
		c-1.7,0.2-3.5,0.2-5.2,0.2c-46.4,0-92.7,0-139.1,0c-2.4,0-4.8,0-7.1-0.5c-7.8-1.8-12.2-8.8-11.4-17.4c0.8-7.9,6.4-13.6,14.2-13.8
		c13.4-0.3,26.7-0.1,40.1-0.1C65.8,112.2,77,112.2,88.3,112.2z"/>
	<path class="st0" d="M63.9,32.1c15.9,0,31.7,0,47.6,0c11.8,0,18.7,8.6,16.1,20.2c-1.3,6.1-5.2,9.8-11.2,11.3
		c-1.4,0.3-3,0.6-4.5,0.6c-31.9,0-63.7,0.1-95.6,0c-12-0.1-18.9-9.8-15.5-21.3c2-6.7,7.5-10.7,15.4-10.7
		C32.1,32.1,48,32.1,63.9,32.1z"/>
</g>
</svg>
