<?xml version="1.0" encoding="utf-8"?>
<!-- Generator: Adobe Illustrator 25.4.1, SVG Export Plug-In . SVG Version: 6.00 Build 0)  -->
<svg version="1.1" id="Layer_1" xmlns="http://www.w3.org/2000/svg" xmlns:xlink="http://www.w3.org/1999/xlink" x="0px" y="0px"
	 viewBox="0 0 408.8 378.6" style="enable-background:new 0 0 408.8 378.6;" xml:space="preserve">
<style type="text/css">
	.st0{fill:#0C4B84;}
</style>
<g>
	<path class="st0" d="M408.8,202.9c-0.9,1.8-1.6,3.7-2.7,5.3c-3.3,4.7-8,7-13.8,6.4c-6.6-0.7-10.8-4.7-13-10.9
		c-4.8-13.8-9.6-27.6-14.5-41.4c-3.2-9.3-6.5-18.5-10.5-27.6c0.6,3.7,1.2,7.5,2,11.2c6,30.8,11.8,61.6,18.1,92.3
		c1.8,8.9-2.8,13.8-10.9,12.9c-2.6-0.3-5.2,0-8.2,0c0,2.1,0,3.6,0,5.2c0,33.9,0,67.9,0,101.8c0,12.3-8.7,20.4-20.3,19
		c-8.9-1-15.4-8.5-15.5-18.3c-0.1-10,0-20,0-29.9c0-24.3,0-48.7,0-73c0-1.4,0-2.8,0-4.5c-2.7,0-4.9,0-7.7,0c0,1.6,0,3.2,0,4.7
		c0,33.5,0.1,67.1-0.1,100.6c0,3.9-0.7,8.1-2.3,11.5c-3.4,7.2-11.8,10.6-19.6,8.8c-7.4-1.7-12.9-8.1-13.5-15.9
		c-0.2-1.9-0.2-3.7-0.2-5.6c0-33,0-66,0-99c0-1.6,0-3.1,0-5.4c-3.4,0-6.4,0-9.4,0c-7.9-0.1-11.3-4.2-9.8-12
		c6.7-34.4,13.4-68.8,20.1-103.3c0.1-0.5,0.1-1-0.4-1.8c-0.4,0.9-0.8,1.9-1.2,2.8c-7.9,22.3-15.8,44.5-23.8,66.8
		c-2.8,7.8-9.4,12-16.5,10.8c-9.8-1.6-15-10.6-11.7-20.4c3.7-11.1,7.6-22.1,11.5-33.1c7.4-20.9,14.6-41.9,22.3-62.7
		c3.6-9.8,9.5-18.2,19.7-22.4c3.4-1.4,7.2-2.4,10.8-2.5c18.5-0.3,37-0.4,55.4-0.1c13,0.2,22,7.5,27.7,18.6
		c3.8,7.4,6.6,15.4,9.4,23.2c9.5,26.9,18.8,53.9,28.2,80.9c0.1,0.2,0.3,0.4,0.5,0.6C408.8,198.6,408.8,200.7,408.8,202.9z"/>
	<path class="st0" d="M80.6,216.6c-2.8,0-5.2,0-7.9,0c0,1.8,0,3.3,0,4.9c0,45.8,0,91.5,0,137.3c0,9.9-4.7,16.6-13.1,19.1
		c-10.9,3.1-22.1-4.7-22.8-16c-0.1-1.7-0.1-3.5-0.1-5.2c0-81.6,0-163.1-0.1-244.7c0-2.6,1.4-7-2.9-7c-4.6,0-3.1,4.5-3.1,7.2
		c-0.2,34.5-0.3,68.9-0.4,103.4c0,6.7-1.9,12.4-8.1,15.7c-9.4,5.1-20.8-1.1-22-11.8C0,218.4,0,217.2,0,216
		c0.2-35.5,0.4-71.1,0.6-106.6C0.8,91.1,10.7,78,27.9,73.4c3.5-0.9,7.4-1.2,11-1.2c25-0.1,50-0.1,75,0c23.7,0,38.6,15,38.6,38.7
		c0,35.5,0,71.1-0.1,106.6c0,11.1-9.6,18.4-19.6,15c-5.6-1.9-9.1-5.9-10-11.8c-0.3-2.1-0.4-4.2-0.4-6.4c0-34.1,0.1-68.1,0.1-102.2
		c0-2.7,1.2-6.9-3-7c-4.4-0.1-3.1,4.1-3.1,6.8c0,82.2,0.1,164.5,0.2,246.7c0,10.2-4.6,16.9-13.3,19.4c-10.7,3.1-21.8-4.6-22.7-15.7
		c-0.1-1.7-0.1-3.5-0.1-5.2c0-45.1,0-90.2,0-135.3C80.6,220.2,80.6,218.6,80.6,216.6z"/>
	<path class="st0" d="M202.9,189.3c0,51.5,0,103,0,154.5c0,2.1,0.1,4.3-0.4,6.3c-1.3,5.2-6.2,8.7-11.6,8.4c-5.2-0.2-9.6-4-10.6-9.2
		c-0.3-1.7-0.4-3.4-0.4-5.2c0-103.3,0-206.5,0-309.8c0-1.9,0.1-3.7,0.5-5.5c1.2-5.6,6.3-9.3,12.1-8.8c5.5,0.5,9.9,4.8,10.4,10.4
		c0.1,1.6,0.1,3.2,0.1,4.8C202.9,86.6,202.9,137.9,202.9,189.3z"/>
	<path class="st0" d="M76.5,0c17.2-0.1,31.3,14,31.3,31.1c-0.1,16.9-14,31-31,31.1c-17,0.2-31.3-14.2-31.3-31.2
		C45.5,14,59.4,0.1,76.5,0z"/>
	<path class="st0" d="M284.8,31.7c0.5-17.3,14.6-30.9,31.5-30.3C333.6,2,347.1,16.1,346.5,33c-0.6,17-14.6,30.5-31.3,30.2
		C298,62.8,284.3,48.5,284.8,31.7z"/>
</g>
</svg>
