<?xml version="1.0" encoding="utf-8"?>
<!-- Generator: Adobe Illustrator 25.4.1, SVG Export Plug-In . SVG Version: 6.00 Build 0)  -->
<svg version="1.1" id="Layer_1" xmlns="http://www.w3.org/2000/svg" xmlns:xlink="http://www.w3.org/1999/xlink" x="0px" y="0px"
	 viewBox="0 0 307 374.4" style="enable-background:new 0 0 307 374.4;" xml:space="preserve">
<style type="text/css">
	.st0{fill:#0B4C84;}
</style>
<g>
	<path class="st0" d="M213.5,217c-11.9,12.1-23.4,23.7-34.9,35.4c-7.3,7.4-16.1,11.2-26.6,10.8c-9.2-0.4-16.9-4.1-23.4-10.6
		c-11.5-11.6-23-23.2-34.8-35.1c-1.2,1.1-2.2,2-3.1,2.9C79.9,231.1,69,242,58.1,252.8C46,264.7,30.6,267,16.4,258.7
		c-9.4-5.5-15.2-14-15.7-24.9c-0.6-12.5-1.3-25.3,0.4-37.6c3.4-25.9,24.9-43.1,52.1-43.2c26.2-0.1,52.5,0,78.7,0c1.4,0,2.8,0,4.7,0
		c0-11.5,0-22.6,0-33.8c11.4,0,22.5,0,33.9,0c0,11.1,0,22.1,0,33.6c1.9,0.1,3.4,0.3,4.9,0.3c26.1,0,52.2,0,78.3,0
		c20.3,0,36,8.4,46.6,25.8c4.7,7.8,6.8,16.4,6.9,25.5c0.1,9.9,0.1,19.8-0.4,29.6c-1,17.1-18,31.1-35.1,29.6
		c-9.1-0.8-16.5-4.6-22.8-11C237.1,240.8,225.6,229.2,213.5,217z"/>
	<path class="st0" d="M306.6,278.9c0.1,1.7,0.2,2.9,0.2,4c0,24,0,48.1,0,72.1c0,12.7-6.8,19.3-19.5,19.3c-89.3,0-178.7,0-268,0
		c-9.5,0-16-4.2-18.3-12.1c-0.6-2.1-0.9-4.3-0.9-6.5c-0.1-24.6,0-49.3,0-73.9c0-0.8,0.1-1.6,0.2-2.9c1.4,0.7,2.5,1.3,3.5,1.8
		c16.3,9.4,33.3,10.8,51,4.3c8.2-3,15-8,21.1-14.1c5.6-5.7,11.3-11.5,17.2-17.5c1.2,1.1,2.2,2,3.1,2.9c5.8,5.7,11.4,11.7,17.5,17.2
		c22.5,20.3,57.8,20.1,80-0.5c6.7-6.2,12.6-13.2,19.2-20c6.4,6.5,12.1,12.2,17.8,17.9c11.1,11.2,24.4,17.6,40.3,18.2
		c10.7,0.4,20.8-1.9,30.2-7C302.9,281.1,304.5,280.1,306.6,278.9z"/>
	<path class="st0" d="M153.5,0c0.7,1,1.2,1.7,1.7,2.5c9,15.6,18.1,31.2,27,46.8c8.2,14.4,7,29.5-3.8,41.2
		c-10,10.8-22.4,13.5-36.4,9.1c-11.8-3.7-21.1-15.8-22.3-28.2c-0.7-7.3,0.5-14.1,4.1-20.4c9.5-16.6,19.1-33.1,28.6-49.7
		C152.7,0.9,153,0.6,153.5,0z"/>
</g>
</svg>
