<?xml version="1.0" encoding="utf-8"?>
<!-- Generator: Adobe Illustrator 25.4.1, SVG Export Plug-In . SVG Version: 6.00 Build 0)  -->
<svg version="1.1" id="Layer_1" xmlns="http://www.w3.org/2000/svg" xmlns:xlink="http://www.w3.org/1999/xlink" x="0px" y="0px"
	 viewBox="0 0 336.1 312.2" style="enable-background:new 0 0 336.1 312.2;" xml:space="preserve">
<style type="text/css">
	.st0{fill:#0C4B84;}
</style>
<g>
	<path class="st0" d="M5.2,65.9c0.6-1,2-1,2.6-0.1c0.4,0.6,0.7,1.1,1.1,1.6c14.7,23.2,29.5,46.3,44,69.5
		c7.6,12.2,21.1,19.5,35.5,19.2c10.2-0.2,20.4,0,30.6-0.1c2.3,0,3.4,0.5,4.5,2.7c6.7,13.9,17.9,21.2,33.3,21.3
		c9.6,0.1,19.3,0.5,28.8-0.6c12.6-1.4,21.5-8.9,26.9-20.3c1.2-2.5,2.5-3.1,5-3.1c10.4,0.1,20.8-0.1,31.1,0.1
		c15.1,0.3,26.3-6,34.3-18.8c14.7-23.4,29.5-46.7,44.3-70c0.3-0.5,0.7-1.1,1.1-1.6c0.6-0.9,2-0.9,2.6,0.1c3.6,6,5.1,12.5,5.1,19.4
		c0,43.6,0,87.3,0,130.9c0,18.9,0,37.7,0,56.6c0,21.8-17.7,39.4-39.5,39.4c-86.2,0-172.5,0-258.7,0C15.5,312.2,0,296.8,0,274.3
		c0-62.9,0-125.8,0-188.6C0,78.6,1.5,72,5.2,65.9z"/>
	<path class="st0" d="M307.9,49.1c1.1,0.2,1.7,1.4,1.1,2.4C301,64,293.5,75.9,286,87.8c-7.9,12.5-15.8,24.9-23.6,37.4
		c-3,4.8-7,7.1-12.7,7c-10.9-0.1-21.7-0.1-32.6,0c-2.1,0-3.2-0.4-4.2-2.5c-6.7-14.1-17.9-21.4-33.6-21.5c-9.5-0.1-19.1-0.5-28.4,0.6
		c-12.7,1.4-21.7,9-27.2,20.5c-1.1,2.3-2.3,3-4.7,3c-11.1-0.1-22.2-0.1-33.4-0.1c-4.8,0-8.4-2-11-6c-15.8-24.9-31.6-49.8-47.3-74.7
		l0,0c-0.6-0.9,0-2.2,1.1-2.3c3-0.4,5.8-0.9,8.7-0.9c18.2-0.1,36.5-0.1,54.7-0.1l2.6,0c0.8,0,1.5-0.7,1.6-1.5
		c0.2-5.8,0.1-11.3,1-16.7C99.4,13.2,114,0.4,130.9,0.2c24-0.2,48.1-0.3,72.2,0c20,0.2,36.8,16.8,37,36.8c0,3.1,0,6.2,0,9.5
		c0,0.9,0.7,1.6,1.6,1.6l2.7,0c18.3,0,36.5-0.1,54.7,0.1C301.9,48.2,304.7,48.7,307.9,49.1z M121.6,47.9h92.9c0.9,0,1.5-0.7,1.6-1.5
		c0-3.7,0.1-7.2,0-10.7c-0.3-6.3-5.3-11.4-11.6-11.5c-24.2-0.1-48.5-0.1-72.7,0c-6.2,0-11.2,5-11.6,11.1c-0.2,3.6-0.1,7.2,0,11
		C120.1,47.2,120.8,47.9,121.6,47.9z"/>
	<path class="st0" d="M168.1,156.2c-4,0-8,0.1-12,0c-6.8-0.2-12-5.4-12-11.9c-0.1-6.7,5.2-12,12.2-12.1c7.9-0.1,15.7-0.1,23.6,0
		c7,0.1,12.2,5.4,12.2,12.1c0,6.7-5.3,11.8-12.4,11.9C175.8,156.2,172,156.2,168.1,156.2z"/>
</g>
</svg>
