<?xml version="1.0" encoding="utf-8"?>
<!-- Generator: Adobe Illustrator 25.4.1, SVG Export Plug-In . SVG Version: 6.00 Build 0)  -->
<svg version="1.1" id="Layer_1" xmlns="http://www.w3.org/2000/svg" xmlns:xlink="http://www.w3.org/1999/xlink" x="0px" y="0px"
	 viewBox="0 0 384 346.7" style="enable-background:new 0 0 384 346.7;" xml:space="preserve">
<style type="text/css">
	.st0{fill:#0B4C84;}
</style>
<g>
	<path class="st0" d="M384,18.9c0,77,0,154,0,231c-4.4,15.3-15.1,19-27.6,18.9c-32.5-0.4-65-0.1-97.5-0.1c-78.1,0-156.2,0-234.4,0
		c-6,0-11.3-1.3-16.1-5c-4.6-3.5-6.8-8.5-8.5-13.8c0-77,0-154,0-231C3.8,5,13.8,0,27.5,0C137.7,0.3,247.8,0.1,358,0.1
		c1.5,0,3-0.1,4.5,0c6.6,0.4,12.3,2.9,16.2,8.1C381,11.5,382.2,15.3,384,18.9z"/>
	<path class="st0" d="M132.8,324.2c0-11.2,0-21.9,0-32.8c39.5,0,78.7,0,118.3,0c0,10.7,0,21.5,0,32.8c1.7,0,3.1,0,4.4,0
		c18.6,0,37.2,0,55.9,0c8.6,0,14.1,7.7,11.1,15.3c-1.7,4.3-5.1,6.7-9.7,7.1c-1.2,0.1-2.5,0-3.7,0c-78,0-156,0-233.9,0
		c-1.7,0-3.5,0.1-5.2-0.3c-5.7-1.2-9.6-6.5-9-12.1c0.6-5.8,5.4-10.1,11.5-10.1c18.6-0.1,37.2,0,55.9,0
		C129.6,324.2,130.9,324.2,132.8,324.2z"/>
</g>
</svg>
