<?xml version="1.0" encoding="utf-8"?>
<!-- Generator: Adobe Illustrator 25.4.1, SVG Export Plug-In . SVG Version: 6.00 Build 0)  -->
<svg version="1.1" id="Layer_1" xmlns="http://www.w3.org/2000/svg" xmlns:xlink="http://www.w3.org/1999/xlink" x="0px" y="0px"
	 viewBox="0 0 372.5 372.4" style="enable-background:new 0 0 372.5 372.4;" xml:space="preserve">
<style type="text/css">
	.st0{fill:#0B4C84;}
</style>
<g>
	<path class="st0" d="M186.3,0c103,0.1,186.2,83.4,186.2,186.3c-0.1,102.9-83.5,186.3-186.3,186.1C83,372.3-0.3,288.8,0,185.8
		C0.3,83,83.6-0.1,186.3,0z M186,133.1c-19.5,0-39,0-58.5,0c-10.1,0-14.1,4.4-13.1,14.4c0.7,6.7,1.3,13.4,2,20.1
		c3.5,37.8,7,75.6,10.5,113.4c0.7,7.2,4.6,10.8,11.7,10.8c31.6,0,63.3,0,94.9,0c7.5,0,11.4-3.8,12.1-11.4
		c1.8-21.2,3.8-42.3,5.7-63.5c2.1-23.5,4.3-47,6.2-70.6c0.8-9.3-3.3-13.5-12.6-13.5C225.2,133.1,205.6,133.1,186,133.1z
		 M186.2,125.3c6.6,0,13.3,0,19.9,0c16.6,0,33.3,0,49.9,0c7.2,0,12.2-4.2,12.9-10.5c0.7-7.4-4.5-13.1-12.4-13.2
		c-12.1-0.1-24.3-0.1-36.4,0c-2.3,0-3.3-0.5-4-3.1c-2.5-9.5-8.6-16.1-18.4-17.4c-7.6-1-15.5-1-23.1,0.1c-9.5,1.3-15.5,7.7-18,16.9
		c-0.8,2.9-1.8,3.5-4.5,3.4c-12-0.1-24-0.1-36,0c-7.4,0-12.6,5.1-12.5,12c0.1,6.9,5.3,11.6,12.9,11.6
		C139.7,125.3,163,125.3,186.2,125.3z"/>
	<path class="st0" d="M211.7,247.7c2.1-25.2,4.1-50.3,6.2-75.4c0.4-4.9,3.5-7.7,7.7-7.3c4,0.4,6.6,3.7,6.2,8.3
		c-2.1,25.3-4.4,50.5-6.2,75.8c-0.4,5.1-3.6,8.9-7.8,8.5C213.4,257,211.4,253.9,211.7,247.7z"/>
	<path class="st0" d="M160.9,249.3c-0.1,0.7,0,2.5-0.6,4.1c-1.3,3.1-3.9,4.6-7.3,4c-3.5-0.6-5.5-2.8-5.8-6.4
		c-1-11.4-2-22.9-2.9-34.3c-1.2-13.9-2.3-27.9-3.5-41.8c-0.1-0.6-0.1-1.2-0.2-1.9c-0.2-4.4,2.2-7.6,6.1-8c4.1-0.5,7.3,2.1,7.8,6.8
		c0.6,5.6,0.9,11.2,1.4,16.8C157.5,208.4,159.2,228.3,160.9,249.3z"/>
	<path class="st0" d="M179.4,211c0-13,0-26,0-39c0-3.4,1.5-5.8,4.7-6.9c2.9-1,5.6-0.3,7.4,2.1c1,1.4,1.6,3.4,1.6,5.2
		c0.1,25.9,0.1,51.7,0.1,77.6c0,4.8-2.7,7.6-6.9,7.6c-4.2,0-6.8-2.9-6.9-7.6C179.3,237,179.4,224,179.4,211z"/>
</g>
</svg>
