<?xml version="1.0" encoding="utf-8"?>
<!-- Generator: Adobe Illustrator 25.4.1, SVG Export Plug-In . SVG Version: 6.00 Build 0)  -->
<svg version="1.1" id="Layer_1" xmlns="http://www.w3.org/2000/svg" xmlns:xlink="http://www.w3.org/1999/xlink" x="0px" y="0px"
	 viewBox="0 0 512 512" style="enable-background:new 0 0 512 512;" xml:space="preserve">
<style type="text/css">
	.st0{fill:#1086CE;}
</style>
<path class="st0" d="M240,0c10.7,0,21.3,0,32,0c1.3,0.3,2.6,0.7,3.8,0.8c39.9,3,77.2,14.4,111.2,35.4
	c66.1,40.7,106.8,99.2,121,175.7c1.7,9.3,2.6,18.7,3.9,28.1c0,10.7,0,21.3,0,32c-0.4,3.3-0.9,6.6-1.2,9.8
	c-5.5,50.6-23.8,96.1-56.1,135.4c-40.2,49-91.6,79.4-154,90.7c-9.5,1.7-19.1,2.7-28.6,4c-10.7,0-21.3,0-32,0
	c-6.2-0.8-12.5-1.4-18.7-2.3c-47.2-6.7-89.7-24.7-126.5-55C45.9,414.4,15.4,363,4,300.6c-1.7-9.5-2.7-19.1-4-28.6
	c0-10.7,0-21.3,0-32c0.7-6.1,1.4-12.2,2.2-18.3c7.2-51,27.4-96.1,61.6-134.6c39.8-44.9,89.3-72.9,148.6-83.2
	C221.5,2.3,230.8,1.3,240,0z M148,282.7c2.9,9.2,7.4,16.5,13.5,22.8c10.8,11.3,24.3,17,41.1,18.3c-26,19.3-53.9,27.1-84.8,24.9
	c1.5,1.4,2.9,2.3,4.5,3.2c25.4,14.5,52.6,22.2,81.9,22.4c49,0.2,91.2-16.2,124.3-52.9c29.6-32.9,44.4-71.8,44.4-116.2
	c0-4.1,1.5-6.4,4.4-9.1c7.6-7.2,14.6-15,21.8-22.5c0.8-0.8,1.2-2,1.7-2.9c-10.1,2.8-20,5.4-29.8,8.1c-0.2-0.4-0.5-0.9-0.7-1.3
	c11-7.6,19.1-17.4,23.2-29.5c-10.9,3.8-21.7,7.5-32.5,11.4c-3,1.1-4.8,0.2-7-1.8c-32.6-30.4-86.4-14.6-96.7,28.8
	c-2.1,8.7-1.5,18-2.2,27.5c-47.7-3.4-87.6-23.9-119.4-61.1c-6.5,11.1-8.7,22.6-7.7,34.7c1.6,17.9,10.3,31.9,24.5,42.9
	c-0.3,0.5-0.5,0.9-0.8,1.4c-8-2.3-16.1-4.5-24-6.7c-3.1,22.6,15.7,46.7,44.4,58C164.4,282.7,156.6,282.7,148,282.7z"/>
</svg>
