<?xml version="1.0" encoding="utf-8"?>
<!-- Generator: Adobe Illustrator 25.4.1, SVG Export Plug-In . SVG Version: 6.00 Build 0)  -->
<svg version="1.1" id="Layer_1" xmlns="http://www.w3.org/2000/svg" xmlns:xlink="http://www.w3.org/1999/xlink" x="0px" y="0px"
	 viewBox="0 0 409.6 409.6" style="enable-background:new 0 0 409.6 409.6;" xml:space="preserve">
<style type="text/css">
	.st0{fill:#0B4C84;}
	.st1{fill:#FEFEFE;}
	.st2{fill:#293D7C;}
	.st3{fill:#1086CE;}
	.st4{fill:#445E9F;}
	.st5{fill:#FEAE10;}
	.st6{fill:#011E48;}
	.st7{fill:#0D5991;}
	.st8{fill:#C9E8FD;}
	.st9{fill:#5DC0D7;}
	.st10{fill:#EDF5FE;}
	.st11{fill:#FFFFFF;}
	.st12{fill:#30A6AB;}
	.st13{fill:#4A97CC;}
	.st14{fill:#2E4C88;}
	.st15{fill:none;}
</style>
<path class="st0" d="M409.5,344.1v2.4c-10.4,10.8-7.4,9.6-16.8,0.6c-1.9-1.8-3.8-3.7-5.6-5.6c-1.9-2-3.6-1.8-5.4,0.1
	c-2.6,2.7-5.2,5.3-7.9,7.9c-4,4-4.2,4-6.3-1.5c-2.8-7.4-5.1-15-8.5-22.2c0-0.1,0-0.1-0.1-0.2c-2.8-9.7-6.9-19-10.1-28.6
	c-0.5-1.3-1.8-2.8-0.7-4c1.2-1.3,2.7,0.2,4,0.6c9.9,3.5,19.7,7,29.6,10.5c0.2,0.1,0.5,0.2,0.7,0.3c6.9,2.6,13.8,5.3,20.7,7.9
	c5.8,2.2,5.8,2.1,1.3,6.7c-2.6,2.6-5.2,5.2-7.9,7.9c-1.6,1.6-1.7,3.2,0,4.8C400.8,335.7,405.2,339.9,409.5,344.1z"/>
<path class="st1" d="M358.9,325.4c0,0.1,0,0.1,0.1,0.2C359,325.6,358.9,325.5,358.9,325.4C358.9,325.4,358.9,325.4,358.9,325.4z"/>
<path class="st2" d="M359,325.6c-0.1-0.1-0.1-0.1-0.2-0.2c0,0,0.1,0,0.1,0C359,325.5,359,325.6,359,325.6z"/>
<path class="st3" d="M365.8,95.7c0,0.4-0.1,0.8-0.1,1.2c0,43,0,86,0,129c-4.1,0-8.3-0.2-12.4,0.2c-4,0.4-4.8-1.2-4.8-4.9
	c0.1-49.7,0.1-99.5,0.1-149.2c0-1.6,0.4-3.2-0.5-4.7c-0.5-5.5-4.7-4.5-8.1-4.5c-104.5,0-209.1,0-313.6,0c-0.8,0-1.6,0-2.4,0
	c-4.5,0.2-5.7,1.4-5.7,5.8c0,53.5,0,106.9,0,160.4c0,4.6,1.3,5.9,6,5.9c74.3,0,148.7,0,223,0c0,5.9,0,11.8,0,17.7
	c-76.9,0-153.7,0-230.6,0c-4.9,0-9.8,0-14.8,0H1c0-1.3-0.1-2.7-0.1-4V57.4c0-9.4,2.9-12.3,12.4-12.3c25.1,0,50.2,0,75.3,0
	c1.7,0,3.4-0.2,5.2-0.3c0.4,0,0.9,0.1,1.3,0.1c0,0,0,0,0,0h0c0.9,0.1,1.8,0.1,2.6,0.1c71.6,0,143.2,0,214.8,0c1,0,2-0.1,3-0.2h0
	c0.3,0,0.7-0.1,1-0.1c11.8,0.1,23.6,0.2,35.4,0.3c1.6,0,3.2-0.1,4.8,0.1c6.1,0.7,9,3.7,9,9.9c0.1,11.4,0,22.8,0,34.2
	c0,1.6,0.1,3.2,0.2,4.8C365.9,94.6,365.8,95.2,365.8,95.7z"/>
<path class="st4" d="M247.6,234.5c0,0.1-0.1,0.1-0.2,0.1c0-0.1,0-0.2,0-0.2C247.5,234.4,247.6,234.5,247.6,234.5
	C247.6,234.5,247.6,234.5,247.6,234.5z"/>
<path class="st4" d="M366.1,225.7c0,0,0,0.1-0.1,0.1h-0.2C365.9,225.8,366,225.7,366.1,225.7z"/>
<path class="st5" d="M140.3,305.3c-0.1-0.1-0.3-0.2-0.4-0.4h0.2C140.1,305,140.2,305.2,140.3,305.3z"/>
<path class="st5" d="M140.3,339.7c-0.1,0.1-0.1,0.2-0.2,0.4h-0.3C140,340,140.1,339.8,140.3,339.7z"/>
<path class="st5" d="M226.7,340.1h-0.3c-0.1-0.2-0.2-0.3-0.3-0.4C226.3,339.7,226.5,339.9,226.7,340.1z"/>
<path class="st6" d="M358.9,325.8c-16.8,21.8-37.5,39-61.8,52c-31.5,16.9-65.3,24.7-100.9,22.7c-58.9-3.3-107.1-28.2-144.4-74.1
	c-5.4-6.7-10.4-13.8-14.6-21.3c0.3,0,0.5,0,0.8-0.1c0.4,0,0.8-0.1,1.2-0.1c33.5,0,67.1,0,100.6,0c0,11.7,0,23.4-0.1,35.2
	c-7.2,0-14.4,0.1-21.6,0.1c-4.6,0-9.2-0.1-13.9-0.1c-2.9,0-4.4,1.6-4.4,4.4c-0.1,5-0.1,10,0,15.1c0,2.8,1.5,4.4,4.4,4.4
	c4.6,0,9.2-0.1,13.9-0.1c0.8,0,1.6,0.1,2.4,0.1c46.6,0,93.3,0,139.9,0c0.5,0,1.1,0,1.6,0c3.1-0.1,4.6-1.6,4.6-4.7
	c0-4.4,0-8.8,0-13.2c0-4.9-1.1-6-6.1-6c-11.3,0-22.6,0-33.9,0c0-11.7,0-23.4-0.1-35.1c6.9,0,13.8,0,20.8,0c0,2.3,0,4.5,0.1,6.8
	c0.3,3.9-0.9,7.9,0.8,11.7c0.7,1.9,2.3,2.3,4.1,2.3c4.5-0.1,9-0.1,13.4-0.2c14.9,0,29.7,0.1,44.6,0.1c15.9,0,31.7,0.1,47.6,0.2
	H358.9z"/>
<path class="st0" d="M21.6,304.8c-4.1,0-8.2,0.2-12.3,0.1c-5.1-0.1-8.4-3.3-8.4-8.1c0-14.8,0-29.6,0.1-44.5h1c4.9,0,9.8,0,14.8,0
	v1.1c0,12.8,0.2,25.5-0.1,38.2c-0.1,4.7,0.5,8.8,3.7,12C20.8,304.2,21.2,304.5,21.6,304.8z"/>
<path class="st7" d="M16.8,252.3v1.1c0,12.8,0.2,25.5-0.1,38.2c-0.1,4.7,0.5,8.8,3.7,12c0.4,0.4,0.7,0.7,1.1,1
	c5.2,0.1,10.4,0.1,15.7,0.2c0.3,0,0.5,0,0.8-0.1c0.4,0,0.8-0.1,1.2-0.1c33.5,0,67.1,0,100.6,0h0.2c5.2,0,10.5,0,15.7,0.1
	c23.6,0,47.1,0,70.7,0h0.2c6.9,0,13.8,0,20.8,0v-0.3c0-17.3,0-34.6,0-51.9v-0.3C170.6,252.3,93.7,252.3,16.8,252.3z M183.5,289.8
	c-6.4,0-11.1-4.7-11.1-10.9c0-6.1,5.1-11.5,10.9-11.3c5.9,0.1,11,5.4,11,11.3C194.4,284.9,189.5,289.8,183.5,289.8z"/>
<path class="st2" d="M140.3,305.3c-0.1-0.1-0.3-0.2-0.4-0.4h0.2C140.1,305,140.2,305.2,140.3,305.3z"/>
<path class="st8" d="M382.6,284.9v2c-0.1,5.8-0.1,11.6-0.2,17.4c-0.2-0.1-0.5-0.2-0.7-0.3c-9.8-3.5-19.7-7.1-29.6-10.5
	c-1.3-0.4-2.8-1.9-4-0.6c-1.1,1.2,0.2,2.7,0.7,4c3.3,9.6,7.3,18.8,10.1,28.6c0,0-0.1,0-0.1,0c0,0.1,0.1,0.1,0.2,0.2l-0.1,0.2h-1
	c-15.9-0.1-31.7-0.1-47.6-0.2c-14.8,0-29.7-0.1-44.6-0.1c-0.4-0.3-0.7-0.7-0.9-1c-1.2-1.5-1.5-3.3-1.5-5.4c0.1-28.9,0.1-57.8,0-86.7
	c0-2.6,0.6-4.6,2.4-6.4c25.9,0,51.8-0.2,77.7,0c2.6,0,3.9-0.4,4.4-2.1c0.2-0.6,0.3-1.4,0.3-2.4c-0.1-49.8-0.1-99.7-0.1-149.5
	c0-1.6,0.1-3.2,0.2-4.8c0.9,1.5,0.5,3.1,0.5,4.7c0,49.7,0.1,99.5-0.1,149.2c0,3.7,0.7,5.3,4.8,4.9c4.1-0.4,8.2-0.2,12.4-0.2h0.2
	c3.4,0,6.7,0.1,10.1,0.1c5.5,0,6.4,0.9,6.4,6.5C382.5,249.9,382.5,267.4,382.6,284.9z"/>
<path class="st9" d="M366.1,225.7c0,0,0,0.1-0.1,0.1h-0.2C365.9,225.8,366,225.7,366.1,225.7z"/>
<path class="st9" d="M359,325.6c-0.1-0.1-0.1-0.1-0.2-0.2c0,0,0.1,0,0.1,0C359,325.5,359,325.6,359,325.6z"/>
<path class="st6" d="M316.6,44.8c-0.3,0-0.7,0-1,0.1h0c-1,0.1-2,0.2-3,0.2c-71.6,0-143.2,0-214.8,0c-0.9,0-1.8-0.1-2.6-0.1h0
	c0,0,0,0,0,0c-0.4,0-0.9-0.1-1.3-0.1c11.1-8.4,23.3-14.7,36.1-20.1c26.6-11.2,54.4-16.2,83.2-14.9c37.1,1.6,71.1,12.8,101.9,33.7
	C315.7,43.9,316.1,44.4,316.6,44.8z"/>
<path class="st5" d="M366.1,225.7c0,0,0,0.1-0.1,0.1h-0.2C365.9,225.8,366,225.7,366.1,225.7z"/>
<path class="st6" d="M384.6,283c-0.6,1.3-1.4,2.6-2,3.8v-2c0-17.5-0.1-34.9-0.1-52.4c0-5.6-0.9-6.5-6.4-6.5c-3.4,0-6.7-0.1-10.1-0.1
	c0,0,0.1-0.1,0.1-0.1c-0.1,0-0.2,0.1-0.3,0.1c0-43,0-86,0-129c0-0.4,0-0.8,0.1-1.2c0-0.5,0.1-1.1,0.1-1.6
	c14.8,21,24.8,44.1,30.2,69.2C405,204.4,401,244.3,384.6,283z"/>
<path class="st10" d="M247.6,234.5c0,0-0.1,0-0.1-0.1c0,0.1,0,0.2,0,0.2C247.5,234.6,247.5,234.6,247.6,234.5
	C247.6,234.5,247.6,234.5,247.6,234.5z M329.8,180.6c-11-0.2-22-0.2-33,0c-3.2,0-5.8,3.3-5.7,6.1c0.1,3.5,2.4,5.7,6.3,5.8
	c5.3,0.1,10.6,0,15.9,0c5.3,0,10.6,0,15.9,0c3.4,0,5.9-2.3,6.2-5.4C335.5,183.7,333.3,180.6,329.8,180.6z M328.9,198.8
	c-5.2,0-10.4,0-15.6,0c-5.2,0-10.4,0-15.5,0c-3.9,0-6.7,2.4-6.8,5.8c-0.1,3.1,2.9,6.1,6.6,6.1c10.5,0.1,21,0.1,31.5,0
	c3.8,0,6.3-2.8,6.1-6.3C335.2,201.1,332.7,198.9,328.9,198.8z M281.3,180.6c-8.6-0.2-17.2-0.2-25.8,0c-3.5,0.1-5.8,3.1-5.5,6.4
	c0.2,3.1,2.7,5.4,6.1,5.4c4.1,0.1,8.2,0,12.3,0c4.1,0,8.2,0.1,12.3,0c3.9-0.1,6.3-2.1,6.6-5.5C287.5,184.2,284.6,180.7,281.3,180.6z
	 M287.2,204.4c-0.3-3.4-2.7-5.5-6.6-5.5c-4.1-0.1-8.2,0-12.3,0s-8.2,0-12.3,0c-3.4,0-5.9,2.3-6.1,5.4c-0.2,3.3,2,6.4,5.5,6.5
	c8.6,0.2,17.2,0.2,25.8,0C284.6,210.6,287.5,207.1,287.2,204.4z M239,180.5c-11-0.1-22-0.1-33,0c-3.9,0-6.4,2.6-6.3,6.1
	c0.1,3.5,2.6,5.8,6.6,5.8c5.4,0,10.9,0,16.3,0s10.9,0,16.3,0c4.3,0,7.1-2.5,7-6C245.8,183.4,242.7,180.5,239,180.5z M238.7,198.8
	c-5.4,0-10.9,0-16.3,0s-10.9,0-16.3,0c-3.8,0-6.3,2.2-6.5,5.5c-0.2,3.5,2.2,6.4,6,6.4c11.1,0.1,22.3,0.1,33.4,0c3.7,0,6.8-3,6.8-6
	C245.8,201.2,243,198.9,238.7,198.8z"/>
<path class="st11" d="M348.1,72c0-1.6,0.1-3.2,0.2-4.8c-0.5-5.5-4.7-4.5-8.1-4.5c-104.5,0-209.1,0-313.6,0c-0.8,0-1.6,0-2.4,0
	c-4.5,0.2-5.7,1.4-5.7,5.8c0,53.5,0,106.9,0,160.4c0,4.6,1.3,5.9,6,5.9c74.3,0,148.7,0,223,0c0-0.1,0-0.2,0-0.2
	c0.3-2-0.6-4.3,0.8-6.2c0.7-1.9,2.3-2.3,4.1-2.3c4.1,0.1,8.2,0.1,12.4,0.1c0.4,0,0.7,0,1,0c25.9,0,51.8-0.2,77.7,0
	c2.6,0,3.9-0.4,4.4-2.1c0.2-0.6,0.3-1.4,0.3-2.4C348,171.6,348.1,121.8,348.1,72z M324.9,76.7c7.1,0,7.4,0.4,7.4,8.7
	c0,8-0.1,8.1-8.8,8.1c-7.5,0-8-0.5-8-8.7C315.6,77.1,316,76.7,324.9,76.7z M293.3,82.4c-0.3-2.4,0.4-4.7,3.1-5.4
	c1.8-0.4,3.7-0.3,5.5-0.4c1.7,0.1,3.5,0,5.1,0.4c2.5,0.6,3.3,2.7,2.9,4.9c-0.6,3.8,2.4,8.9-2.6,11.1c-3.4,1.5-7.9,1.4-11.3,0
	C291.2,91.1,293.7,86.1,293.3,82.4z M271.8,78.5c0.4-1.1,1.7-1.5,3-1.8c10.9-1.9,13-0.1,12.8,10.8c-0.1,4.9-1,5.9-5.8,5.9
	c-0.9,0-1.9,0-3.1,0c-2.3-0.3-5.9,1.1-7.1-2.2C270.2,87.2,270.2,82.7,271.8,78.5z M162.9,82.1c0.1-4.1,1.3-5.4,5.5-5.4
	c1.8,0,3.7,0.1,5.6,0.1c2.9,0,5.8-0.1,8.7-0.1c3.2,0,4.9,1.5,4.9,4.8v15.1c0,3.3-1.7,4.8-4.9,4.8c-2.9,0-5.8-0.1-8.7-0.1
	c-11.1,0.5-11.1,0.5-11.1-10.5C162.9,88,162.9,85,162.9,82.1z M170.8,168.4c-0.1-3.5,1.9-5.6,5.1-6.1c3.2-0.4,5.5,1.3,6.4,4.7
	c0.4,1.6,0.5,3.1,0.5,4.9c0.1,1.5-0.1,3.2-0.6,4.9c-0.9,3.1-3,4.7-6.2,4.3c-3.1-0.4-5-2.4-5.1-5.6
	C170.7,173.2,170.8,170.8,170.8,168.4z M182.2,149.5c-1,3.3-3.2,5-6.5,4.5c-3.1-0.5-4.8-2.6-4.9-5.8c0-1.2,0-2.4,0-3.6h0v-2
	c0.1-4.7,2.3-7.6,5.7-7.6c3.4,0,6,3,6.2,7.4C182.8,144.8,182.9,147.2,182.2,149.5z M181.9,123.4c-1.1,2.7-3.2,3.9-6,3.5
	c-2.8-0.4-4.7-2.1-5-4.9c-0.3-2.6-0.1-5.3-0.1-8c0-3.5,2-5.6,5.2-6c3.2-0.4,5.5,1.4,6.4,4.7c0.4,1.6,0.4,3.1,0.5,5
	C183,119.5,182.6,121.5,181.9,123.4z M149.5,85.5c1.1,0,2.1,0,3.2,0c4,0.2,6.4,2.6,6.3,6.1c-0.1,3.3-2.5,5.6-6.2,5.8
	c-1,0.1-2.1,0-3.2,0c-6.5,0-9.4-1.8-9.4-5.9C140.1,87.4,143.1,85.5,149.5,85.5z M119,85.5c1.2-0.1,2.4,0,3.6,0v0c1.3,0,2.7-0.2,4,0
	c3.1,0.6,5.3,2.3,5.3,5.9c0,3.6-2.2,5.4-5.3,5.9c-2.5,0.4-5,0.2-7.5,0.1c-3.5-0.2-6.1-2.9-6-6.1C113.2,88.2,115.6,85.8,119,85.5z
	 M92.1,85.5c1-0.1,2.1,0,3.2,0v0.1c1.5,0,3-0.3,4.4,0.1c3.1,0.7,5.2,2.5,5.1,6.1c-0.1,3.4-2.2,5.1-5.2,5.6c-2.5,0.4-5,0.2-7.5,0.1
	c-3.6-0.2-6.2-2.8-6.1-6C85.9,88.2,88.5,85.7,92.1,85.5z M65.1,85.5c2-0.1,4-0.1,6,0c4,0.2,6.5,2.5,6.5,6c0,3.5-2.5,5.8-6.5,6
	c-1.1,0.1-2.1,0-3.2,0c-0.9,0-1.9,0-2.8,0c-3.8-0.2-6.5-2.8-6.3-6.2C58.9,88,61.5,85.7,65.1,85.5z M55.2,208.3c0,3.3-1.8,4.8-5,4.8
	c-2.9,0-5.8,0-8.7-0.1c-11.1,0.5-11.1,0.5-11.1-10.5c0-2.9,0.1-5.8,0-8.8c-0.1-3.6,1.5-5.5,5.2-5.4c2,0.1,4,0.1,6,0.1
	c2.9,0,5.8,0,8.7-0.1c3.2,0,4.9,1.5,4.9,4.8C55.2,198.2,55.2,203.3,55.2,208.3z M35.1,117.3v-1.2c0-5.1,2-8,5.5-8.2
	c3.7-0.2,6.3,3,6.4,8c0.1,2.2,0.1,4.5-0.6,6.7c-1,3.1-3.1,4.7-6.3,4.3c-3.1-0.4-4.9-2.4-5.1-5.7C35.1,119.9,35.1,118.6,35.1,117.3
	L35.1,117.3z M41,135c3.6,0.1,6,3.1,6.1,7.9c0,2.1,0.1,4.2-0.5,6.3c-0.9,3.3-2.9,5.2-6.3,4.7c-3.3-0.4-5.1-2.5-5.2-6
	c0-1.2,0-2.4,0-3.6c0,0,0,0,0,0v-1.6C35.1,138,37.4,135,41,135z M35.1,168.4c-0.1-3.5,1.9-5.7,5.1-6.1c3.2-0.4,5.5,1.3,6.4,4.6
	c0.4,1.6,0.5,3.1,0.5,4.9c0.1,1.5-0.1,3.2-0.6,4.9c-0.9,3.1-3,4.8-6.2,4.4c-3.1-0.4-5-2.3-5.1-5.6C35,173.2,35.2,170.8,35.1,168.4z
	 M55.2,98.2c0,3.3-1.7,4.9-4.9,4.8c-2.9,0-5.8-0.1-8.7-0.1c-11.1,0.5-11.1,0.5-11.1-10.5c0-2.9,0-5.8,0-8.8c0.1-4.1,1.3-5.4,5.5-5.4
	c1.9,0,3.7,0.1,5.6,0.1c2.9,0,5.8-0.1,8.7-0.1c3.2,0,4.9,1.5,4.9,4.8C55.2,88.2,55.2,93.2,55.2,98.2z M71.2,206
	c-1.1,0.1-2.1,0-3.2,0c-6.4,0-9.3-1.9-9.3-6c0-4.1,2.9-5.9,9.4-5.9c1.1,0,2.1-0.1,3.2,0c3.8,0.2,6.2,2.5,6.2,5.8
	C77.7,203.4,75.2,205.7,71.2,206z M98.2,206c-1.1,0-2.1,0-3.2,0c-0.9,0-1.8,0-2.8,0c-3.8-0.2-6.5-2.8-6.4-6.2
	c0.1-3.3,2.7-5.6,6.3-5.8c2-0.1,4-0.1,5.9,0c4.1,0.2,6.5,2.5,6.5,6C104.7,203.5,102.3,205.8,98.2,206z M125.5,206
	c-1.1,0.1-2.1,0-3.2,0c-6.4,0-9.3-1.9-9.3-6c0-4.1,2.9-5.9,9.4-5.9c1.1,0,2.1-0.1,3.2,0c3.8,0.2,6.2,2.5,6.2,5.8
	C131.9,203.4,129.5,205.7,125.5,206z M153.7,205.9c-2.5,0.4-5,0.2-7.5,0.1c-3.4-0.2-5.8-2.6-5.9-5.8c-0.1-3.2,2.4-5.9,6-6.1
	c1.2-0.1,2.4,0,3.6,0v0c1.3,0,2.7-0.2,4,0c3.1,0.6,5.3,2.3,5.3,5.9C159,203.6,156.8,205.4,153.7,205.9z M160.6,179.5
	c0,2.8-1.4,4.2-4,4.5c-1.2,0.2-2.4,0.3-3.6,0.3c-29.6,0.1-59.3,0.1-88.9,0.2c-1.4,0-2.9,0.4-4.2-0.6h0c-2.3-0.6-3-2.3-3-4.5
	c0-22.4,0-44.8,0-67.1c0-2.2,0.7-3.9,3-4.5c1.3-1.1,2.8-0.7,4.2-0.7c29.6,0,59.3,0.1,88.9,0.2c1.2,0,2.4,0.1,3.6,0.3
	c2.6,0.4,4,1.8,4,4.5C160.5,134.5,160.5,157,160.6,179.5z M187.7,208.3c0,3.3-1.8,4.8-5,4.8c-2.9,0-5.8,0-8.7-0.1
	c-11.1,0.5-11.1,0.5-11.1-10.5c0-2.9,0.1-5.8,0-8.8c-0.1-3.6,1.5-5.5,5.2-5.4c2,0.1,4,0.1,6,0.1c2.9,0,5.8,0,8.7-0.1
	c3.2,0,4.9,1.5,4.9,4.8C187.7,198.2,187.7,203.3,187.7,208.3z M239,210.7c-11.1,0.1-22.3,0.1-33.4,0c-3.8,0-6.2-2.9-6-6.4
	c0.2-3.3,2.7-5.5,6.5-5.5c5.4,0,10.9,0,16.3,0s10.9,0,16.3,0c4.3,0,7.1,2.3,7.1,5.9C245.8,207.7,242.8,210.7,239,210.7z
	 M238.8,192.4c-5.4,0-10.9,0-16.3,0s-10.9,0-16.3,0c-4,0-6.5-2.3-6.6-5.8c-0.1-3.5,2.4-6.1,6.3-6.1c11-0.1,22-0.1,33,0
	c3.8,0,6.8,2.9,6.9,6C245.9,190,243.1,192.4,238.8,192.4z M229.1,169.5c-7.6,0-15.1,0.2-22.7,0.3c-1.3,0-2.7,0.3-3.9-0.4
	c-2.6-0.1-3.8-1.6-3.8-4.1c0-19.2,0-38.4,0-57.6c0-2.5,1.2-4,3.8-4c3.9-1,7.9-0.5,11.9-0.4c37.1,0.7,74.1,0.1,111.2,0.3
	c7.1,0,7.4,0.4,7.4,7.4c0,17.3,0,34.5,0,51.8c0,6-0.7,6.6-6.7,6.6C294,169.5,261.6,169.5,229.1,169.5z M281.3,210.7
	c-8.6,0.2-17.2,0.2-25.8,0c-3.5-0.1-5.8-3.1-5.5-6.5c0.2-3.1,2.7-5.3,6.1-5.4c4.1-0.1,8.2,0,12.3,0s8.2-0.1,12.3,0
	c3.9,0.1,6.3,2.2,6.6,5.5C287.5,207.1,284.6,210.6,281.3,210.7z M287.2,186.9c-0.3,3.4-2.7,5.5-6.6,5.5c-4.1,0.1-8.2,0-12.3,0
	c-4.1,0-8.2,0-12.3,0c-3.4,0-5.9-2.3-6.1-5.4c-0.2-3.3,2-6.3,5.5-6.4c8.6-0.2,17.2-0.2,25.8,0C284.6,180.7,287.5,184.2,287.2,186.9z
	 M329.2,210.7c-10.5,0.1-21,0.1-31.5,0c-3.7,0-6.7-3-6.6-6.1c0.1-3.4,2.8-5.8,6.8-5.8c5.2,0,10.4,0,15.5,0c5.2,0,10.4,0,15.6,0
	c3.8,0,6.2,2.3,6.4,5.6C335.5,207.9,333,210.7,329.2,210.7z M335.3,187c-0.2,3.1-2.7,5.3-6.2,5.4c-5.3,0.1-10.6,0-15.9,0
	c-5.3,0-10.6,0.1-15.9,0c-3.9-0.1-6.1-2.2-6.3-5.8c-0.1-2.8,2.5-6,5.7-6.1c11-0.2,22-0.2,33,0C333.3,180.6,335.5,183.7,335.3,187z"
	/>
<path class="st12" d="M247.6,234.5c0,0.1-0.1,0.1-0.2,0.1c0-0.1,0-0.2,0-0.2C247.5,234.4,247.6,234.5,247.6,234.5
	C247.6,234.5,247.6,234.5,247.6,234.5z"/>
<path class="st7" d="M266.7,359.3c0,3.1-1.6,4.6-4.6,4.7c-0.5,0-1.1,0-1.6,0c-46.6,0-93.3,0-139.9,0c-0.8,0-1.6-0.1-2.4-0.1
	c-0.4-0.3-0.7-0.7-1-1.1c-1.2-1.6-1.6-3.5-1.5-5.6c0.2-3.4,0.2-6.8,0-10.2c-0.1-2.2,0.3-4,1.5-5.6c0.3-0.4,0.6-0.7,1-1.1
	c7.2,0,14.4-0.1,21.6-0.1h0.3c5.2,0,10.4,0,15.7,0h70.6c0,0,0,0,0,0h0.3c11.3,0,22.6,0,33.9,0c5,0,6.1,1.1,6.1,6
	C266.7,350.5,266.7,354.9,266.7,359.3z"/>
<path class="st3" d="M226.7,340c-0.2-0.2-0.4-0.3-0.5-0.4c0.1,0.2,0.2,0.3,0.2,0.4h-70.6v-1.1c0-10.9,0-21.8,0-32.7V305
	c23.6,0,47.1,0,70.7,0h0.2C226.7,316.7,226.7,328.3,226.7,340L226.7,340z"/>
<polygon class="st3" points="226.7,340 226.7,340.1 226.7,340 "/>
<path class="st2" d="M140.3,339.7c-0.1,0.1-0.1,0.2-0.2,0.4h-0.3C140,340,140.1,339.8,140.3,339.7z"/>
<path class="st2" d="M226.7,340.1h-0.3c-0.1-0.2-0.2-0.3-0.3-0.4C226.3,339.7,226.5,339.9,226.7,340.1z"/>
<path class="st4" d="M226.7,340.1h-0.3c-0.1-0.2-0.2-0.3-0.3-0.4C226.3,339.7,226.5,339.9,226.7,340.1z"/>
<path class="st13" d="M265.8,325.5c-4.5,0.1-9,0.1-13.4,0.2c-1.8,0-3.4-0.4-4.1-2.3c-1.7-3.8-0.4-7.8-0.8-11.7
	c-0.2-2.2-0.1-4.5-0.1-6.8v-0.3c0-17.3,0-34.6,0-51.9v-0.3c0-5.9,0-11.8,0-17.7c0.1,0,0.1-0.1,0.2-0.1c0,0,0,0,0,0
	c0,0-0.1,0-0.1-0.1c0.3-2-0.6-4.3,0.8-6.2c0.7-1.9,2.3-2.3,4.1-2.3c4.1,0.1,8.2,0.1,12.4,0.1c0.4,0,0.7,0,1,0
	c-1.8,1.8-2.4,3.8-2.4,6.4c0.1,28.9,0.1,57.8,0,86.7c0,2.1,0.3,3.9,1.5,5.4C265.2,324.9,265.5,325.2,265.8,325.5z"/>
<path class="st0" d="M155.8,338.9v1.1c-5.2,0-10.4,0-15.7,0c0.1-0.1,0.2-0.2,0.2-0.4c-0.2,0.1-0.4,0.2-0.5,0.4
	c0-11.7,0.1-23.4,0.1-35.2c0.1,0.1,0.3,0.2,0.4,0.4c-0.1-0.1-0.1-0.2-0.2-0.4c5.2,0,10.5,0,15.7,0.1v1.2
	C155.8,317.1,155.8,328,155.8,338.9z"/>
<path class="st14" d="M140.3,305.3c-0.1-0.1-0.3-0.2-0.4-0.4h0.2C140.1,305,140.2,305.2,140.3,305.3z"/>
<path class="st14" d="M140.3,339.7c-0.1,0.1-0.1,0.2-0.2,0.4h-0.3C140,340,140.1,339.8,140.3,339.7z"/>
<path class="st0" d="M117.2,362.8c0.3,0.4,0.6,0.7,1,1.1c-4.6,0-9.3,0.1-13.9,0.1c-2.9,0-4.4-1.6-4.4-4.4c-0.1-5-0.1-10.1,0-15.1
	c0-2.8,1.5-4.4,4.4-4.4c4.6,0,9.2,0.1,13.9,0.1c-0.4,0.4-0.7,0.7-1,1.1c-1.2,1.6-1.6,3.5-1.5,5.6c0.2,3.4,0.2,6.9,0,10.2
	C115.6,359.4,116,361.2,117.2,362.8z"/>
<path class="st3" d="M194.4,278.9c0,6-4.9,10.9-10.9,10.9c-6.4,0-11.1-4.7-11.1-10.9c0-6.1,5.1-11.5,10.9-11.3
	C189.3,267.7,194.4,273,194.4,278.9z"/>
<path class="st8" d="M333.1,111.1c0,17.3,0,34.5,0,51.8c0,6-0.7,6.6-6.7,6.6c-32.4,0-64.8,0-97.3,0c-7.6,0-15.1,0.2-22.7,0.3
	c-1.3,0-2.7,0.3-3.9-0.4h12.7v-65.7h-12.6c3.9-1,7.9-0.5,11.9-0.4c37.1,0.7,74.1,0.1,111.2,0.3C332.7,103.7,333.1,104,333.1,111.1z"
	/>
<path class="st8" d="M160.6,112c0,22.5,0,44.9,0,67.4c0,2.8-1.4,4.2-4,4.5c-1.2,0.2-2.4,0.3-3.6,0.3c-29.6,0.1-59.3,0.1-88.9,0.2
	c-1.4,0-2.9,0.4-4.2-0.6h13.4v-76.1H59.8c1.3-1.1,2.8-0.7,4.2-0.7c29.6,0,59.3,0.1,88.9,0.2c1.2,0,2.4,0.1,3.6,0.3
	C159.1,107.9,160.6,109.3,160.6,112z"/>
<path class="st13" d="M73.2,107.7v76.1H59.8c-2.3-0.6-3-2.3-3-4.5c0-22.4,0-44.8,0-67.1c0-2.2,0.7-3.9,3-4.5H73.2z"/>
<path class="st13" d="M215.2,103.7v65.7h-12.7c-2.6-0.1-3.8-1.6-3.8-4.1c0-19.2,0-38.4,0-57.6c0-2.5,1.2-4,3.8-4H215.2z"/>
<path class="st13" d="M245.8,186.5c0,3.5-2.7,5.9-7,6c-5.4,0-10.9,0-16.3,0s-10.9,0-16.3,0c-4,0-6.5-2.3-6.6-5.8
	c-0.1-3.5,2.4-6.1,6.3-6.1c11-0.1,22-0.1,33,0C242.7,180.5,245.8,183.4,245.8,186.5z"/>
<path class="st13" d="M245.8,204.7c0,3-3,6-6.8,6c-11.1,0.1-22.3,0.1-33.4,0c-3.8,0-6.2-2.9-6-6.4c0.2-3.3,2.7-5.5,6.5-5.5
	c5.4,0,10.9,0,16.3,0s10.9,0,16.3,0C243,198.9,245.8,201.2,245.8,204.7z"/>
<path class="st13" d="M335.3,187c-0.2,3.1-2.7,5.3-6.2,5.4c-5.3,0.1-10.6,0-15.9,0c-5.3,0-10.6,0.1-15.9,0c-3.9-0.1-6.1-2.2-6.3-5.8
	c-0.1-2.8,2.5-6,5.7-6.1c11-0.2,22-0.2,33,0C333.3,180.6,335.5,183.7,335.3,187z"/>
<path class="st13" d="M335.3,204.4c0.2,3.5-2.3,6.3-6.1,6.3c-10.5,0.1-21,0.1-31.5,0c-3.7,0-6.7-3-6.6-6.1c0.1-3.4,2.8-5.8,6.8-5.8
	c5.2,0,10.4,0,15.5,0c5.2,0,10.4,0,15.6,0C332.7,198.9,335.2,201.1,335.3,204.4z"/>
<path class="st13" d="M281.3,210.7c-8.6,0.2-17.2,0.2-25.8,0c-3.5-0.1-5.8-3.1-5.5-6.5c0.2-3.1,2.7-5.3,6.1-5.4
	c4.1-0.1,8.2,0,12.3,0s8.2-0.1,12.3,0c3.9,0.1,6.3,2.2,6.6,5.5C287.5,207.1,284.6,210.6,281.3,210.7z"/>
<path class="st13" d="M287.2,186.9c-0.3,3.4-2.7,5.5-6.6,5.5c-4.1,0.1-8.2,0-12.3,0c-4.1,0-8.2,0-12.3,0c-3.4,0-5.9-2.3-6.1-5.4
	c-0.2-3.3,2-6.3,5.5-6.4c8.6-0.2,17.2-0.2,25.8,0C284.6,180.7,287.5,184.2,287.2,186.9z"/>
<path class="st8" d="M55.2,83.1c0,5,0,10.1,0,15.1c0,3.3-1.7,4.9-4.9,4.8c-2.9,0-5.8-0.1-8.7-0.1c-1.9-1.9-2.5-4.1-2.4-6.8
	c0.2-3.7,0.2-7.4,0-11c-0.2-2.7,0.5-4.9,2.4-6.8c2.9,0,5.8-0.1,8.7-0.1C53.5,78.3,55.2,79.8,55.2,83.1z"/>
<path class="st8" d="M187.7,81.5v15.1c0,3.3-1.7,4.8-4.9,4.8c-2.9,0-5.8-0.1-8.7-0.1c-1.9-1.9-2.5-4.1-2.4-6.7c0.2-3.7,0.2-7.4,0-11
	c-0.2-2.7,0.5-4.9,2.4-6.8c2.9,0,5.8-0.1,8.7-0.1C186,76.7,187.7,78.2,187.7,81.5z"/>
<path class="st8" d="M55.2,193.2c0,5,0,10,0,15.1c0,3.3-1.8,4.8-5,4.8c-2.9,0-5.8,0-8.7-0.1c-1.9-2.1-2.5-4.5-2.4-7.4
	c0.2-3.5,0.2-6.9,0-10.4c-0.2-2.7,0.5-4.9,2.4-6.8c2.9,0,5.8,0,8.7-0.1C53.5,188.4,55.2,189.9,55.2,193.2z"/>
<path class="st8" d="M187.7,208.3c0,3.3-1.8,4.8-5,4.8c-2.9,0-5.8,0-8.7-0.1c-1.8-2.1-2.5-4.5-2.3-7.4c0.2-3.5,0.2-6.9,0-10.4
	c-0.2-2.7,0.5-4.9,2.4-6.8c2.9,0,5.8,0,8.7-0.1c3.2,0,4.9,1.5,4.9,4.8C187.7,198.2,187.7,203.3,187.7,208.3z"/>
<path class="st13" d="M332.3,85.5c0,8-0.1,8.1-8.8,8.1c-7.5,0-8-0.5-8-8.7c0-7.8,0.4-8.1,9.3-8.1C332,76.8,332.3,77.2,332.3,85.5z"
	/>
<path class="st13" d="M307.3,93c-3.4,1.5-7.9,1.4-11.3,0c-4.8-2-2.3-7-2.8-10.7c-0.3-2.4,0.4-4.7,3.1-5.4c1.8-0.4,3.7-0.3,5.5-0.4
	c1.7,0.1,3.5,0,5.1,0.4c2.5,0.6,3.3,2.7,2.9,4.9C309.3,85.7,312.3,90.9,307.3,93z"/>
<path class="st13" d="M287.6,87.6c-0.1,4.9-1,5.9-5.8,5.9c-0.9,0-1.9,0-3.1,0c-2.3-0.3-5.9,1.1-7.1-2.2c-1.5-4.1-1.5-8.6,0.2-12.8
	c0.4-1.1,1.7-1.5,3-1.8C285.7,74.9,287.8,76.7,287.6,87.6z"/>
<path class="st13" d="M41.5,213c-11.1,0.5-11.1,0.5-11.1-10.5c0-2.9,0.1-5.8,0-8.8c-0.1-3.6,1.5-5.5,5.2-5.4c2,0.1,4,0.1,6,0.1
	c-1.9,1.9-2.6,4.1-2.4,6.8c0.2,3.5,0.2,6.9,0,10.4C39,208.5,39.7,210.9,41.5,213z"/>
<path class="st13" d="M174,213c-11.1,0.5-11.1,0.5-11.1-10.5c0-2.9,0.1-5.8,0-8.8c-0.1-3.6,1.5-5.5,5.2-5.4c2,0.1,4,0.1,6,0.1
	c-1.9,1.9-2.6,4.1-2.4,6.8c0.2,3.5,0.2,6.9,0,10.4C171.5,208.5,172.2,210.9,174,213z"/>
<path class="st13" d="M41.5,102.9c-11.1,0.5-11.1,0.5-11.1-10.5c0-2.9,0-5.8,0-8.8c0.1-4.1,1.3-5.4,5.5-5.4c1.9,0,3.7,0.1,5.6,0.1
	c-1.9,1.9-2.5,4.1-2.4,6.8c0.2,3.7,0.2,7.4,0,11C39,98.9,39.6,101.1,41.5,102.9z"/>
<path class="st13" d="M174,101.3c-11.1,0.5-11.1,0.5-11.1-10.5c0-2.9,0-5.8,0-8.8c0.1-4.1,1.3-5.4,5.5-5.4c1.8,0,3.7,0.1,5.6,0.1
	c-1.9,1.9-2.5,4.1-2.4,6.8c0.2,3.7,0.2,7.4,0,11C171.5,97.3,172.1,99.5,174,101.3z"/>
<path class="st8" d="M46.6,149.3c-0.9,3.3-2.9,5.2-6.3,4.7c-3.3-0.4-5.1-2.5-5.2-6c0-1.2,0-2.4,0-3.6c0,0,0,0,0,0v-1.6
	c0-4.9,2.3-7.9,5.9-7.9c3.6,0.1,6,3.1,6.1,7.9C47.1,145.1,47.2,147.2,46.6,149.3z"/>
<path class="st8" d="M182.2,176.8c-0.9,3.1-3,4.7-6.2,4.3c-3.1-0.4-5-2.4-5.1-5.6c-0.1-2.4,0-4.8-0.1-7.2c-0.1-3.5,1.9-5.6,5.1-6.1
	c3.2-0.4,5.5,1.3,6.4,4.7c0.4,1.6,0.5,3.1,0.5,4.9C182.8,173.5,182.7,175.2,182.2,176.8z"/>
<path class="st8" d="M181.9,123.4c-1.1,2.7-3.2,3.9-6,3.5c-2.8-0.4-4.7-2.1-5-4.9c-0.3-2.6-0.1-5.3-0.1-8c0-3.5,2-5.6,5.2-6
	c3.2-0.4,5.5,1.4,6.4,4.7c0.4,1.6,0.4,3.1,0.5,5C183,119.5,182.6,121.5,181.9,123.4z"/>
<path class="st8" d="M46.5,122.6c-1,3.1-3.1,4.7-6.3,4.3c-3.1-0.4-4.9-2.4-5.1-5.7c-0.1-1.3,0-2.7,0-4h0v-1.2c0-5.1,2-8,5.5-8.2
	c3.7-0.2,6.3,3,6.4,8C47.1,118.2,47.2,120.4,46.5,122.6z"/>
<path class="st8" d="M46.5,176.8c-0.9,3.1-3,4.8-6.2,4.4c-3.1-0.4-5-2.3-5.1-5.6c-0.1-2.4,0-4.8,0-7.2c-0.1-3.5,1.9-5.7,5.1-6.1
	c3.2-0.4,5.5,1.3,6.4,4.6c0.4,1.6,0.5,3.1,0.5,4.9C47.2,173.4,47,175.1,46.5,176.8z"/>
<path class="st8" d="M182.2,149.5c-1,3.3-3.2,5-6.5,4.5c-3.1-0.5-4.8-2.6-4.9-5.8c0-1.2,0-2.4,0-3.6h0v-2c0.1-4.7,2.3-7.6,5.7-7.6
	c3.4,0,6,3,6.2,7.4C182.8,144.8,182.9,147.2,182.2,149.5z"/>
<path class="st8" d="M77.6,199.9c0.1,3.5-2.4,5.9-6.3,6.1c-1.1,0.1-2.1,0-3.2,0c-6.4,0-9.3-1.9-9.3-6c0-4.1,2.9-5.9,9.4-5.9
	c1.1,0,2.1-0.1,3.2,0C75.1,194.3,77.5,196.5,77.6,199.9z"/>
<path class="st8" d="M104.7,200c0,3.5-2.4,5.8-6.5,6c-1.1,0-2.1,0-3.2,0c-0.9,0-1.8,0-2.8,0c-3.8-0.2-6.5-2.8-6.4-6.2
	c0.1-3.3,2.7-5.6,6.3-5.8c2-0.1,4-0.1,5.9,0C102.3,194.2,104.7,196.5,104.7,200z"/>
<path class="st8" d="M131.8,199.9c0.1,3.5-2.3,5.9-6.3,6.1c-1.1,0.1-2.1,0-3.2,0c-6.4,0-9.3-1.9-9.3-6c0-4.1,2.9-5.9,9.4-5.9
	c1.1,0,2.1-0.1,3.2,0C129.4,194.3,131.8,196.5,131.8,199.9z"/>
<path class="st8" d="M159,200c0,3.6-2.2,5.4-5.3,5.8c-2.5,0.4-5,0.2-7.5,0.1c-3.4-0.2-5.8-2.6-5.9-5.8c-0.1-3.2,2.4-5.9,6-6.1
	c1.2-0.1,2.4,0,3.6,0v0c1.3,0,2.7-0.2,4,0C156.8,194.8,159,196.5,159,200z"/>
<path class="st8" d="M159,91.6c-0.1,3.3-2.5,5.6-6.2,5.8c-1,0.1-2.1,0-3.2,0c-6.5,0-9.4-1.8-9.4-5.9c0-4.1,2.9-6,9.3-6.1
	c1.1,0,2.1,0,3.2,0C156.6,85.7,159,88.1,159,91.6z"/>
<path class="st8" d="M131.9,91.5c0,3.6-2.2,5.4-5.3,5.9c-2.5,0.4-5,0.2-7.5,0.1c-3.5-0.2-6.1-2.9-6-6.1c0.1-3.1,2.5-5.5,5.9-5.8
	c1.2-0.1,2.4,0,3.6,0v0c1.3,0,2.7-0.2,4,0C129.7,86.2,131.8,87.9,131.9,91.5z"/>
<path class="st8" d="M104.7,91.7c-0.1,3.4-2.2,5.1-5.2,5.6c-2.5,0.4-5,0.2-7.5,0.1c-3.6-0.2-6.2-2.8-6.1-6c0-3.2,2.6-5.7,6.2-5.9
	c1-0.1,2.1,0,3.2,0v0.1c1.5,0,3-0.3,4.4,0.1C102.8,86.4,104.8,88.2,104.7,91.7z"/>
<path class="st8" d="M77.6,91.5c0,3.5-2.5,5.8-6.5,6c-1.1,0.1-2.1,0-3.2,0c-0.9,0-1.9,0-2.8,0c-3.8-0.2-6.5-2.8-6.3-6.2
	c0.1-3.3,2.7-5.6,6.3-5.8c2-0.1,4-0.1,6,0C75.1,85.7,77.6,88,77.6,91.5z"/>
<line class="st15" x1="226.7" y1="340" x2="226.4" y2="340"/>
</svg>
