<?xml version="1.0" encoding="utf-8"?>
<!-- Generator: Adobe Illustrator 25.4.1, SVG Export Plug-In . SVG Version: 6.00 Build 0)  -->
<svg version="1.1" id="Layer_1" xmlns="http://www.w3.org/2000/svg" xmlns:xlink="http://www.w3.org/1999/xlink" x="0px" y="0px"
	 viewBox="0 0 100 100" style="enable-background:new 0 0 100 100;" xml:space="preserve">
<style type="text/css">
	.st0{fill:#AE9DCB;}
	.st1{fill:#F9B233;}
	.st2{fill:#F7DAA2;}
	.st3{fill:#95A53A;}
	.st4{fill:#72BCC6;}
	.st5{fill:#153C37;}
	.st6{fill:#F8BB8D;}
	.st7{fill:#E72F2A;}
	.st8{fill:#DDA778;}
	.st9{fill:#EB5745;}
	.st10{fill:#F4A77E;}
	.st11{fill:#0C4B74;}
	.st12{fill:#093959;}
	.st13{fill:#293033;}
	.st14{fill:#442A28;}
	.st15{fill:#452A28;}
	.st16{fill:#65453B;}
	.st17{fill:#8E6A55;}
	.st18{fill:#A88366;}
	.st19{fill:#64473C;}
	.st20{fill:#825D4C;}
	.st21{fill:#83624F;}
	.st22{fill:#714E41;}
	.st23{fill:#BC906F;}
	.st24{fill:#D84B59;}
	.st25{fill:#331B19;}
	.st26{fill:#063662;}
	.st27{fill:#271510;}
	.st28{fill:#291712;}
	.st29{fill:#2A1813;}
	.st30{fill:#554039;}
	.st31{fill:#604E45;}
	.st32{fill:#9E6C5B;}
	.st33{fill:#956252;}
	.st34{fill:#AC100A;}
	.st35{fill:#4E3629;}
	.st36{fill:#482D22;}
	.st37{fill:#462D22;}
	.st38{fill:#453025;}
	.st39{fill:#2C1611;}
	.st40{fill:#631912;}
	.st41{fill:#6E7ABA;}
	.st42{fill:#432A19;}
	.st43{fill:#997271;}
	.st44{fill:#8F625A;}
	.st45{fill:#4D321F;}
	.st46{fill:#673A26;}
	.st47{fill:#472C1B;}
	.st48{fill:#4C2E1C;}
</style>
<g>
	<path class="st0" d="M90,100H10c-5.5,0-10-4.5-10-10V10C0,4.5,4.5,0,10,0h80c5.5,0,10,4.5,10,10v80C100,95.5,95.5,100,90,100z"/>
	<g>
		<path class="st0" d="M18.3,88.2c-2.2-1.8-4.1-3.8-6-5.8c-2.3-2.6-4.3-5.5-6-8.6c-1.7-3.2-3.1-6.5-4.2-10c-0.7-2.2-1.1-4.5-1.5-6.8
			c-0.5-3-0.6-6-0.5-9c0.1-2.2,0.3-4.5,0.7-6.7c0.5-2.8,1.2-5.5,2.1-8.1c1.8-5,4.3-9.6,7.5-13.8c1.8-2.4,3.8-4.6,6.1-6.5
			c4.4-3.9,9.3-7.1,14.8-9.2c3.3-1.3,6.6-2.3,10.1-2.9c1.1-0.2,2.2-0.3,3.3-0.4c2.5-0.3,4.9-0.2,7.4-0.2c1.5,0,3,0.3,4.6,0.5
			c2,0.2,3.9,0.7,5.8,1.1c2.8,0.7,5.4,1.7,8,2.9c3.6,1.7,7,3.7,10.1,6.2c2.7,2.1,5.1,4.6,7.3,7.2c1.5,1.8,2.8,3.6,4,5.6
			c2.2,3.5,3.9,7.3,5.2,11.3c0.8,2.4,1.3,4.8,1.7,7.2c0.7,4.1,0.6,8.2,0.4,12.3c-0.1,2.7-0.7,5.4-1.4,8.1c-1,3.9-2.4,7.5-4.3,11
			c-1.9,3.4-4.1,6.6-6.7,9.5c-2,2.3-4.3,4.4-6.7,6.2c-0.5-0.5-0.5-1.1-0.6-1.7c-0.3-1.9-0.8-3.7-1.3-5.5c-0.6-2.3-2.1-3.8-4.2-4.9
			c-0.8-0.4-1.8-0.7-2.3-1.6c-0.7-5.3-2.1-10.6-3.1-15.9c-0.5-2.8-0.5-5.6-0.1-8.4c0.1-1,0-2,0.2-3c0.2-0.8,0.6-1.5,0.9-2.3
			c1.2-2.7,1.2-5.4,0.2-8.1c0.4-2,1.2-3.9,1.4-6c0.6-6.9-0.6-13.4-5.2-18.9c-1.8-2.1-4-3.4-6.9-2.1c-0.7,0.3-1.2,0.1-1.7-0.4
			c-3-3.1-6.7-3.8-10.7-3.3C36,8.4,27.9,17.9,28.1,28.7c0,2.2,0.4,4.5,1,6.7c0.2,0.7,0.5,1.4,0.5,2.1c-1.2,2.6-1.2,5.2-0.3,7.8
			c0.1,0.3,0.1,0.7,0.1,1.1c0.1,4.3-1,8.5-1.9,12.7c-1,5-2.4,9.9-2.9,15c-0.1,1,0,2-0.2,3c-0.2,0.5-0.7,0.9-1.1,1.1
			c-2.1,1-3,2.9-3.6,5c-0.4,1.3-0.8,2.7-1,4.1C18.6,87.5,18.6,87.9,18.3,88.2z"/>
		<path class="st5" d="M18.3,88.2c-0.1-0.6,0.1-1.2,0.2-1.9c0.4-1.8,0.8-3.5,1.5-5.2c0.6-1.4,1.5-2.6,2.9-3.3
			c0.5-0.2,0.9-0.5,1.4-0.8c0.2-0.6,0.8-0.8,1.4-1c5-2.3,10.1-4.5,15.2-6.6c0.5-0.2,1-0.5,1.5-0.2c0.1,1.2-0.3,2.4,0.7,3.4
			c1.3,1.3,2.8,2.2,4.6,2.4c2.4,0.3,4.7,0.1,6.8-1.1c1.8-1.1,2.2-2,1.8-4.1c0-0.3,0-0.5,0.1-0.8c0.5-0.3,1-0.1,1.4,0.1
			c4.5,1.7,8.9,3.4,13.2,5.5c0.5,0.2,0.9,0.5,1.2,0.9c1.1,0.6,2.3,1.3,3.4,1.9c1.4,0.8,2.3,2,2.9,3.6c0.7,2,1.2,4,1.6,6.1
			c0.1,0.7,0.2,1.3,0.3,2c-4.3,3.5-9.2,6-14.4,7.8c-5.8,2-11.7,2.8-17.8,2.6C37.1,99,27.4,95.4,18.8,88.6
			C18.6,88.5,18.4,88.4,18.3,88.2z"/>
		<path class="st6" d="M29.2,46.4c-0.3-1.1-0.6-2.2-0.8-3.3c-0.3-1.9-0.3-3.7,0.8-5.3c0.1-0.1,0.1-0.3,0.1-0.4c0.5-1,1.3-1,2.2-0.8
			c0.9,0.2,1,0.9,1.1,1.7c0.3,1.8,0.3,3.7,0.7,5.7c1.1-1.3,1.6-2.6,1.8-4c0.5-3.5,0.7-7.1,1.1-10.6c0-0.4,0-0.7,0.2-1.1
			c0.2-0.3,0.3-0.7,0.8-0.6c0.7,1,0.7,2.2,0.9,3.4c0.2,0.9,0.6,1.4,1.6,1.5c2,0.2,3.9,0.3,5.9,0.4c1.6,0.1,3.2,0.3,4.8,0.3
			c1.1,0,1.8-0.3,2.2-1.4c0.3-0.8,0.7-1.6,1.2-2.3c0.5-0.7,0.9-0.6,1.2,0.2c0.3,0.8,0.4,1.7,0.5,2.5c0.1,1,0.7,1.4,1.6,1.4
			c2.3,0.2,2.5,0.1,3.2-2.1c0.5-1.5,0.8-3.1,1.7-4.4c0.2-0.2,0.5-0.4,0.8-0.2c0.9,1.9,0.5,3.9,0.8,5.8c0.3,2.1,0.5,4.2,0.9,6.3
			c0.2,1,0.6,1.9,1.3,2.8c0.5-0.6,0.3-1.1,0.4-1.7c0-0.7,0-1.4,0.2-2.2c0.2-0.8,0.3-1.6,1.3-1.7c1-0.1,1.9,0,2.4,1
			c0.2,0.4,0.4,0.8,0.5,1.2c0.5,1.5,0.5,3,0.2,4.5c-0.3,1.6-1,3.1-1.7,4.6c-0.4,1-0.9,1.9-2.1,2.1c-0.5,0.1-0.4,0.4-0.5,0.7
			c-0.8,4.1-3,7.5-5.7,10.6c-1.4,1.6-2.9,3.2-4.7,4.5c-1.5,1.2-3.1,2.2-4.7,3.1c-2.2,1.2-4.2,0.6-6.1-0.5c-1.1-0.6-2.1-1.2-3-2
			c-3.8-2.9-6.8-6.4-8.6-10.9c-0.6-1.4-1-2.9-1.1-4.4c0-0.5-0.1-0.9-0.8-1.2C30.3,49.3,29.6,47.9,29.2,46.4z"/>
		<path class="st7" d="M36.7,28.2c0,1.8-0.3,3.6-0.5,5.4c-0.1,1.3-0.2,2.7-0.4,4c-0.1,1.2-0.2,2.4-0.5,3.6c-0.4,1.3-1,2.4-1.9,3.4
			c-0.1,0.1-0.2,0.2-0.4,0.1c-0.2-0.1-0.1-0.2-0.1-0.3c-0.2-2.1-0.4-4.2-0.6-6.3c0-0.2,0-0.4-0.1-0.5c-0.1-0.5-0.4-0.6-0.8-0.7
			c-0.8-0.1-1.4,0.2-2,0.6c-0.7-2-1.2-4-1.4-6.2c-0.1-0.9-0.2-1.9-0.2-2.8c0.2-8.4,3.9-14.7,11.1-19c2.4-1.5,5.1-2.4,7.9-2.7
			c2-0.3,4-0.2,5.9,0.3c2.1,0.6,3.9,1.6,5.4,3.2c0.4,0.5,0.4,0.5,1,0.2c2-1,3.9-0.6,5.7,0.6c1.2,0.8,2.1,1.8,2.9,3
			c1.9,2.7,3,5.6,3.7,8.8c0.6,2.6,0.7,5.3,0.5,7.9c-0.2,2.4-0.8,4.7-1.7,6.9c-0.2-0.2-0.4-0.3-0.7-0.5c-0.4-0.3-0.9-0.4-1.4-0.4
			c-0.8,0.1-1,0.3-1.1,1c-0.2,0.9-0.2,1.8-0.2,2.7c0,0.7-0.1,1.3-0.2,2c0,0.1,0,0.3-0.2,0.3c-0.1,0-0.3-0.1-0.3-0.2
			c-0.9-0.9-1.4-2-1.6-3.2c-0.3-1.4-0.4-2.8-0.6-4.1c-0.2-1.3-0.3-2.6-0.4-3.9c-0.1-1.4-0.2-2.9-0.4-4.3c-0.2-0.2-0.2-0.5,0-0.7
			c-0.3,0.3-0.2,0.7-0.5,1c-0.6,1.6-1.1,3.2-1.7,4.9c-0.1,0.3-0.2,0.5-0.3,0.8c-0.5,1.2-0.2,1.2-1.7,1.1c-0.8,0-1.6,0-2.4-0.2
			c-0.7-0.2-0.8-0.2-0.9-0.9c-0.2-1.1-0.4-2.2-0.6-3.3c0-0.1,0-0.2-0.1-0.3c0,0-0.1-0.1-0.1-0.1c-0.1,0-0.2,0-0.2,0
			c-0.2,0.3-0.4,0.6-0.5,0.9c-0.5,0.9-0.9,1.9-1.4,2.8c-0.2,0.3-0.4,0.5-0.7,0.5c-1,0-2.1,0-3.1-0.1c-0.8-0.1-1.6-0.1-2.4-0.2
			c-2.5-0.2-5-0.4-7.5-0.5c-0.3,0-0.5-0.2-0.6-0.5c-0.3-1.5-0.6-3.1-0.9-4.6C36.5,27.4,36.9,28.1,36.7,28.2z"/>
		<path class="st7" d="M29.2,46.4c0.3,0.2,0.4,0.5,0.6,0.7c0.3,0.5,0.6,1,0.9,1.5c0.5,0.7,1.1,1.3,2.1,1.2c0.4,0.9,0.3,1.9,0.5,2.8
			c0.6,2.8,1.9,5.2,3.5,7.5c1.6,2.3,3.6,4.2,5.8,6c0.6,1.2,0.6,2.2-0.4,3.2c-1.7,0.7-3.3,1.3-5,2c-4.4,1.8-8.7,3.7-12.9,5.8
			c-0.2-1.9,0-3.8,0.3-5.7c0.6-4.4,1.8-8.6,2.7-13c0.5-2.5,1-4.9,1.4-7.4C29,49.5,29,47.9,29.2,46.4z"/>
		<path class="st7" d="M56.1,65.5c0.2-0.2,0.4-0.4,0.7-0.6c2.1-1.9,4.1-3.8,5.7-6.1c1.9-2.6,3.3-5.3,3.9-8.5
			c0.1-0.3,0.1-0.6,0.6-0.6c0.5,0,0.9-0.3,1.3-0.7c0.3-0.4,0.7-0.7,1-1.1c0,1.8-0.2,3.6-0.3,5.4c-0.2,2.7,0.1,5.3,0.7,7.9
			c0.6,3,1.3,6,1.9,8.9c0.3,1.8,0.7,3.5,0.7,5.3c-1.5-0.7-2.9-1.3-4.4-2c-3.7-1.6-7.5-3.1-11.3-4.5C55.3,67.9,55.6,66.7,56.1,65.5z"
			/>
		<path class="st8" d="M56.1,65.5c0,0.8,0,1.5,0,2.3c0,0.4,0,0.8,0.2,1.2c-0.1,0.6,0.2,1.1,0.4,1.5c0.2,0.4,0.2,0.9,0,1.3
			c-0.8,1.6-2,2.6-3.7,3.2c-1.9,0.7-3.8,0.8-5.7,0.4c-1.1-0.2-2.2-0.5-3.1-1.1c-1-0.6-1.7-1.4-2.2-2.5c-0.2-0.5-0.3-0.9-0.1-1.4
			c0.1-0.3,0.2-0.7,0.3-1c0.3-1.1,0.4-2.1,0.4-3.2c1,0.7,2,1.4,3,2c1,0.6,2.1,0.9,3.3,1.2c0.3,0.1,0.6-0.1,0.9-0.1
			c1.8-0.4,3.3-1.5,4.9-2.5C55.1,66.3,55.6,65.9,56.1,65.5z"/>
		<path class="st9" d="M36.7,28.2c0-0.2,0-0.4,0-0.7c0-0.4,0.2-0.7,0.3-0.6c0.3,0.2,0.2,0.4,0.2,0.7C37,27.9,36.8,28,36.7,28.2z"/>
		<path class="st10" d="M62.4,27.4c0-0.4,0.1-0.8,0.4-1.2c0.2,0.3,0.1,0.6,0.1,0.9C62.7,27.2,62.5,27.3,62.4,27.4z"/>
	</g>
</g>
</svg>
