<?xml version="1.0" encoding="utf-8"?>
<!-- Generator: Adobe Illustrator 25.4.1, SVG Export Plug-In . SVG Version: 6.00 Build 0)  -->
<svg version="1.1" id="Layer_1" xmlns="http://www.w3.org/2000/svg" xmlns:xlink="http://www.w3.org/1999/xlink" x="0px" y="0px"
	 viewBox="0 0 100 100" style="enable-background:new 0 0 100 100;" xml:space="preserve">
<style type="text/css">
	.st0{fill:#AE9DCB;}
	.st1{fill:#F9B233;}
	.st2{fill:#F7DAA2;}
	.st3{fill:#95A53A;}
	.st4{fill:#72BCC6;}
	.st5{fill:#153C37;}
	.st6{fill:#F8BB8D;}
	.st7{fill:#E72F2A;}
	.st8{fill:#DDA778;}
	.st9{fill:#EB5745;}
	.st10{fill:#F4A77E;}
	.st11{fill:#0C4B74;}
	.st12{fill:#093959;}
	.st13{fill:#293033;}
	.st14{fill:#442A28;}
	.st15{fill:#452A28;}
	.st16{fill:#65453B;}
	.st17{fill:#8E6A55;}
	.st18{fill:#A88366;}
	.st19{fill:#64473C;}
	.st20{fill:#825D4C;}
	.st21{fill:#83624F;}
	.st22{fill:#714E41;}
	.st23{fill:#BC906F;}
	.st24{fill:#D84B59;}
	.st25{fill:#331B19;}
	.st26{fill:#063662;}
	.st27{fill:#271510;}
	.st28{fill:#291712;}
	.st29{fill:#2A1813;}
	.st30{fill:#554039;}
	.st31{fill:#604E45;}
	.st32{fill:#9E6C5B;}
	.st33{fill:#956252;}
	.st34{fill:#AC100A;}
	.st35{fill:#4E3629;}
	.st36{fill:#482D22;}
	.st37{fill:#462D22;}
	.st38{fill:#453025;}
	.st39{fill:#2C1611;}
	.st40{fill:#631912;}
	.st41{fill:#6E7ABA;}
	.st42{fill:#432A19;}
	.st43{fill:#997271;}
	.st44{fill:#8F625A;}
	.st45{fill:#4D321F;}
	.st46{fill:#673A26;}
	.st47{fill:#472C1B;}
	.st48{fill:#4C2E1C;}
</style>
<path class="st2" d="M90,100H10c-5.5,0-10-4.5-10-10V10C0,4.5,4.5,0,10,0h80c5.5,0,10,4.5,10,10v80C100,95.5,95.5,100,90,100z"/>
<g>
	<path class="st2" d="M18.2,88.6c-1.9-1.4-3.6-3.1-5.3-4.9c-2.2-2.4-4.1-4.9-5.8-7.7c-2.7-4.4-4.6-9.2-5.9-14.2
		c-0.4-1.8-0.7-3.5-1-5.3c-0.2-1.3-0.3-2.7-0.3-4c0-0.9,0-1.9,0-2.9c0-2.2,0.2-4.3,0.5-6.5c0.3-2,0.7-3.9,1.2-5.8
		c0.7-2.8,1.7-5.4,2.9-8c1.4-2.9,2.9-5.7,4.8-8.3c1.1-1.5,2.2-3,3.5-4.3c0.5-0.5,1-1,1.5-1.6c0.4-0.5,1-0.9,1.5-1.4
		c2.7-2.6,5.7-4.8,9-6.7c3.6-2.1,7.4-3.7,11.3-4.8c1.9-0.6,3.8-1,5.8-1.3c1.9-0.3,3.8-0.6,5.8-0.5c0.5,0,0.9,0,1.3-0.1
		c0.7-0.1,1.4-0.1,2.2,0c0.4,0.1,0.9,0.2,1.3,0.1c2.6-0.1,5.1,0.5,7.7,0.9c3.3,0.6,6.5,1.7,9.6,3c3.5,1.6,6.9,3.5,10,5.8
		c1.6,1.2,3.1,2.4,4.5,3.7c3.1,2.9,5.8,6.2,8.1,9.8c1.8,2.9,3.3,5.9,4.5,9.1c1.1,2.8,1.7,5.7,2.4,8.6c0.2,0.9,0.2,1.9,0.4,2.8
		c0.5,3.3,0.2,6.6,0.2,9.9c0,1-0.1,2.1-0.3,3.1c-0.4,2.1-0.7,4.2-1.3,6.2c-0.7,2.4-1.5,4.7-2.5,7c-0.7,1.6-1.5,3.2-2.4,4.7
		c-1.1,1.9-2.3,3.7-3.6,5.4c-1.9,2.6-4.3,4.9-6.7,7.1c-0.8,0.7-1.6,1.4-2.5,2.1c-0.5-0.3-0.4-0.8-0.4-1.2c-0.4-2-0.8-4-1.4-6
		c-0.6-2.2-2-3.8-4-4.9c-4.8-2.7-9.9-4.7-15-6.7c-1.1-0.4-2.3-0.7-3.3-1.4c-0.3-0.3-0.4-0.6-0.4-0.9c1.4-1.9,3.1-3.5,4.6-5.3
		c1.5-1.8,2.8-3.8,3.8-5.9c0.2-0.4,0.4-0.9,0.6-1.4c0.1-0.3,0.2-0.6,0.3-0.9c0.1-0.3,0.1-0.6,0.1-0.9c0.2-1.2,0.7-2.3,0.8-3.4
		c0.1-0.5,0.3-0.9,0.9-1.1c0.5-0.1,1-0.4,1.3-0.9c2-2.9,3.2-6.1,2.1-9.7c-0.2-0.6-0.3-1.1-0.2-1.7c1.5-4.1,2.2-8.3,1.9-12.7
		c-0.3-4.3-1.2-8.3-4-11.8c-2-2.5-5-3.4-7.9-2.3c-1.2,0.4-2.1,0.4-3.1-0.4c-5.9-4.7-13.4-4.1-19.2,0C30,16,26.6,26.1,29.3,35.9
		c0.2,0.6,0.4,1.2,0.4,1.9c-1.4,2.9-1.1,5.8,0.1,8.6c0.6,1.4,1.3,2.8,2.9,3.3c0.6,0.2,0.7,0.7,0.8,1.3c0.2,1.2,0.3,2.3,0.4,3.5
		c0.1,0.6,0.3,1.1,0.5,1.7c0.5,1.1,1,2.1,1.6,3.2c0.1,0.2,0.3,0.4,0.4,0.6c0.3,0.4,0.5,0.8,0.8,1.2c0.5,0.7,1,1.5,1.6,2.2
		c1,1.4,2.2,2.6,3.3,3.9c0.3,0.4,0.7,0.8,0.8,1.4c0.1,0.8-0.4,1.1-0.9,1.5c-2.5,1.3-5.2,2.2-7.7,3.3c-3.5,1.5-7,3.1-10.4,4.8
		c-2,1-3.4,2.5-4,4.7c-0.3,1.2-0.7,2.4-1,3.7C18.9,87.3,18.9,88.1,18.2,88.6z"/>
	<path class="st13" d="M56.7,69.3c5.4,2,10.7,4.1,15.9,6.6c1.3,0.6,2.5,1.3,3.7,2.1c1.2,0.8,2,1.8,2.5,3.1c0.8,1.9,1.2,4,1.6,6
		c0.2,0.8,0.4,1.7,0.3,2.5c-3,2.2-6.1,4.2-9.5,5.8c-4.8,2.2-9.7,3.7-14.9,4.3c-13.9,1.6-26.5-1.9-37.5-10.6
		c-0.2-0.1-0.3-0.3-0.5-0.5c0.4-1.5,0.7-3.1,1.1-4.6c0.3-1,0.6-2,1.1-2.9c0.5-1,1.1-1.8,2.1-2.4c1.1-0.6,2.2-1.2,3.4-1.8
		c4.8-2.4,9.8-4.4,14.8-6.5c0.4-0.2,0.8-0.4,1.2-0.6c0.6-0.3,0.8,0.1,0.7,0.6c-0.5,2.1,0.9,3.2,2.4,4.1c2.9,1.8,7.7,1.5,10.2-0.5
		c1.2-1,2.2-2.1,1.3-3.8C56.4,69.9,56.4,69.6,56.7,69.3z"/>
	<path class="st6" d="M33.7,54.6c-0.1-0.1-0.2-0.2-0.2-0.4c0.1-1.2-0.3-2.3-0.3-3.5c0-0.6,0-0.7-0.7-0.8c-0.4-0.1-0.8-0.2-1.1-0.5
		c-0.7-0.6-1.2-1.3-1.6-2.1c-0.6-1.3-1.1-2.6-1.3-4.1c0-0.5-0.3-0.9-0.3-1.5c0.2-1.2,0.2-2.4,0.9-3.5c0.1-0.2,0.2-0.4,0.2-0.6
		c0.5-0.7,1.2-1.1,2.1-0.9c0.9,0.2,1,1.1,1.1,1.8c0.3,1.9,0.4,3.7,0.8,5.7c1-0.7,1.5-1.6,1.7-2.6c0.3-1.1,0.4-2.1,0.4-3.2
		c0-4.3,1.8-6.7,5.9-8c1.5-0.5,3-0.7,4.5-1c3.5-0.7,6.7-1.9,9.5-4.2c0.9-0.7,1.7-1.6,2.4-2.5c0.8-1.1,1.3-1.2,2.4-0.5
		c3.3,2,5.3,6.5,4.6,10.3c-0.1,0.4-0.1,0.7-0.2,1.1c-0.8,3.7-0.5,5.1,1.8,8.4c0.4-1.2,0.4-2.4,0.6-3.6c0.3-1.7,0.9-2,2.6-1.5
		c0.4,0.1,0.8,0.3,1.1,0.5c-0.1,0.4-0.2,0.9,0.1,1.3c0.4,0.6,0.4,1.3,0.5,1.9c0.2,0.7,0.1,1.3,0,2c-0.2,1.9-0.9,3.6-1.7,5.2
		c-0.4,0.7-0.9,1.2-1.4,1.8C68,50,67.6,50,67.2,50c-0.2,0-0.5,0.1-0.5,0.4c-0.1,1.2-0.5,2.3-0.8,3.4c-0.1,0.2,0,0.4-0.1,0.5
		c-0.2,0.2-0.2,0.5-0.4,0.7c-0.1,0.3-0.2,0.6-0.3,0.8c-0.2,0.4-0.4,0.8-0.5,1.2c-3.1,5-7.1,9-12.2,11.8c-1.7,0.9-2,0.7-2.3-1.2
		c-0.2-1,0-2,0.2-3c0.1-0.3,0.2-0.8-0.2-1c-0.5-0.2-1.1-0.3-1.6,0c-0.4,0.2-0.1,0.7,0,1c0.4,1.2,0.3,2.3,0,3.5
		c-0.4,1.3-0.9,1.6-2.2,0.9c-2.8-1.5-5.3-3.4-7.4-5.8c-0.7-0.7-1.2-1.5-1.7-2.2c-0.2-0.4-0.6-0.8-0.8-1.2c-0.1-0.2-0.3-0.4-0.4-0.6
		c-0.6-1-1.1-2-1.6-3.1C34.2,55.6,34.1,55.1,33.7,54.6z"/>
	<path class="st14" d="M70.8,37.5c-0.2,0.2-0.4,0.4-0.7,0.1c-0.5-0.5-1.2-0.7-1.9-0.5c-0.5,0.1-0.6,0.2-0.7,0.7
		c-0.2,1.6-0.4,3.2-0.6,4.8c0,0.1,0,0.3-0.2,0.3c-0.1,0-0.2-0.1-0.3-0.2c-0.8-1.3-1.5-2.6-2.1-3.9c-0.6-1.2-0.7-2.5-0.3-3.8
		c0.2-0.8,0.4-1.7,0.6-2.5c0.4-2,0.2-3.8-0.8-5.6c-0.8-1.4-1.6-2.6-2.8-3.6c-0.5-0.4-1-0.8-1.6-1.1C59.1,22,59,22,58.7,22.4
		c-1.9,2.9-4.6,4.7-7.7,6c-1.6,0.7-3.3,1.1-5.1,1.5c-1.2,0.3-2.5,0.5-3.7,0.8c-0.7,0.2-1.5,0.5-2.2,0.8c-2.5,1.1-3.8,3.1-4.1,5.8
		c-0.1,0.9-0.1,1.8-0.1,2.7c0,1.8-0.6,3.4-1.9,4.7c-0.2,0.2-0.4,0.4-0.7,0.4c-0.2-0.1-0.2-0.4-0.3-0.6c-0.2-1.7-0.4-3.5-0.6-5.2
		c-0.1-0.5-0.2-1.1-0.2-1.6c0-0.3-0.3-0.4-0.5-0.5c-0.4-0.1-0.7,0-1.1,0.1c-0.4,0.2-0.7,0.3-1.1,0.5c-0.3-1.3-0.7-2.5-1-3.8
		c-1.4-7.6,0.3-14.5,5.4-20.4C36.6,10.3,40.1,8,44.3,7c4.8-1.1,9.2-0.1,13.1,2.8c0.4,0.3,0.8,0.8,1.3,0.9c0.5,0.2,1-0.3,1.5-0.5
		c2.9-1,5.4-0.4,7.7,1.7c1,0.9,1.8,2.1,2.4,3.3c1.1,2.1,1.8,4.3,2.1,6.6c0.8,4.8,0.5,9.5-1,14.1C71.2,36.4,71,37,70.8,37.5z"/>
	<path class="st15" d="M39,63c1.2,1.1,2.3,2.3,3.6,3.3c1.2,0.9,2.4,1.7,3.6,2.4c0.5,0.2,1,0.4,1.5,0.6c0.9-1.6,0.9-3.1,0.1-5.9
		c0.5-0.1,1.1,0,1.6-0.1c0.5,0,1,0,1.4,0c0.2,0.3,0.1,0.6,0,0.8c-0.4,1.5-0.5,3-0.1,4.6c0.1,0.5,0.2,0.6,0.8,0.3
		c1.3-0.5,2.4-1.3,3.5-2c3.7-2.7,6.9-5.9,9.3-9.8c0.1-0.2,0.2-0.3,0.3-0.4c0.5,0,0.4,0.3,0.3,0.6c-0.4,1.2-1.1,2.2-1.7,3.2
		c-1.7,2.6-3.6,4.9-5.8,7c-0.3,0.3-0.6,0.7-0.9,1c-1.4,2-3.5,3.3-5.6,4.3c-0.6,0.3-1.3,0.4-1.9,0.2c-2.5-0.9-4.5-2.5-6.1-4.7
		c-1.1-1.3-2.2-2.6-3.3-3.9c-0.3-0.4-0.6-0.8-0.9-1.2C38.6,63.1,38.7,62.9,39,63z"/>
	<path class="st8" d="M42.8,68.4c0.7,0.7,1.5,1.3,2.2,2c0.7,0.7,1.6,1.2,2.4,1.8c1.3,0.9,2.6,0.9,4,0.1c1.3-0.8,2.6-1.7,3.7-2.7
		c0.4-0.4,0.7-0.8,1.2-1c0.1,0.3,0.2,0.5,0.3,0.8c0,0.6,0.2,1.1,0.5,1.6c0.2,0.4,0.2,0.7,0,1c-0.7,1.5-1.8,2.6-3.3,3.2
		c-1.6,0.7-3.4,0.9-5.2,0.8c-1-0.1-2.1-0.3-3-0.7c-1.5-0.6-2.6-1.6-3.4-3c-0.3-0.5-0.4-1-0.1-1.5c0.1-0.2,0.1-0.3,0.2-0.5
		c0.1-0.4-0.2-0.4-0.5-0.4C42.7,69.2,42.7,69.2,42.8,68.4z"/>
	<path class="st16" d="M39,63c-0.1,0.1-0.2,0.2-0.4,0.4c-0.7-0.6-1.1-1.4-1.6-2.2c-0.1-0.3,0-0.3,0.3-0.3C37.9,61.6,38.4,62.3,39,63
		z"/>
	<path class="st17" d="M34.5,56c0.4,1.1,1.1,2.2,1.6,3.2c0,0.1-0.1,0.2-0.2,0.3c-0.7-1-1.2-2.1-1.7-3.2C34.2,56,34.3,56,34.5,56z"/>
	<path class="st18" d="M34.5,56c-0.1,0.1-0.2,0.2-0.2,0.3c-0.4-0.5-0.5-1.1-0.6-1.6c0.1-0.1,0.3-0.2,0.3,0
		C34.2,55.1,34.4,55.5,34.5,56z"/>
	<path class="st19" d="M64.8,57.3c0-0.2,0-0.4-0.3-0.6c0.2-0.4,0.4-0.7,0.5-1.1c0.3,0,0.4,0,0.3,0.3C65.3,56.5,65.2,57,64.8,57.3z"
		/>
	<path class="st20" d="M37.3,60.9c-0.1,0.1-0.2,0.2-0.3,0.3c-0.3-0.3-0.6-0.7-0.8-1.1c0-0.1,0.1-0.2,0.2-0.3
		C36.8,60.1,37.1,60.5,37.3,60.9z"/>
	<path class="st21" d="M65.4,56c-0.1-0.1-0.2-0.2-0.3-0.3c0.1-0.3,0.2-0.5,0.3-0.8c0.3-0.1,0.4,0,0.3,0.3
		C65.7,55.5,65.6,55.8,65.4,56z"/>
	<path class="st22" d="M36.5,59.8c-0.1,0.1-0.2,0.2-0.2,0.3c-0.1-0.2-0.2-0.3-0.3-0.5c0.1-0.1,0.2-0.2,0.2-0.3
		C36.3,59.4,36.4,59.6,36.5,59.8z"/>
	<path class="st23" d="M65.7,55.2c-0.1-0.1-0.2-0.2-0.3-0.3c0.1-0.3,0.2-0.5,0.5-0.5C65.9,54.7,65.9,55,65.7,55.2z"/>
</g>
</svg>
