<?xml version="1.0" encoding="utf-8"?>
<!-- Generator: Adobe Illustrator 25.4.1, SVG Export Plug-In . SVG Version: 6.00 Build 0)  -->
<svg version="1.1" id="Layer_1" xmlns="http://www.w3.org/2000/svg" xmlns:xlink="http://www.w3.org/1999/xlink" x="0px" y="0px"
	 viewBox="0 0 100 100" style="enable-background:new 0 0 100 100;" xml:space="preserve">
<style type="text/css">
	.st0{fill:#AE9DCB;}
	.st1{fill:#F9B233;}
	.st2{fill:#F7DAA2;}
	.st3{fill:#95A53A;}
	.st4{fill:#72BCC6;}
	.st5{fill:#153C37;}
	.st6{fill:#F8BB8D;}
	.st7{fill:#E72F2A;}
	.st8{fill:#DDA778;}
	.st9{fill:#EB5745;}
	.st10{fill:#F4A77E;}
	.st11{fill:#0C4B74;}
	.st12{fill:#093959;}
	.st13{fill:#293033;}
	.st14{fill:#442A28;}
	.st15{fill:#452A28;}
	.st16{fill:#65453B;}
	.st17{fill:#8E6A55;}
	.st18{fill:#A88366;}
	.st19{fill:#64473C;}
	.st20{fill:#825D4C;}
	.st21{fill:#83624F;}
	.st22{fill:#714E41;}
	.st23{fill:#BC906F;}
	.st24{fill:#D84B59;}
	.st25{fill:#331B19;}
	.st26{fill:#063662;}
	.st27{fill:#271510;}
	.st28{fill:#291712;}
	.st29{fill:#2A1813;}
	.st30{fill:#554039;}
	.st31{fill:#604E45;}
	.st32{fill:#9E6C5B;}
	.st33{fill:#956252;}
	.st34{fill:#AC100A;}
	.st35{fill:#4E3629;}
	.st36{fill:#482D22;}
	.st37{fill:#462D22;}
	.st38{fill:#453025;}
	.st39{fill:#2C1611;}
	.st40{fill:#631912;}
	.st41{fill:#6E7ABA;}
	.st42{fill:#432A19;}
	.st43{fill:#997271;}
	.st44{fill:#8F625A;}
	.st45{fill:#4D321F;}
	.st46{fill:#673A26;}
	.st47{fill:#472C1B;}
	.st48{fill:#4C2E1C;}
</style>
<path class="st3" d="M90,100H10c-5.5,0-10-4.5-10-10V10C0,4.5,4.5,0,10,0h80c5.5,0,10,4.5,10,10v80C100,95.5,95.5,100,90,100z"/>
<g>
	<path class="st3" d="M17.8,88.2c-0.9-0.6-1.6-1.3-2.4-2C8,79,3.1,70.3,1,60.2c-0.8-3.8-1.1-7.6-1-11.5c0.1-7.5,2-14.5,5.3-21.2
		C11.9,14.4,24.2,4.7,38.4,1.4c5-1.2,10-1.6,15.1-1.2C64.3,0.9,74,4.8,82.3,11.9c8.1,6.9,13.5,15.5,16.2,25.9c0.6,2.5,1,5,1.3,7.5
		c0.2,1.8,0.2,3.5,0.2,5.3c-0.1,7.5-1.7,14.6-5,21.4c-3.3,6.7-7.8,12.4-13.6,17.1c-0.4,0.3-0.8,0.6-1.2,0.9
		c-0.5-0.5-0.5-1.1-0.6-1.7c-0.4-2-0.8-4-1.4-5.9c-0.5-1.6-1.3-3.1-2.9-4c-0.3-0.2-0.6-0.4-0.7-0.8c0.6-1.1,0.9-2.2,1.6-3.3
		c0.2-0.4,0.3-1,0.9-0.8c0.5,0.1,0.6,0.7,0.6,1.1c0,0.2,0,0.3,0.2,0.5c0.6-1.2,0.7-2.5,0.3-3.7c-0.2-0.8-0.1-1.3,0.7-1.8
		c1.6-0.9,2.2-2.5,1.9-4.3c-0.1-0.8-0.6-1.4-1.3-1.8c-0.7-0.4-1.5-0.7-2.1-1.3c-1.1-1.1-1-2,0.4-2.6c1.2-0.5,2.3-1.2,3.2-2.2
		c0.4-0.5,0.8-1.1,1-1.8c0.1-0.3,0.2-0.8,0-0.9c-1.5-0.6-1-1.8-0.8-2.9c-0.3,0.2-0.4,0.5-0.6,0.6c-0.3,0.2-0.7,0.5-1.1,0.2
		c-0.4-0.2-0.3-0.7-0.2-1c0.2-1,0.4-2-0.2-3.2c-0.3,1-0.7,1.8-1.4,2.4c-1.2,1-3.1,1-4.2-0.1c-1-1-1.1-2.2-0.2-3.4
		c0.2-0.3,0.4-0.5,0.6-0.7c0.8-1.1,0.7-2-0.3-2.9c-0.3-0.3-0.7-0.5-0.9-0.8c-0.5-0.7-0.5-1.3,0.3-1.7c0.6-0.3,1.2-0.7,1.3-1.7
		c-1.6,0.4-2.5-0.4-3.1-1.6c-0.7-1.2-0.6-2.5-0.3-3.8c1.4-7,0.3-13.5-3.5-19.5c-0.7-1.2-1.7-2.1-2.8-2.9c-1.6-1.2-3.3-1.7-5.2-0.9
		c-0.6,0.3-1.2,0.4-1.8-0.2c-3.6-3.7-8.1-4.1-12.8-3.1C34.2,9.8,27,19.5,27.7,30.1c0.1,1.4,0.3,2.8,0.6,4.2c0.3,1.2,0.1,2.4-0.5,3.6
		c-0.8,1.5-1.5,1.8-3.2,1.6c0.1,0.8,0.5,1.3,1.2,1.6c1,0.5,1.1,0.9,0.4,1.8c-0.6,0.7-1.6,1.1-1.7,2.2c-0.1,1.1,0.9,1.6,1.3,2.4
		c0.8,1.3,0.4,2.8-0.9,3.7c-1.3,0.8-3.1,0.5-4.1-0.8c-0.4-0.5-0.6-1.2-1-1.9c-0.4,1.1-0.3,2.1-0.2,3c0.1,0.4,0.4,1-0.1,1.2
		c-0.5,0.3-0.9-0.1-1.3-0.5c-0.1-0.1-0.2-0.2-0.3-0.3c0,1,0.5,2.1-0.8,2.7c-0.5,0.2-0.2,0.9,0,1.4c0.7,1.6,1.7,2.7,3.3,3.4
		c0.4,0.2,0.8,0.3,1.1,0.5c0.9,0.6,1.1,1.3,0.4,2.1c-0.6,0.7-1.3,1.1-2.1,1.4c-1.1,0.5-1.8,1.3-1.7,2.5c0,1.4,0.2,2.8,1.7,3.5
		c1.1,0.5,1.3,1.1,0.9,2.1c-0.5,1.3,0,2.6,0.5,3.8c-0.1-0.3-0.1-0.7,0-1c0.2-0.5,0.3-1.1,0.9-1.1c0.5,0,0.4,0.6,0.6,0.9
		c0.6,1,1,2.2,1.5,3.3c-0.1,0.6-0.6,0.8-1,1c-1.9,1-3,2.5-3.7,4.5c-0.4,1.3-0.7,2.6-1.1,3.9C18.2,87.2,18.2,87.8,17.8,88.2z"/>
	<path class="st24" d="M17.8,88.2c0.4-2.4,1-4.8,2-7c0.4-1,1.1-1.9,2.1-2.4c0.7-0.5,1.5-0.9,2.2-1.3c0.2-0.6,0.8-0.7,1.3-1
		c5-2.4,10.1-4.6,15.3-6.7c0.5-0.2,0.9-0.4,1.4-0.2c0.1,0.1,0.1,0.3,0.1,0.4c-0.7,2.3,0.7,3.5,2.4,4.5c3.2,1.8,8,1.4,10.3-0.9
		c1-0.9,1.8-1.9,1.1-3.5c-0.1-0.2-0.1-0.5,0.1-0.8c0.6-0.3,1.2,0,1.7,0.2c5.4,2,10.7,4.1,15.8,6.8c0.5,0.2,1,0.4,1.2,1
		c0.2,0.1,0.5,0.3,0.7,0.4c1.4,0.8,2.3,2,2.8,3.5c0.6,1.7,1,3.3,1.3,5.1c0.2,1.1,0.5,2.3,0.6,3.4c-1.6,1.4-3.4,2.5-5.2,3.5
		c-5.1,3-10.7,5-16.5,6c-3.4,0.6-6.8,0.8-10.3,0.6c-11.3-0.4-21.3-4.3-30.1-11.4C18,88.5,17.9,88.3,17.8,88.2z"/>
	<path class="st25" d="M41.9,69.7c-2.8,1.2-5.6,2.3-8.4,3.5c-3.1,1.3-6.1,2.7-9.1,4.1c-0.1,0.1-0.3,0.1-0.4,0.1
		c-0.4-0.3-0.7-0.7-0.8-1.2c-0.2-0.6-0.3-1.3-0.9-1.8c-0.3-0.3-0.1-0.8-0.3-1.2c-0.8,0.9-0.8,1-0.5,2.7c-0.7-0.4-1.1-1.2-1.4-2.7
		c-0.2-0.9-0.1-1.2,0.5-3.2c-0.1-0.2-0.4-0.3-0.6-0.3c-1-0.2-1.6-1-2-1.9c-0.4-1.1-0.5-2.3-0.2-3.5c0.1-0.5,0.5-0.9,0.9-1.1
		c0.5-0.2,1-0.5,1.5-0.7c0.6-0.3,1.2-0.7,1.6-1.2c0.4-0.5,0.4-1-0.3-1.3c-0.4-0.2-0.8-0.3-1.3-0.5c-1.8-0.7-3-2.1-3.7-3.9
		c-0.1-0.2-0.1-0.3-0.1-0.5c0-0.3-0.1-0.6,0-0.9c0.2-0.3,0.6-0.2,0.9-0.3c0.1,0,0.2-0.1,0.4-0.2c-0.2-0.8-0.4-1.6-0.3-2.4
		c0-0.1,0-0.3,0.1-0.4c0,0,0.2,0,0.2,0c0.1,0.1,0.2,0.2,0.2,0.3c0.1,0.4,0.3,0.7,0.6,0.9c0.2,0.2,0.5,0.4,0.7,0.3
		c0.3-0.2,0.1-0.5,0-0.7c-0.4-1.5-0.3-2.8,0.4-4.2c0.3,0.1,0.4,0.3,0.4,0.5c0.1,0.6,0.4,1.2,0.7,1.8c1,1.5,3.2,1.9,4.5,0.4
		c0.6-0.7,0.7-2,0.1-2.8c-0.2-0.3-0.5-0.5-0.7-0.8c-1.1-1.1-0.8-2.8,0.3-3.4c0.4-0.2,0.8-0.6,1.1-1c0.3-0.4,0.2-0.8-0.3-0.9
		c-1.4-0.5-1.8-1.1-1.8-2.7c0.3-0.1,0.4,0.1,0.5,0.2c0.8,0.5,1.5,0.5,2.1-0.2c1-1.2,1.7-2.6,1.3-4.2c-0.5-2.1-0.8-4.3-0.7-6.5
		c0.1-4.7,1.6-8.9,4.4-12.6c3.3-4.4,7.6-7.1,13-8.4c2.6-0.6,5.3-0.7,7.9,0.1c2,0.6,3.7,1.6,5,3.1c0.5,0.5,0.5,0.6,1.1,0.2
		c2.4-1.2,4.4-0.5,6.3,1c2,1.6,3.4,3.8,4.4,6.2c1.8,4.2,2.6,8.6,2.2,13.1c-0.1,1.3-0.3,2.7-0.7,4c-0.5,1.7,0.3,3,1.4,4.1
		c0.4,0.4,0.9,0.4,1.4,0.2c0.3-0.1,0.6-0.3,0.8-0.4c0.2,1.4-0.3,2.2-1.6,2.6c-0.6,0.2-0.7,0.7-0.3,1.1c0.3,0.3,0.8,0.6,1.2,0.9
		c0.7,0.6,0.9,1.3,0.8,2.2c-0.1,0.4-0.3,0.8-0.6,1.1c-0.2,0.2-0.5,0.4-0.7,0.7c-0.9,1.1-0.7,2.5,0.4,3.3c1.5,1.1,3.5,0.6,4.4-1.2
		c0.3-0.6,0.5-1.3,0.7-1.9c0.1,0.1,0.3,0.2,0.3,0.3c0.5,1.1,0.8,2.2,0.4,3.4c-0.1,0.3-0.2,0.6-0.2,0.9c0,0.2,0.1,0.3,0.3,0.3
		c0.4-0.1,0.7-0.3,0.9-0.7c0.1-0.3,0.3-0.6,0.4-0.8c0.3,0,0.3,0.3,0.4,0.5c0.2,0.8-0.1,1.6-0.4,2.4c0.2,0.3,0.5,0.2,0.8,0.2
		c0.6,0.1,0.8,0.4,0.7,0.9c-0.1,0.5-0.3,1.1-0.5,1.5c-0.8,1.5-1.9,2.6-3.5,3.2c-0.4,0.1-0.8,0.3-1.2,0.5c-0.4,0.2-0.5,0.7-0.2,1
		c0.4,0.6,0.9,1,1.5,1.3c0.4,0.2,0.9,0.4,1.4,0.6c0.8,0.3,1.2,0.9,1.3,1.8c0.1,0.9,0.1,1.9-0.2,2.8c-0.4,1-1,1.7-2,2
		c-0.2,0.1-0.4,0.2-0.7,0.3c0.6,1.3,0.7,2.6,0.4,3.9c-0.2,0.7-0.4,1.4-1,1.9c-0.3,0-0.2-0.3-0.2-0.4c0-0.5,0-0.9,0-1.4
		c0-0.3-0.1-0.6-0.4-0.6c-0.3,0-0.2,0.3-0.3,0.5c-0.1,0.3-0.1,0.5-0.3,0.7c-0.4,0.3-0.5,0.7-0.6,1.2c-0.1,0.7-0.5,1.2-1,1.5
		c-3.1-1.7-6.3-3.2-9.6-4.5c-2.7-1.1-5.5-2.2-8.2-3.2c-0.2-0.1-0.5-0.1-0.8-0.2c-1.1-0.9-0.5-2.2-0.6-3.3c0.1-0.6,0.6-1,1.1-1.4
		c3.1-2.9,6-6,7.8-9.9c0.5-1.1,0.9-2.3,1.2-3.5c0.2-0.8,0.6-1.5,1.4-1.9c0.5-0.2,1-0.7,1.3-1.2c1.6-2.3,2.3-4.8,2.2-7.6
		c-0.1-1-0.3-2-1.1-2.7c-0.5-0.5-1-0.8-1.7-0.6c-0.6,0.2-0.7,0.8-0.7,1.3c-0.2,1,0,2-0.2,3C66.6,42.3,66.7,43,66,43
		c-0.5,0-0.7-0.5-0.9-0.9c-1.3-2.6-2.5-5.3-2.2-8.4c0.2-1.7-0.3-3.2-1.1-4.7c-0.9-1.8-1.8-3.7-2.8-5.4c-0.4-0.6-0.7-0.9-1.3-0.2
		c-3,3.9-7.3,5.7-12,6.7c-2.5,0.5-4.8,1.4-6.8,3.3c-2,1.9-3.1,4.1-3.4,6.8c-0.2,1.7-0.9,3.1-1.9,4.5c-0.3,0.4-0.6,0.8-1.1,0.7
		c-0.4-0.1-0.4-0.7-0.5-1.1c-0.3-1.8-0.3-3.6-0.6-5.4c-0.1-0.5-0.1-1-0.7-1.2c-0.6-0.2-1.1,0-1.5,0.4c-0.8,0.7-1.1,1.7-1.2,2.7
		c-0.2,2.7,0.5,5.2,2,7.5c0.3,0.5,0.7,1.2,1.3,1.3c1.1,0.3,1.4,1.2,1.5,2.1c0.8,5.6,4,9.8,8,13.5c0.5,0.5,1.2,0.9,1.5,1.6
		C42.7,67.7,42.8,68.8,41.9,69.7z"/>
	<path class="st8" d="M41.9,69.7c0.3-1.1,0.4-2.1,0.3-3.2c0.3-0.2,0.6,0,0.9,0.2c0.5,0.3,0.9,0.6,1.3,0.9c3.1,2.3,6,2,8.9-0.3
		c0.8-0.6,1.4-1.4,2.5-1.4c0,0.8,0,1.5,0,2.3c0,0.4,0,0.9,0.3,1.3c-0.1,0.5,0.1,0.9,0.4,1.3c0.3,0.5,0.2,0.9,0,1.4
		c-0.7,1.4-1.8,2.5-3.3,3.1c-2.2,0.9-4.6,1-6.9,0.4c-1.4-0.4-2.7-1-3.7-2.1c-0.4-0.4-0.7-0.9-0.9-1.3c-0.2-0.5-0.3-0.9-0.1-1.4
		C41.8,70.4,41.8,70,41.9,69.7z"/>
	<path class="st6" d="M55.9,65.9c-1.2,0.7-2.4,1.6-3.6,2.4c-1.1,0.7-2.2,1-3.4,1.3c-0.2,0-0.4,0-0.5,0c-1.2-0.3-2.3-0.6-3.4-1.3
		c-0.9-0.6-1.9-1.2-2.8-1.8c-1.9-1.5-3.6-3.2-5.1-5.1c-2-2.5-3.5-5.3-4.2-8.4c-0.2-0.8-0.3-1.7-0.4-2.6c0-0.3-0.1-0.4-0.4-0.4
		c-0.7,0-1.1-0.3-1.5-0.8c-0.2-0.2-0.4-0.4-0.5-0.6c-1.5-2.3-2.4-4.9-2.2-7.7c0.1-1,0.3-2,0.9-2.8c0.6-0.8,1.3-1.2,2.3-1.1
		c0.4,0.1,0.7,0.3,0.8,0.7c0.1,0.3,0.1,0.5,0.1,0.8c0.2,2.1,0.4,4.1,0.6,6.2c0,0.1,0.1,0.2,0.1,0.2c0.3,0.1,0.4-0.1,0.6-0.3
		c1.1-1.3,1.9-2.8,2-4.5c0.5-5,4-8.9,9.2-10.2c1.2-0.3,2.4-0.5,3.6-0.9c2.7-0.8,5.2-2,7.4-3.9c1-0.8,1.8-1.8,2.5-2.8
		c0.4-0.5,0.5-0.5,0.9,0.1c0.9,1.5,1.7,3,2.5,4.5c0.4,0.9,0.8,1.8,1.2,2.7c0.5,1.1,0.7,2.2,0.7,3.3c0,0.8,0,1.5,0,2.3
		c0,0.9,0.2,1.7,0.5,2.5c0.6,1.6,1.3,3.2,2.1,4.7c0.1,0.1,0.2,0.2,0.3,0.4c0.2-0.3,0.2-0.6,0.2-0.9c0.1-0.3,0.1-0.6,0.1-0.9
		c0.1-1,0.1-2,0.2-3c0.1-0.9,0.4-1.1,1.2-1.1c0.9-0.1,1.5,0.3,2,1c0.6,0.8,0.9,1.7,0.9,2.7c0.3,3.1-0.7,5.8-2.5,8.3
		c-0.5,0.7-1.1,1.2-2.1,1.1c-0.1,0.3-0.2,0.6-0.2,0.9c-0.4,2.4-1.4,4.5-2.6,6.5c-1.8,2.9-4.1,5.3-6.6,7.6
		C56.6,65.3,56.2,65.6,55.9,65.9z"/>
</g>
</svg>
