<?xml version="1.0" encoding="utf-8"?>
<!-- Generator: Adobe Illustrator 25.4.1, SVG Export Plug-In . SVG Version: 6.00 Build 0)  -->
<svg version="1.1" id="Layer_1" xmlns="http://www.w3.org/2000/svg" xmlns:xlink="http://www.w3.org/1999/xlink" x="0px" y="0px"
	 viewBox="0 0 100 100" style="enable-background:new 0 0 100 100;" xml:space="preserve">
<style type="text/css">
	.st0{fill:#AE9DCB;}
	.st1{fill:#F9B233;}
	.st2{fill:#F7DAA2;}
	.st3{fill:#95A53A;}
	.st4{fill:#72BCC6;}
	.st5{fill:#153C37;}
	.st6{fill:#F8BB8D;}
	.st7{fill:#E72F2A;}
	.st8{fill:#DDA778;}
	.st9{fill:#EB5745;}
	.st10{fill:#F4A77E;}
	.st11{fill:#0C4B74;}
	.st12{fill:#093959;}
	.st13{fill:#293033;}
	.st14{fill:#442A28;}
	.st15{fill:#452A28;}
	.st16{fill:#65453B;}
	.st17{fill:#8E6A55;}
	.st18{fill:#A88366;}
	.st19{fill:#64473C;}
	.st20{fill:#825D4C;}
	.st21{fill:#83624F;}
	.st22{fill:#714E41;}
	.st23{fill:#BC906F;}
	.st24{fill:#D84B59;}
	.st25{fill:#331B19;}
	.st26{fill:#063662;}
	.st27{fill:#271510;}
	.st28{fill:#291712;}
	.st29{fill:#2A1813;}
	.st30{fill:#554039;}
	.st31{fill:#604E45;}
	.st32{fill:#9E6C5B;}
	.st33{fill:#956252;}
	.st34{fill:#AC100A;}
	.st35{fill:#4E3629;}
	.st36{fill:#482D22;}
	.st37{fill:#462D22;}
	.st38{fill:#453025;}
	.st39{fill:#2C1611;}
	.st40{fill:#631912;}
	.st41{fill:#6E7ABA;}
	.st42{fill:#432A19;}
	.st43{fill:#997271;}
	.st44{fill:#8F625A;}
	.st45{fill:#4D321F;}
	.st46{fill:#673A26;}
	.st47{fill:#472C1B;}
	.st48{fill:#4C2E1C;}
</style>
<path class="st0" d="M90,100H10c-5.5,0-10-4.5-10-10V10C0,4.5,4.5,0,10,0h80c5.5,0,10,4.5,10,10v80C100,95.5,95.5,100,90,100z"/>
<g>
	<path class="st0" d="M18,88.3c-0.4,0-0.6-0.3-0.9-0.6c-1.6-1.6-3.2-3.1-4.7-4.7c-2.3-2.5-4.1-5.3-5.8-8.2
		c-1.9-3.2-3.3-6.6-4.4-10.2c-0.7-2.2-1.1-4.5-1.5-6.7c-0.7-4.1-0.7-8.2-0.4-12.3c0.1-2.8,0.7-5.5,1.4-8.1c1.7-6.6,4.7-12.6,8.8-18
		c1.7-2.2,3.4-4.2,5.5-6c5-4.5,10.6-8.1,16.9-10.4c3.1-1.1,6.2-1.9,9.4-2.4C44.1,0.2,46,0,48,0c1.5,0,2.9,0,4.4,0
		c2.1,0,4.2,0.3,6.3,0.6c3.5,0.6,6.9,1.6,10.2,2.9c4,1.6,7.7,3.8,11.2,6.3c2.9,2.1,5.4,4.6,7.7,7.2c2.4,2.7,4.4,5.6,6.1,8.8
		c2.2,4,3.8,8.2,4.8,12.7c0.5,2.2,0.8,4.4,1.1,6.7c0.2,1.8,0.2,3.5,0.2,5.3c0,2.1-0.2,4.2-0.5,6.2c-0.3,2.3-0.8,4.4-1.4,6.6
		c-0.5,1.9-1.1,3.7-1.9,5.5c-1.4,3.4-3.1,6.5-5.2,9.5c-2.2,3.1-4.6,5.9-7.4,8.5c-0.9,0.8-1.8,1.8-3,2.4C80,89.1,80.1,88.5,80,88
		c-0.4-2.1-0.8-4.2-1.5-6.2c-0.7-1.9-1.9-3.2-3.6-4.2c-2.9-1.7-6-3-9-4.3c-0.6-0.3-1.6-0.4-1.5-1.4c0.8-0.8,2-1.1,2.9-1.7
		c0.6-0.5,1.2-1,1.7-1.5c0.3-0.4,0.5-0.8,0.1-1.2c-2.3-2.7-2.5-5.9-2.3-9.1c0.1-2.8,0.7-5.6,1.4-8.3c0.1-0.3,0.2-0.7,0.3-1
		c1-1.5,1.7-3.1,2.2-4.8c0.7-2.3,0.3-4.4-0.7-6.5c1.2-5,0.6-9.8-1-14.6c-1.4-4-3.4-7.7-6.5-10.7c-1.9-1.7-4-3-6.6-3.3
		c-1.7-0.2-3.3,0.2-4.8,0.8c-0.9,0.4-1.6,0.5-2.4-0.1c-1.8-1.2-3.7-1.1-5.6-0.6c-3.3,0.9-5.8,3-7.8,5.6c-5.1,6.3-6.8,13.6-5.6,21.6
		c0.1,0.4,0.2,0.9,0.1,1.4c-1.5,3-1,6,0.1,9c0.1,0.4,0.1,0.7,0.2,1.1c0.8,4.5,1,9,0.3,13.5c-0.3,1.8-1.1,3.4-2.4,4.8
		c-0.9,0.9-0.9,1.4,0.2,2.3c1.6,1.4,3.4,2.4,5.4,3.1c0.6,0.2,1.3,0.3,1.6,0.9c-0.1,1-1,1.1-1.6,1.4c-2.6,1.1-5.1,2.4-7.8,3.5
		c-3.9,1.5-5.8,4.4-6.5,8.3c-0.1,0.7-0.2,1.3-0.4,2C18.6,87.8,18.6,88.4,18,88.3z"/>
	<path class="st41" d="M18,88.3c0.2-0.1,0.3-0.3,0.3-0.6c0.3-1.8,0.7-3.5,1.4-5.2c0.1-0.2,0.1-0.4,0.2-0.6c1-2.3,1.4-2.7,3.7-4
		c2.4-1.3,5-2.4,7.5-3.5c1.1-0.5,2.2-0.9,3.2-1.4c0.2-0.1,0.5-0.2,0.6-0.5c2.1-1.3,4.3-2,6.6-2.9c0.3-0.1,0.5-0.1,0.8,0.1
		c0.1,0.1,0.2,0.2,0.2,0.4c0,1-0.3,2,0.5,2.8c1,1.1,2.2,2,3.7,2.4c2.3,0.6,4.6,0.5,6.8-0.4c0.8-0.3,1.5-0.8,2.1-1.4
		c0.9-0.9,1.5-1.8,0.8-3.1c-0.2-0.3-0.3-0.8,0-1.2c0.4-0.2,0.8-0.1,1.2,0c2.1,0.8,4.3,1.6,6.4,2.5c0.2,0.1,0.3,0.2,0.4,0.4
		c0.4,0.6,1,0.7,1.6,1c2.3,1,4.7,2,6.9,3.1c1,0.5,2,1.1,2.9,1.7c1.5,0.9,2.4,2.2,3,3.7c0.8,2.3,1.3,4.6,1.6,7c0,0.3,0.1,0.6,0.3,0.9
		c0,0,0,0,0,0c-0.1,0.1-0.2,0.2-0.3,0.3c-4.5,3.5-9.4,6.1-14.8,7.9c-3.5,1.2-7.1,1.9-10.7,2.3c-2.7,0.3-5.4,0.3-8.1,0.2
		c-5.9-0.4-11.6-1.7-17-4.2c-3.7-1.7-7.2-3.7-10.4-6.2C18.9,89.2,18.3,88.8,18,88.3z"/>
	<path class="st0" d="M80.4,89.6c0-0.1,0.1-0.2,0.3-0.3C80.7,89.5,80.6,89.6,80.4,89.6z"/>
	<path class="st42" d="M29.5,37.6c-0.4-0.9-0.4-1.8-0.5-2.8c-0.1-1.5-0.2-3-0.1-4.5c0.1-2.9,0.7-5.7,1.7-8.3
		c1.4-3.6,3.3-6.7,6.1-9.4c1.4-1.3,2.8-2.4,4.5-3.2c1.3-0.6,2.7-1,4.2-1c1.4,0,2.6,0.4,3.7,1.2c0.2,0.1,0.4,0.3,0.5,0.4
		c0.5,0,0.8-0.3,1.1-0.5c2.7-1.3,5.3-1.3,8-0.1c2.2,1,4,2.5,5.5,4.4c2.6,3.2,4.3,6.8,5.5,10.7c1,3.2,1.3,6.6,1.1,9.9
		c-0.1,0.9-0.2,1.7-0.3,2.6c0,0.3-0.2,0.5-0.4,0.7c-1.1-0.3-2.1-0.9-2.9,0.5c-0.3,0.3-0.7,0.2-1-0.1c-1.4-1.2-3.2-1.6-5-1.9
		c-0.2,0-0.4-0.1-0.6-0.2c-2.1-1.3-3.5-3.3-5.1-5.1c-2-2.3-3.7-4.8-5.1-7.5c-0.3-0.6-0.6-1.1-0.5-1.5c-0.8,5.7-3.6,10.4-8.2,14.1
		c-0.8,0.2-1.6,0.3-2.4,0.3c-2.7,0.2-4.8,1.5-6.7,3.3c-0.4-0.1-0.4-0.4-0.4-0.7c-0.4-1.7-0.5-1.7-2.2-1.2
		C29.8,37.6,29.7,37.7,29.5,37.6z"/>
	<path class="st6" d="M29.5,37.6c0.3-0.2,0.6-0.5,1-0.6c0.4-0.1,0.8-0.1,1.2,0c0.3,0.1,0.5,0.2,0.5,0.5c0.1,0.7,0.2,1.3,0.3,2
		c0.4,0.7,0.5,1.5,0.5,2.2c0,0.8-0.1,1.5,0.2,2.3c0.5,0.1,0.7-0.6,1.2-0.5c0.8,0.4,1.1,1.3,1.7,1.9c0.6,0.5,1.1,1.1,1.9,1.2
		c2.5,0.4,5.1,0.5,7.4-0.9c1.3-0.8,2.2-2,2.7-3.4c0.1-0.4,0.3-0.8,0.4-1.2c0.3-1,0.7-1.7,1.8-1.7c1,0,1.2,1,1.4,1.8
		c0.6,2.9,2.4,4.6,5.1,5.4c1.7,0.5,3.4,0.4,5.1,0.1c2-0.4,2.9-2,3.9-3.6c0.2-0.2,0.5-0.5,0.6-0.8c1.5-1.3,0.9-2.8,0.5-4.4
		c0.1-0.3,0.1-0.6,0.5-0.8c0.4-0.2,0.8-0.3,1.3-0.2c0.5,0.1,0.9,0.3,1.2,0.8c1.2,1.4,1.4,3,1.2,4.7c-0.2,1.7-0.7,3.4-1.5,5
		c-0.3,0.6-0.8,1.1-1.1,1.7c-0.2,0.2-0.3,0.6-0.6,0.8c-0.9,0.3-1.2,1-1.4,1.9c-0.8,3.4-2.6,6.3-4.8,9c-1.6,1.9-3.3,3.7-5.3,5.2
		c-1.7,1.3-3.4,2.6-5.4,3.4c-1.5,0.6-2.9,0.5-4.3-0.1c-1.6-0.7-3.1-1.7-4.5-2.8c-5.1-4-8.7-8.8-9.7-15.3c-0.1-0.6-0.3-0.9-0.8-1.1
		c-0.9-0.4-1.6-1.1-1.9-2.1c-0.1-0.4-0.3-0.7-0.4-1c-0.3-1-0.8-2-1-3.1c-0.2-1.3-0.2-2.7,0-4.1C28.6,38.9,29,38.2,29.5,37.6z"/>
	<path class="st42" d="M30,47.7c0.2,0.3,0.4,0.6,0.6,0.9c0.7,1,1.1,1.2,2.4,1.4c0.1,0.5,0.1,1,0.2,1.6c0.3,2.4,1.1,4.6,2.3,6.6
		c1.8,3.1,4.2,5.8,7.1,8c0.7,1.3,0.6,2.5-0.3,3.4c-1.3,0.5-2.7,1-4,1.6c-0.8,0.3-1.6,0.7-2.3,1c-0.3,0.1-0.7,0.3-1,0.2
		c-0.7-0.3-1.3-0.5-2-0.8c-1.7-0.7-3.4-1.5-4.8-2.7c-0.6-0.5-1.1-1.2-1.5-1.9c-0.1-0.2-0.1-0.3,0.1-0.5c0,0,0.1-0.1,0.1-0.1
		c1.7-1.1,2.5-2.8,3-4.7c0.3-1.2,0.5-2.4,0.6-3.6c0.2-3.2,0-6.3-0.5-9.5c-0.1-0.3-0.1-0.6-0.1-0.9C29.8,47.6,29.9,47.6,30,47.7z"/>
	<path class="st42" d="M56.4,65.7c2.7-2.1,5-4.6,6.9-7.4c1.3-2,2.4-4,3-6.4c0.1-0.5,0.2-1,0.3-1.5c0.1-0.3,0.2-0.5,0.5-0.5
		c0.4,0,0.7-0.1,1-0.4c0.3-0.1,0.4,0,0.3,0.3c-0.3,1.7-0.8,3.4-1,5c-0.4,2.5-0.6,4.9-0.2,7.4c0.3,2.1,1,3.9,2.6,5.3
		c-0.1,0.6-0.5,0.9-0.8,1.3c-0.8,0.9-1.7,1.5-2.7,2.1c-0.7,0.4-1.4,0.7-2.1,1c-0.5,0-1-0.2-1.4-0.3c-2-0.8-4-1.5-5.9-2.3
		c-0.2-0.1-0.3-0.1-0.5-0.2C55.4,68,55.8,66.8,56.4,65.7z"/>
	<path class="st43" d="M30,47.7c-0.1,0-0.2,0-0.3,0c-0.3-0.2-0.2-0.5-0.2-0.8C29.8,47.1,29.9,47.4,30,47.7z"/>
	<path class="st44" d="M68.5,49.9c-0.1-0.1-0.2-0.2-0.3-0.3c0.1-0.3,0.3-0.4,0.6-0.5C68.7,49.4,68.7,49.7,68.5,49.9z"/>
	<path class="st8" d="M56.4,65.7c0,0.3,0,0.5-0.1,0.8c-0.2,0.9-0.1,1.8,0.1,2.7c0,0.6,0.3,1.2,0.6,1.8c0.2,0.4,0.1,0.7,0,1
		c-0.7,1.4-1.7,2.5-3.1,3c-1.8,0.7-3.7,1.1-5.7,0.8c-1.1-0.2-2.2-0.4-3.2-0.9c-1-0.5-1.8-1.3-2.5-2.2c-0.5-0.6-0.7-1.4-0.4-2.2
		c0.1-0.3,0.1-0.6,0.2-0.9c0.4-1.1,0.5-2.3,0.3-3.4c1.3,1.1,2.7,2,4.3,2.7c0.7,0.3,1.4,0.5,2.2,0.6c1.2,0.1,2.2-0.4,3.2-1
		c0.9-0.5,1.7-1.1,2.6-1.6C55.5,66.6,55.8,65.9,56.4,65.7z"/>
	<path class="st6" d="M41.7,35.7c0.2-0.5,0.7-0.7,1-1.1c2.4-2.4,4.4-5.1,5.7-8.4c0.5-1.2,0.8-2.4,1-3.7c0.1-0.4,0.2-0.8,0.3-1.3
		c0.2,0.3,0.3,0.4,0.3,0.6c2,4.5,5,8.3,8.4,11.8c0.7,0.7,1.3,1.3,2,2c-0.4,0.5-1,0.4-1.5,0.4c-2.6,0.2-5,0.6-7.1,2.2
		c-0.9,0.7-1.9,0.6-2.7,0c-2-1.4-4.3-1.9-6.6-2.2C42.2,36,41.9,35.9,41.7,35.7z"/>
	<path class="st34" d="M41.7,35.7c1.3,0.1,2.5,0.2,3.7,0.6c1.1,0.3,2.2,0.7,3.1,1.4c0.5,0.4,1.1,0.6,1.7,0.7c0.5,0.1,1,0,1.4-0.4
		c1-1,2.3-1.4,3.6-1.7c1.7-0.4,3.4-0.5,5.1-0.5c0.8,0.2,1.7,0.3,2.5,0.5c1.3,0.2,2.4,0.8,3.4,1.6c0.3,0.2,0.5,0.4,0.8,0.1
		c0.6,0.3,0.8,0.8,0.8,1.5c0,0.5,0,1.1,0,1.6c0,0.6-0.2,1-0.7,1.3c-0.1,0-0.2,0.1-0.3,0.2c-0.2,0.2-0.4,0.4-0.5,0.6
		c-0.2,0.4-0.4,0.9-0.7,1.3c-1,1.7-2.4,2.6-4.4,2.8c-1.4,0.1-2.9,0.1-4.3-0.3c-3-0.9-4.8-2.8-5.4-5.8c0-0.2-0.1-0.4-0.1-0.5
		c-0.2-0.8-0.9-1.1-1.6-0.7c-0.3,0.2-0.5,0.5-0.6,0.8c-0.1,0.3-0.2,0.6-0.2,0.9c-0.7,3-3,5.2-6.7,5.6c-0.9,0.1-1.8,0.1-2.7,0
		c-2-0.1-3.4-1.1-4.5-2.7c-0.2-0.3-0.4-0.6-0.6-0.9c-0.5-0.5-1.2-1-1.6-1.6c-0.1-0.8-0.3-1.6-0.2-2.5c0.1-0.2,0.1-0.4,0.2-0.6
		c0.1-0.4,0.3-0.7,0.7-0.7c0.4,0,0.8-0.2,1.1-0.5c1.1-1,2.4-1.4,3.8-1.6C39.4,35.8,40.6,35.6,41.7,35.7z"/>
	<path class="st45" d="M32.8,42c0.2,0.1,0.3,0.2,0.5,0.2c0.7,0.2,1.1,0.7,1.2,1.4c-0.4,0.4-0.7,1-1.3,1.4C32.9,43.9,32.7,43,32.8,42
		z"/>
	<path class="st46" d="M66.2,43.1c0-0.4,0.2-0.5,0.5-0.6C66.7,43,66.7,43,66.2,43.1z"/>
	<path class="st6" d="M65.4,41.8c-0.1,1-0.5,1.8-1.1,2.6c-0.8,1.2-2,1.8-3.4,2c-1.4,0.1-2.8,0.1-4.2-0.4c-2.1-0.7-3.5-2.2-4-4.4
		c-0.1-0.5-0.2-1.1-0.3-1.6c-0.1-0.9,0.2-1.6,1-2.1c0.9-0.6,1.9-0.9,2.9-1c1.8-0.3,3.7-0.5,5.5,0C64.1,37.7,65.2,39.4,65.4,41.8z"/>
	<path class="st6" d="M40.4,36.6c1.6-0.1,3.2,0.1,4.7,0.5c0.8,0.2,1.6,0.5,2.3,1.1c0.4,0.3,0.6,0.8,0.6,1.3c0,3.1-1.6,6.4-6.1,6.8
		c-0.7,0.1-1.4,0-2.2,0c-1.7-0.1-3-0.9-3.9-2.4c-0.4-0.6-0.7-1.3-0.8-2c-0.1-1.4,0.4-2.5,1.7-3.2C38.1,38.1,39.2,37.2,40.4,36.6z"/>
	<path class="st47" d="M40.4,36.6c-0.6,0.8-1.5,1.3-2.3,1.8c-0.5,0.3-1,0.7-1.5,0.9c-0.7,0.3-1,0.8-1.1,1.6c-0.1,0.4-0.2,0.7-0.3,1
		c-0.4-0.7-0.2-1.5-0.3-2.2c-0.1-0.4,0.2-0.9,0.6-1.3c0.9-1,2.1-1.3,3.3-1.6C39.3,36.7,39.8,36.6,40.4,36.6z"/>
	<path class="st48" d="M65.4,41.8c-0.5-0.5-0.7-1.2-0.8-1.8c-0.1-0.8-0.6-1.3-1.2-1.8c-0.5-0.4-1.1-0.8-1.5-1.3
		c1,0.2,1.9,0.5,2.7,1.1c0.7,0.5,1.1,1.1,1.1,2C65.7,40.5,65.7,41.2,65.4,41.8z"/>
</g>
</svg>
