<?xml version="1.0" encoding="utf-8"?>
<!-- Generator: Adobe Illustrator 25.4.1, SVG Export Plug-In . SVG Version: 6.00 Build 0)  -->
<svg version="1.1" id="Layer_1" xmlns="http://www.w3.org/2000/svg" xmlns:xlink="http://www.w3.org/1999/xlink" x="0px" y="0px"
	 viewBox="0 0 100 100" style="enable-background:new 0 0 100 100;" xml:space="preserve">
<style type="text/css">
	.st0{fill:#AE9DCB;}
	.st1{fill:#F9B233;}
	.st2{fill:#F7DAA2;}
	.st3{fill:#95A53A;}
	.st4{fill:#72BCC6;}
	.st5{fill:#153C37;}
	.st6{fill:#F8BB8D;}
	.st7{fill:#E72F2A;}
	.st8{fill:#DDA778;}
	.st9{fill:#EB5745;}
	.st10{fill:#F4A77E;}
	.st11{fill:#0C4B74;}
	.st12{fill:#093959;}
	.st13{fill:#293033;}
	.st14{fill:#442A28;}
	.st15{fill:#452A28;}
	.st16{fill:#65453B;}
	.st17{fill:#8E6A55;}
	.st18{fill:#A88366;}
	.st19{fill:#64473C;}
	.st20{fill:#825D4C;}
	.st21{fill:#83624F;}
	.st22{fill:#714E41;}
	.st23{fill:#BC906F;}
	.st24{fill:#D84B59;}
	.st25{fill:#331B19;}
	.st26{fill:#063662;}
	.st27{fill:#271510;}
	.st28{fill:#291712;}
	.st29{fill:#2A1813;}
	.st30{fill:#554039;}
	.st31{fill:#604E45;}
	.st32{fill:#9E6C5B;}
	.st33{fill:#956252;}
	.st34{fill:#AC100A;}
	.st35{fill:#4E3629;}
	.st36{fill:#482D22;}
	.st37{fill:#462D22;}
	.st38{fill:#453025;}
	.st39{fill:#2C1611;}
	.st40{fill:#631912;}
	.st41{fill:#6E7ABA;}
	.st42{fill:#432A19;}
	.st43{fill:#997271;}
	.st44{fill:#8F625A;}
	.st45{fill:#4D321F;}
	.st46{fill:#673A26;}
	.st47{fill:#472C1B;}
	.st48{fill:#4C2E1C;}
</style>
<path class="st4" d="M90,100H10c-5.5,0-10-4.5-10-10V10C0,4.5,4.5,0,10,0h80c5.5,0,10,4.5,10,10v80C100,95.5,95.5,100,90,100z"/>
<g>
	<path class="st4" d="M17.4,88.9C12.8,85,9,80.2,6.1,74.8c-2.5-4.5-4.1-9.3-5.2-14.3c-0.3-1.6-0.5-3.2-0.7-4.8C0,53.5,0,51.2,0,49
		c0-2.8,0.4-5.6,0.9-8.3c0.9-4.8,2.5-9.4,4.8-13.7c1.7-3.3,3.7-6.3,6.1-9.1c3.5-4.2,7.5-7.7,12.1-10.5c4.5-2.8,9.3-4.8,14.4-6
		c2.3-0.5,4.6-0.9,7-1.2C47.4,0,49.5,0,51.5,0c2.2,0,4.3,0.3,6.5,0.6c4.1,0.7,8.1,1.9,12,3.6c3.6,1.6,7,3.6,10.2,6
		c5.4,4.1,9.8,9.1,13.2,15c2.3,4,4,8.2,5.1,12.7c0.6,2.3,1,4.7,1.3,7.2c0.3,3.3,0.4,6.5,0.1,9.8c-0.4,5.3-1.7,10.4-3.7,15.3
		c-1.9,4.6-4.5,8.9-7.7,12.8c-2.3,2.9-5,5.4-7.9,7.7c-0.2,0.2-0.5,0.3-0.8,0.5c-0.5-0.3-0.5-0.9-0.6-1.4c-0.4-2.3-0.9-4.7-1.6-6.9
		c-0.6-1.8-1.7-3.2-3.3-4.1c-3.2-1.9-6.6-3.4-10-4.8c-2.4-1-4.9-2-7.3-2.9c-0.5-0.2-1.1-0.4-1.5-0.8c-0.6-1.1-0.4-2.2-0.2-3.3
		c0.9-1.7,2.8-2.5,3.9-4c0.1-0.1,0.2-0.2,0.3-0.3c0.1-0.1,0.2-0.1,0.3-0.2c0.2-0.1,0.5-0.3,0.7-0.5c0.2-0.2,0.4-0.3,0.6-0.4
		c0.1-0.1,0.3-0.2,0.4-0.4c0.6-0.6,1.2-1.2,1.8-1.9c1.6-1.8,2.7-3.7,3-6.1c0.1-0.9,0.3-1.9,0.7-2.8c3-3.6,4-7.5,2.3-12
		c0-0.5,0.2-1,0.4-1.4c2.2-6.4,2.3-12.7,0.2-19.1c-0.7-2-1.7-3.8-3.2-5.4c-2.1-2.1-4.6-2.8-7.3-1.7c-1.2,0.5-2.1,0.3-3.1-0.5
		c-6-4.9-14.4-3.9-20.3,0.9c-7.9,6.5-10.2,17.1-7.2,26.3c0.1,0.2,0.1,0.4,0.2,0.7c0,0.6-0.4,1.1-0.7,1.6c-0.8,1.9-0.5,3.9,0.1,5.8
		c0.5,1.5,1.3,2.9,2,4.3c0.1,0.6,0.3,1.2,0.4,1.9c0.3,3.7,2,6.8,4.8,9.2c0.2,0.2,0.4,0.4,0.7,0.6c0.1,0.1,0.2,0.1,0.3,0.2
		c0.1,0.1,0.3,0.2,0.4,0.4c1.4,1.5,2.7,3.2,4.4,4.4c0.4,0.3,0.6,0.6,0.8,1.1c0.1,1,0.3,2.1-0.3,3c-1.3,1-2.9,1.4-4.4,2
		c-4.2,1.8-8.4,3.7-12.5,5.6c-1.1,0.5-2.1,1.2-3.1,1.7c-1.2,0.7-1.9,1.8-2.3,3.1c-0.6,1.6-1,3.1-1.3,4.8
		C17.8,88.1,17.8,88.6,17.4,88.9z"/>
	<path class="st26" d="M17.4,88.9c-0.1-1,0.3-2,0.5-3c0.3-1.3,0.7-2.5,1.2-3.8c0.5-1.3,1.4-2.3,2.7-3c2.4-1.4,4.9-2.6,7.4-3.7
		c3.5-1.6,7.1-3.1,10.6-4.6c0.5-0.2,1-0.4,1.5-0.6c0.2,0.2,0.3,0.4,0.2,0.6c-0.6,1.9,0.5,3,1.8,3.9c1.1,0.7,1.8,1.7,2.3,2.8
		c0.6,1.2,1,2.4,1.8,3.5c0.8,1.1,1.5,1.1,2.2,0c0.7-1,1.2-2.2,1.6-3.3c0.5-1.2,1.1-2.2,2.3-2.8c0.7-0.4,1.3-1,1.7-1.7
		c0.4-0.7,0.7-1.4,0.2-2.2c-0.2-0.4-0.4-0.9,0.1-1.4c2.9,1.2,5.9,2.3,8.8,3.5c2.8,1.1,5.5,2.4,8.1,3.8c1,0.6,2,1.2,3,1.8
		c0.8,0.6,1.4,1.4,1.8,2.3c0.8,1.7,1.2,3.5,1.6,5.4c0.3,1.4,0.6,2.9,0.8,4.3c0,0,0,0,0,0c-0.1,0.1-0.2,0.2-0.3,0.3
		c-5.8,4.3-12.2,7.2-19.2,8.7c-3.7,0.8-7.5,1.1-11.3,1.1c-11.1-0.3-21-3.8-29.8-10.7C18.6,90,18,89.4,17.4,88.9z"/>
	<path class="st4" d="M79.5,91.4c0-0.1,0.1-0.3,0.3-0.3C79.8,91.3,79.7,91.4,79.5,91.4z"/>
	<path class="st27" d="M28.6,38c-0.6-0.7-0.7-1.7-0.9-2.6c-1.2-5.2-1-10.3,1-15.2c2.2-5.4,5.8-9.6,11.1-12.1c2.9-1.4,6-1.9,9.3-1.5
		c2.8,0.4,5.3,1.5,7.5,3.3c0.2,0.1,0.4,0.3,0.5,0.4c0.4,0.4,0.8,0.5,1.3,0.2c0.7-0.4,1.4-0.6,2.2-0.7c2.2-0.4,4,0.2,5.7,1.6
		c1.1,0.9,1.9,2,2.6,3.3c1,1.8,1.7,3.7,2.1,5.8c1.1,5.5,0.9,10.8-0.9,16.1c-0.2,0.6-0.4,1.1-0.7,1.7c-2.2-0.5-2.2-0.5-2.9,1.6
		c0,0.1-0.1,0.2-0.2,0.3c-0.1,0-0.3,0-0.4-0.1c-0.4-1.1-0.2-2.4-1.2-3.2c-0.3-1.8-0.4-3.6-0.7-5.3c-0.5-2.5-1.4-4.7-2.9-6.7
		c-0.3-0.4-0.7-0.8-1.1-1.2c-1.6-1.3-1.7-1.3-3,0.2c-2.6,3.1-5.9,4.8-9.6,5.9c-2.4,0.7-5,1-7.4,1.7c-2.4,0.6-4.3,1.8-5.6,4.1
		c-1,1-2,2-3.5,2.1C30,37.7,29.3,38.1,28.6,38z"/>
	<path class="st6" d="M28.6,38c0.6-0.6,1.3-0.8,2.2-0.6c0.2,0.4,0.2,0.8,0.1,1.2c-0.1,1.2,0.2,2.1,1.1,2.8c0.4,0.9,0.1,1.9,0.3,2.8
		c0.3-0.2,0.4-0.6,0.7-0.6c0.4,0,0.6,0.3,0.9,0.6c2.8,3.1,11,2.4,12.5-3.3c0.1-0.4,0.2-0.9,0.4-1.3c0.3-0.7,0.9-1.1,1.7-1.1
		c0.9,0,1.1,0.7,1.3,1.4c0.5,2.7,1.9,4.6,4.5,5.6c2.1,0.8,4.2,0.9,6.4,0.1c1.5-0.5,2.4-1.8,3.1-3.1c0.3-0.6,0.5-1.2,1.3-1.2
		c0.4,0.2,0.5,0.6,0.6,1c0,0.3,0,0.7,0.2,0.9c0.1,0.2,0.2-0.2,0,0c-0.1,0.1,0,0.1-0.1-0.1c-0.1-0.1-0.1-0.3-0.1-0.5c0-0.3,0-0.7,0-1
		c0.1-0.5,0.1-1,0.5-1.4c0.1-0.7,0.2-1.3,0.3-2c0.1-0.5,0.3-0.7,0.8-0.8c0.6-0.1,1.2,0,1.6,0.4c0.2,0.1,0.4,0.3,0.5,0.4
		c0.8,1.4,1,2.9,0.9,4.5c-0.2,3-1.2,5.6-3.3,7.7c-0.7,0.5-1.1,1.1-1.3,2c-0.8,3.2-2.3,5.9-4.4,8.4c-0.1,0.1-0.2,0.3-0.4,0.4
		c-0.1,0.2-0.3,0.3-0.5,0.5c-0.3,0.3-0.6,0.6-0.9,0.8l0,0c-0.1,0.1-0.2,0.2-0.3,0.3c-0.7,0.8-1.5,1.6-2.3,2.3
		c-0.6,0.5-1.1,1-1.6,1.5c-1.8,1.9-4,3.2-6.5,4c-0.3,0.1-0.5,0.2-0.8,0.1c-2.5-0.5-4.8-1.6-6.5-3.6c-1.9-1.5-3.7-3.2-5.2-5.2
		c-0.1-0.1-0.2-0.2-0.3-0.3l0,0c-0.3-0.2-0.5-0.6-0.8-0.9c-2-2.4-3-5.2-3.5-8.2c-0.2-0.9-0.2-1.7-1.2-2c-0.4-0.1-0.5-0.5-0.7-0.8
		c-1-1.5-1.8-3.1-2.3-4.8c-0.4-1.5-0.6-3-0.2-4.6C27.7,39.5,28,38.8,28.6,38z"/>
	<path class="st8" d="M41.7,67.2c1.4,0.9,2.7,1.9,4.3,2.6c0.2,0.1,0.3,0.2,0.5,0.2c1,0.4,1.9,0.6,3,0.2c1-0.4,2.1-0.9,3-1.5
		c0.9-0.6,1.8-1.2,2.6-1.9c0.1-0.1,0.2-0.1,0.4-0.1c-0.2,0.9-0.2,1.8-0.1,2.7c0,0.3,0.1,0.5,0.3,0.7c-0.1,0.6,0.1,1.1,0.4,1.6
		c0.3,0.6,0.2,1,0,1.5c-0.5,1-1.2,2-2.3,2.5c-1,0.5-1.6,1.3-2,2.3c-0.4,1-0.9,2-1.4,3c-0.2,0.5-0.5,1-0.9,1.3
		c-0.6,0.5-1.1,0.6-1.7,0c-0.3-0.3-0.6-0.7-0.8-1.1c-0.5-0.9-0.9-1.8-1.3-2.7c-0.2-0.4-0.4-0.8-0.6-1.2c-0.3-0.8-0.8-1.3-1.5-1.7
		c-1-0.6-1.8-1.4-2.3-2.5c-0.3-0.5-0.4-1-0.1-1.6c0.2-0.3,0.3-0.7,0.3-1.1C41.8,69.4,41.6,68.3,41.7,67.2z"/>
	<path class="st28" d="M29.9,49.8c0.6,0.3,1.1,1,1.8,0.8c0.3,0.2,0.3,0.4,0.3,0.6c0.1,2.8,1,5.3,2.4,7.8c0.4,0.7,0.8,1.3,1.2,2
		c0.1,0.3,0,0.3-0.3,0.3c-0.9-0.7-1.6-1.5-2.3-2.3c-1.2-1.4-2-3-2.4-4.9C30.4,52.6,30.1,51.2,29.9,49.8z"/>
	<path class="st29" d="M61,60.9c0.8-1.1,1.6-2.2,2.3-3.4c1.1-1.9,2-4,2.3-6.2c0.1-0.5,0.2-0.7,0.7-0.7c0.2,0,0.4-0.1,0.7-0.1
		c-0.3,1.5-0.6,3-0.9,4.4c-0.3,1.1-0.8,2-1.4,2.9c-1,1.4-2.1,2.6-3.5,3.6c0,0.1-0.1,0.2-0.2,0.2c-0.2,0.1-0.4,0.3-0.6,0.4
		c-0.1-0.1-0.1-0.2,0-0.4c0.1-0.2,0.3-0.3,0.4-0.5C60.8,61,60.9,60.9,61,60.9z"/>
	<path class="st30" d="M60.4,61.6c0,0.1,0,0.2,0,0.4c-0.2,0.3-0.4,0.5-0.8,0.5C59.8,62.1,60,61.8,60.4,61.6z"/>
	<path class="st31" d="M35.4,61.1c0.1-0.1,0.2-0.2,0.3-0.3c0.3,0.2,0.5,0.5,0.6,0.8C35.8,61.7,35.6,61.5,35.4,61.1z"/>
	<path class="st32" d="M59.3,62.8c0-0.2,0.1-0.3,0.3-0.3C59.6,62.7,59.5,62.7,59.3,62.8z"/>
	<path class="st33" d="M36.2,61.6c0.2,0,0.3,0.2,0.3,0.3C36.3,61.9,36.2,61.8,36.2,61.6z"/>
	<path class="st30" d="M61,61.6c0.1-0.1,0.1-0.1,0.2-0.2C61.2,61.5,61.1,61.6,61,61.6z"/>
	<path class="st6" d="M34.1,35.5c0.4-1.3,1.3-2.2,2.4-2.9c1.1-0.7,2.3-1.2,3.5-1.5c1.7-0.4,3.4-0.8,5.2-1.1c2.3-0.5,4.5-1.2,6.5-2.3
		c2.4-1.3,4.5-3,6-5.3c0.1-0.1,0.2-0.2,0.3-0.4c0.9,0.4,1.7,1,2.4,1.7c1.5,1.4,2.5,3.2,3.2,5.1c0.5,1.3,0.8,2.7,1,4.1
		c0.2,1.3,0.4,2.6,0.3,4c-0.5,0.3-0.9-0.1-1.4-0.3c-4.5-2.4-8.9-2.1-13.2,0.3c-1.4,0.8-2.5,0.9-3.8,0.1c-3.3-2.1-6.9-2.4-10.7-1.6
		C35.2,35.6,34.6,35.9,34.1,35.5z"/>
	<path class="st34" d="M34.1,35.5c1.8-0.5,3.7-0.9,5.6-0.8c1.4,0.1,2.7,0.2,4,0.6c1,0.3,2,0.7,2.8,1.3c0.5,0.4,1.1,0.7,1.7,0.7
		c0.5,0,1-0.1,1.4-0.4c1.1-1,2.4-1.5,3.8-1.8c2.3-0.5,4.7-0.7,7-0.2c1.3,0.3,2.6,0.7,3.7,1.7c0.2,0.2,0.4,0.3,0.7,0.3
		c0.2,0.1,0.4,0.2,0.5,0.4c0.3,0.2,0.5,0.6,0.5,1c0,0.6,0,1.2,0,1.9c0.2,0.2,0.1,0.4,0.1,0.6c-0.2,0.4-0.4,0.7-0.9,0.6
		c-0.4,0.1-0.7,0.3-0.9,0.8c-0.2,0.7-0.5,1.3-0.9,1.8c-0.9,1.4-2.2,2.1-3.8,2.3c-1.6,0.3-3.3,0.2-4.8-0.3c-2.7-0.9-4.5-2.7-5.1-5.6
		c-0.1-0.3-0.1-0.5-0.2-0.8c-0.1-0.3,0-0.7-0.4-0.8c-0.5-0.1-1-0.2-1.4,0.2c-0.2,0.2-0.3,0.4-0.4,0.7c-0.1,0.3-0.2,0.6-0.2,0.9
		c-0.8,3.2-2.9,4.9-6.1,5.5c-1.1,0.2-2.3,0.3-3.5,0.1c-1.7-0.2-3-0.9-4-2.3c-0.1-0.1-0.2-0.2-0.3-0.3c-1.1-0.4-0.6-1.5-1.2-2.2
		c-0.2-0.1-0.4-0.2-0.6-0.3c-0.4-0.2-0.6-0.5-0.6-1c0-0.9-0.2-1.9,0.1-2.8c1-0.3,1.8-0.9,2.7-1.5C33.6,35.8,33.8,35.7,34.1,35.5z"/>
	<path class="st35" d="M65.9,40.7c0-0.2,0-0.4,0-0.5c0.1,0,0.2,0,0.2,0c0.1,0.5,0,1-0.2,1.5C65.6,41.4,65.7,41,65.9,40.7z"/>
	<path class="st36" d="M31.8,41.6c0.3,0.1,0.4,0.5,0.5,0.7c0.2,0.5,0.4,1,0.6,1.5c-0.2,0.5-0.4,0.9-0.6,1.4c0,0.1-0.1,0.2-0.2,0.2
		c-0.1,0-0.2-0.1-0.2-0.3C31.9,43.9,31.9,42.7,31.8,41.6z"/>
	<path class="st37" d="M65.9,40.7c0,0.3,0,0.6,0.1,1c0,0.3-0.1,0.7-0.1,1c-0.3,0.2-0.4-0.1-0.5-0.3c-0.1-0.3-0.2-0.7-0.3-1
		C65.3,41.1,65.6,40.9,65.9,40.7z"/>
	<path class="st38" d="M65.4,42.4c0.2,0.1,0.3,0.2,0.5,0.3c0,0.2,0,0.4-0.1,0.7C65.4,43.1,65.4,42.8,65.4,42.4z"/>
	<path class="st30" d="M61,60.9c0,0.1-0.1,0.2-0.2,0.2C60.8,61,60.9,60.9,61,60.9z"/>
	<path class="st6" d="M57.5,45.5c-1.3,0-2.6-0.2-3.8-0.8c-1.2-0.6-2-1.5-2.6-2.7c-0.5-1-0.7-2.1-0.8-3.2c-0.1-0.8,0.3-1.3,0.9-1.7
		c0.3-0.2,0.7-0.4,1.1-0.6c2.8-1,5.5-1.2,8.4-0.4c0.7,0.2,1.3,0.5,1.8,0.8c0.8,0.5,1.2,1.2,1.1,2.2c-0.1,1.2-0.3,2.4-0.8,3.4
		c-0.9,1.8-2.3,2.9-4.4,2.9C58.2,45.5,57.8,45.5,57.5,45.5z"/>
	<path class="st6" d="M33.3,38.2c0-0.1,0.1-0.3,0.1-0.4c0-0.6,0.3-0.9,0.8-1.2c0.6-0.4,1.3-0.6,2-0.8c2.5-0.5,4.9-0.4,7.4,0.4
		c0.7,0.2,1.3,0.5,1.8,0.9c0.4,0.3,0.6,0.8,0.6,1.3c0,3.7-2.1,6.5-6.1,6.9c-0.7,0.1-1.4,0-2.2,0c-1.8-0.1-3.1-1-3.9-2.5
		c-0.2-0.4-0.4-0.9-0.6-1.4c-0.1-0.2-0.1-0.5-0.1-0.7C33.2,39.9,32.5,39,33.3,38.2z"/>
	<path class="st39" d="M33.3,38.2c0,0.9-0.1,1.9-0.1,2.8c-0.1,0.1-0.2,0.1-0.2,0c-0.1-0.4-0.2-0.9-0.2-1.3c-0.1-0.5-0.1-1.1,0.2-1.6
		C33.1,37.7,33.2,38,33.3,38.2z"/>
	<path class="st40" d="M33,41c0.1,0,0.2,0,0.2,0c0,0.2,0,0.4,0,0.5C33,41.4,32.9,41.2,33,41z"/>
</g>
</svg>
